<svg width="93" height="22" viewBox="0 0 93 22" fill="none" xmlns="http://www.w3.org/2000/svg">
<path d="M18.792 21.408C16.68 21.408 14.672 18.888 12.768 13.848C12.416 13.992 12.064 14.096 11.712 14.16C11.36 14.224 11 14.256 10.632 14.256C10.36 14.256 10.104 14.232 9.864 14.184C9.48 14.712 9.064 15.232 8.616 15.744C8.168 16.24 7.688 16.72 7.176 17.184C6.392 17.904 5.576 18.448 4.728 18.816C3.88 19.2 2.992 19.392 2.064 19.392C0.736 19.392 0.056 18.864 0.024 17.808C0.024 17.36 0.168 16.96 0.456 16.608C0.744 16.24 1.096 16.056 1.512 16.056C1.816 16.056 2.072 16.184 2.28 16.44C2.456 16.632 2.544 16.872 2.544 17.16C2.544 17.944 2.176 18.336 1.44 18.336C1.056 18.336 0.784 18.184 0.624 17.88C0.704 18.456 1.168 18.744 2.016 18.744C2.208 18.744 2.384 18.72 2.544 18.672C4.416 18.192 6.104 16.72 7.608 14.256L8.112 13.392C7.232 12.656 6.792 11.664 6.792 10.416C6.792 9.632 7.016 8.944 7.464 8.352C7.912 7.76 8.528 7.464 9.312 7.464C9.936 7.464 10.48 7.696 10.944 8.16L11.928 6.264C12.584 4.968 13.216 3.968 13.824 3.264C14.56 2.384 15.4 1.776 16.344 1.44C15.944 1.376 15.528 1.336 15.096 1.32C14.664 1.288 14.2 1.272 13.704 1.272C10.76 1.272 8.672 1.632 7.44 2.352C6.608 2.848 5.976 3.368 5.544 3.912C5.08 4.504 4.848 5.024 4.848 5.472C4.848 6.032 5.184 6.376 5.856 6.504C6.08 6.552 6.304 6.576 6.528 6.576C8.08 6.576 9.52 5.936 10.848 4.656C10.912 4.592 10.984 4.576 11.064 4.608C11.128 4.624 11.16 4.672 11.16 4.752C11.16 4.8 11.152 4.832 11.136 4.848C10.88 5.168 10.568 5.464 10.2 5.736C9.832 6.008 9.408 6.256 8.928 6.48C7.968 6.928 7.04 7.152 6.144 7.152C5.44 7.152 4.832 6.992 4.32 6.672C3.712 6.304 3.408 5.792 3.408 5.136C3.408 4.544 3.656 3.968 4.152 3.408C4.904 2.528 6.24 1.872 8.16 1.44C8.944 1.264 9.768 1.128 10.632 1.032C11.512 0.935999 12.44 0.887999 13.416 0.887999C14.072 0.887999 14.672 0.911999 15.216 0.959999C15.776 0.992 16.28 1.048 16.728 1.128C16.712 1.128 16.72 1.136 16.752 1.152C16.784 1.152 16.84 1.16 16.92 1.176C17.16 1.112 17.384 1.064 17.592 1.032C17.8 0.999999 17.984 0.983999 18.144 0.983999C18.816 0.983999 19.152 1.152 19.152 1.488C19.152 1.856 18.848 2.04 18.24 2.04C18.096 2.04 17.912 2.008 17.688 1.944C17.48 1.864 17.24 1.736 16.968 1.56C15.752 1.992 14.704 3.432 13.824 5.88C13.472 6.84 13.144 7.696 12.84 8.448C12.552 9.184 12.288 9.824 12.048 10.368C12.224 10.784 12.416 11.216 12.624 11.664C12.848 12.112 13.088 12.584 13.344 13.08C13.856 12.76 14.368 12.304 14.88 11.712C15.408 11.12 15.936 10.384 16.464 9.504C16.928 8.736 17.384 7.96 17.832 7.176C18.28 6.392 18.744 5.608 19.224 4.824C19.784 3.928 20.352 3.16 20.928 2.52C21.504 1.88 22.088 1.376 22.68 1.008C23.368 0.559999 24.184 0.335999 25.128 0.335999C25.848 0.335999 26.432 0.487999 26.88 0.792C27.36 1.096 27.6 1.544 27.6 2.136C27.6 2.568 27.496 2.912 27.288 3.168C27.096 3.424 26.848 3.552 26.544 3.552C25.984 3.552 25.704 3.272 25.704 2.712C25.704 2.12 25.984 1.824 26.544 1.824C26.944 1.824 27.192 2 27.288 2.352C27.32 2.032 27.176 1.76 26.856 1.536C26.68 1.408 26.496 1.32 26.304 1.272C26.128 1.208 25.952 1.176 25.776 1.176C24.416 1.176 23 2.056 21.528 3.816C21.288 4.104 20.976 4.52 20.592 5.064C20.208 5.608 19.752 6.28 19.224 7.08C18.152 8.68 17.288 9.88 16.632 10.68C16.104 11.32 15.584 11.872 15.072 12.336C14.576 12.8 14.072 13.176 13.56 13.464C14.072 14.376 14.576 15.208 15.072 15.96C15.568 16.696 16.064 17.352 16.56 17.928C17.76 19.336 18.8 20.04 19.68 20.04C20.304 20.04 20.768 19.752 21.072 19.176C21.36 18.648 21.504 18.008 21.504 17.256C21.504 16.456 21.384 15.76 21.144 15.168C21.048 14.928 21.056 14.808 21.168 14.808C21.232 14.808 21.296 14.88 21.36 15.024C21.824 15.92 22.056 16.824 22.056 17.736C22.056 18.68 21.752 19.52 21.144 20.256C20.52 21.024 19.736 21.408 18.792 21.408ZM8.496 12.744C8.8 12.232 9.128 11.64 9.48 10.968C9.848 10.296 10.24 9.552 10.656 8.736C10.352 8.48 10.032 8.352 9.696 8.352C9.12 8.352 8.664 8.624 8.328 9.168C8.04 9.648 7.896 10.192 7.896 10.8C7.896 11.552 8.096 12.2 8.496 12.744ZM10.848 13.8C11.488 13.8 12.08 13.68 12.624 13.44L11.76 10.944C11.264 11.968 10.736 12.904 10.176 13.752C10.288 13.768 10.4 13.784 10.512 13.8C10.624 13.8 10.736 13.8 10.848 13.8ZM42.8925 3.024C41.5165 3.104 40.8285 3.744 40.8285 4.944V12.648C40.8285 14.344 40.4125 15.688 39.5805 16.68C38.5885 17.848 37.0605 18.432 34.9965 18.432C32.9965 18.432 31.4605 17.944 30.3885 16.968C29.4445 16.12 28.9725 14.768 28.9725 12.912V4.344C28.9725 3.512 28.3085 3.072 26.9805 3.024V2.424H33.4125V3.024C32.5485 3.04 31.9725 3.128 31.6845 3.288C31.2845 3.512 31.0845 3.992 31.0845 4.728V13.296C31.0845 16.144 32.4765 17.568 35.2605 17.568C38.3965 17.568 39.9645 15.96 39.9645 12.744V5.088C39.9645 4.24 39.6685 3.656 39.0765 3.336C38.7725 3.176 38.2925 3.072 37.6365 3.024V2.424H42.8925V3.024ZM60.5267 18H53.8547V17.4C54.5267 17.384 54.9987 17.336 55.2707 17.256C55.7507 17.112 55.9907 16.84 55.9907 16.44C55.9907 16.456 55.9427 16.224 55.8467 15.744L54.6227 12.456H48.3347L47.3747 15.144C47.2307 15.544 47.1587 15.904 47.1587 16.224C47.1587 16.96 47.8787 17.352 49.3187 17.4V18H43.5587V17.4C44.1987 17.384 44.6867 17.288 45.0227 17.112C45.6147 16.808 46.0707 16.216 46.3907 15.336L51.1187 2.424L52.9427 1.992L57.8387 15.48C58.1267 16.296 58.5027 16.832 58.9667 17.088C59.2867 17.264 59.8067 17.368 60.5267 17.4V18ZM54.3587 11.664L51.5267 3.768H51.4787L48.6227 11.664H54.3587ZM77.0751 3.024C75.6831 3.072 74.9871 3.744 74.9871 5.04V18.432H74.5311L64.4031 4.656H64.3551V15.336C64.3551 16.664 65.1631 17.352 66.7791 17.4V18H61.1871V17.4C62.7231 17.352 63.4911 16.664 63.4911 15.336V3.96C62.7391 3.368 61.9711 3.056 61.1871 3.024V2.424H65.1471L74.0751 14.592H74.1231V5.04C74.1231 3.76 73.4351 3.088 72.0591 3.024V2.424H77.0751V3.024ZM92.8369 18H86.1649V17.4H86.8369C87.9089 17.4 88.4449 16.856 88.4449 15.768V4.416C88.4449 3.792 88.1889 3.384 87.6769 3.192C87.3729 3.08 86.8689 3.024 86.1649 3.024V2.424H92.8369V3.024C92.0049 3.04 91.4369 3.136 91.1329 3.312C90.7489 3.536 90.5569 4 90.5569 4.704V15.984C90.5569 16.608 90.8049 17.024 91.3009 17.232C91.5889 17.344 92.1009 17.4 92.8369 17.4V18Z" fill="#FF33BA"/>
</svg>
