<svg width="77" height="32" viewBox="0 0 77 32" fill="none" xmlns="http://www.w3.org/2000/svg">
<path d="M2 0.18C2.312 0.18 2.592 0.304 2.84 0.552C3.056 0.776 3.164 1.06 3.164 1.404C3.164 1.716 3.056 1.996 2.84 2.244C2.592 2.492 2.312 2.616 2 2.616C1.624 2.616 1.328 2.492 1.112 2.244C0.888 1.996 0.776 1.716 0.776 1.404C0.776 1.028 0.9 0.712 1.148 0.456C1.372 0.272 1.656 0.18 2 0.18ZM20.24 6H17.804V5.7C18.108 5.692 18.312 5.652 18.416 5.58C18.56 5.476 18.632 5.276 18.632 4.98V2.772C18.632 1.804 18.316 1.32 17.684 1.32C17.18 1.32 16.668 1.58 16.148 2.1V5.004C16.148 5.284 16.22 5.472 16.364 5.568C16.468 5.64 16.668 5.684 16.964 5.7V6H14.516V5.7C14.812 5.684 15.024 5.636 15.152 5.556C15.272 5.484 15.332 5.316 15.332 5.052V2.652C15.332 1.764 14.992 1.32 14.312 1.32C13.896 1.32 13.408 1.58 12.848 2.1V5.004C12.848 5.284 12.916 5.472 13.052 5.568C13.164 5.64 13.372 5.684 13.676 5.7V6H11.216V5.7C11.52 5.692 11.724 5.648 11.828 5.568C11.964 5.472 12.032 5.276 12.032 4.98V2.292C12.032 2.004 11.948 1.804 11.78 1.692C11.652 1.612 11.436 1.564 11.132 1.548V1.248L12.68 0.768H12.848V1.728C13.544 1.088 14.18 0.768 14.756 0.768C15.42 0.768 15.864 1.108 16.088 1.788C16.456 1.452 16.756 1.216 16.988 1.08C17.34 0.872 17.704 0.768 18.08 0.768C18.992 0.768 19.448 1.332 19.448 2.46V4.98C19.448 5.276 19.516 5.476 19.652 5.58C19.756 5.652 19.952 5.692 20.24 5.7V6ZM25.955 5.556C25.787 5.964 25.471 6.168 25.007 6.168C24.727 6.168 24.519 6.096 24.383 5.952C24.287 5.848 24.207 5.668 24.143 5.412C23.679 5.708 23.343 5.9 23.135 5.988C22.839 6.108 22.511 6.168 22.151 6.168C21.727 6.168 21.375 6.056 21.095 5.832C20.815 5.608 20.675 5.324 20.675 4.98C20.675 4.412 21.075 3.936 21.875 3.552C22.395 3.312 23.151 3.092 24.143 2.892V2.172C24.143 1.444 23.803 1.08 23.123 1.08C22.827 1.08 22.607 1.136 22.463 1.248C22.319 1.352 22.191 1.536 22.079 1.8C21.935 2.152 21.723 2.328 21.443 2.328C21.259 2.328 21.115 2.272 21.011 2.16C20.915 2.048 20.867 1.928 20.867 1.8C20.867 1.552 21.067 1.324 21.467 1.116C21.899 0.884 22.423 0.768 23.039 0.768C24.319 0.768 24.959 1.18 24.959 2.004V5.076C24.959 5.468 25.083 5.664 25.331 5.664C25.491 5.664 25.623 5.588 25.727 5.436L25.955 5.556ZM24.143 5.052V3.168C23.471 3.304 22.907 3.512 22.451 3.792C21.915 4.12 21.647 4.488 21.647 4.896C21.647 5.16 21.739 5.368 21.923 5.52C22.083 5.656 22.287 5.724 22.535 5.724C22.991 5.724 23.527 5.5 24.143 5.052ZM31.148 5.04C30.852 5.376 30.592 5.616 30.368 5.76C29.944 6.032 29.452 6.168 28.892 6.168C28.044 6.168 27.408 5.872 26.984 5.28C26.648 4.824 26.48 4.276 26.48 3.636C26.48 2.86 26.716 2.188 27.188 1.62C27.652 1.052 28.22 0.768 28.892 0.768C29.58 0.768 30.136 1.06 30.56 1.644C30.832 2.028 30.996 2.544 31.052 3.192H27.452V3.708C27.452 4.14 27.564 4.544 27.788 4.92C28.1 5.44 28.56 5.7 29.168 5.7C29.728 5.7 30.308 5.42 30.908 4.86L31.148 5.04ZM30.056 2.808C30.04 1.656 29.648 1.08 28.88 1.08C28.544 1.08 28.252 1.208 28.004 1.464C27.7 1.776 27.532 2.224 27.5 2.808H30.056ZM36.2959 4.932C35.6959 5.756 34.9559 6.168 34.0759 6.168C33.2279 6.168 32.5879 5.88 32.1559 5.304C31.8039 4.84 31.6279 4.288 31.6279 3.648C31.6279 2.864 31.8759 2.196 32.3719 1.644C32.8999 1.06 33.5639 0.768 34.3639 0.768C34.8279 0.768 35.2519 0.868 35.6359 1.068C36.0119 1.26 36.1999 1.496 36.1999 1.776C36.1999 2.104 36.0159 2.268 35.6479 2.268C35.3359 2.268 35.1239 2.084 35.0119 1.716C34.8839 1.292 34.6199 1.08 34.2199 1.08C33.6599 1.08 33.2359 1.344 32.9479 1.872C32.7159 2.296 32.5999 2.792 32.5999 3.36C32.5999 3.936 32.7039 4.424 32.9119 4.824C33.2079 5.408 33.6839 5.7 34.3399 5.7C34.8839 5.7 35.4679 5.388 36.0919 4.764L36.2959 4.932ZM41.3958 5.04C41.0998 5.376 40.8398 5.616 40.6158 5.76C40.1918 6.032 39.6998 6.168 39.1398 6.168C38.2918 6.168 37.6558 5.872 37.2318 5.28C36.8958 4.824 36.7278 4.276 36.7278 3.636C36.7278 2.86 36.9638 2.188 37.4358 1.62C37.8998 1.052 38.4678 0.768 39.1398 0.768C39.8278 0.768 40.3838 1.06 40.8078 1.644C41.0798 2.028 41.2438 2.544 41.2998 3.192H37.6998V3.708C37.6998 4.14 37.8118 4.544 38.0358 4.92C38.3478 5.44 38.8078 5.7 39.4158 5.7C39.9758 5.7 40.5558 5.42 41.1558 4.86L41.3958 5.04ZM40.3038 2.808C40.2878 1.656 39.8958 1.08 39.1278 1.08C38.7918 1.08 38.4998 1.208 38.2518 1.464C37.9478 1.776 37.7798 2.224 37.7478 2.808H40.3038ZM47.7077 6H45.2717V5.7C45.5757 5.684 45.7797 5.64 45.8837 5.568C46.0197 5.48 46.0877 5.308 46.0877 5.052V2.652C46.0877 1.764 45.7517 1.32 45.0797 1.32C44.6077 1.32 44.0757 1.584 43.4837 2.112V5.052C43.4837 5.316 43.5677 5.496 43.7357 5.592C43.8557 5.656 44.0557 5.692 44.3357 5.7V6H41.8997V5.7C42.1797 5.684 42.3797 5.636 42.4997 5.556C42.6117 5.476 42.6677 5.308 42.6677 5.052V2.268C42.6677 1.812 42.3637 1.572 41.7557 1.548V1.248L43.3157 0.768H43.4837V1.752C44.2197 1.096 44.8717 0.768 45.4397 0.768C46.4157 0.768 46.9037 1.396 46.9037 2.652V4.956C46.9037 5.252 46.9677 5.452 47.0957 5.556C47.1997 5.636 47.4037 5.684 47.7077 5.7V6ZM53.4495 5.556C53.2815 5.964 52.9655 6.168 52.5015 6.168C52.2215 6.168 52.0135 6.096 51.8775 5.952C51.7815 5.848 51.7015 5.668 51.6375 5.412C51.1735 5.708 50.8375 5.9 50.6295 5.988C50.3335 6.108 50.0055 6.168 49.6455 6.168C49.2215 6.168 48.8695 6.056 48.5895 5.832C48.3095 5.608 48.1695 5.324 48.1695 4.98C48.1695 4.412 48.5695 3.936 49.3695 3.552C49.8895 3.312 50.6455 3.092 51.6375 2.892V2.172C51.6375 1.444 51.2975 1.08 50.6175 1.08C50.3215 1.08 50.1015 1.136 49.9575 1.248C49.8135 1.352 49.6855 1.536 49.5735 1.8C49.4295 2.152 49.2175 2.328 48.9375 2.328C48.7535 2.328 48.6095 2.272 48.5055 2.16C48.4095 2.048 48.3615 1.928 48.3615 1.8C48.3615 1.552 48.5615 1.324 48.9615 1.116C49.3935 0.884 49.9175 0.768 50.5335 0.768C51.8135 0.768 52.4535 1.18 52.4535 2.004V5.076C52.4535 5.468 52.5775 5.664 52.8255 5.664C52.9855 5.664 53.1175 5.588 53.2215 5.436L53.4495 5.556ZM51.6375 5.052V3.168C50.9655 3.304 50.4015 3.512 49.9455 3.792C49.4095 4.12 49.1415 4.488 49.1415 4.896C49.1415 5.16 49.2335 5.368 49.4175 5.52C49.5775 5.656 49.7815 5.724 50.0295 5.724C50.4855 5.724 51.0215 5.5 51.6375 5.052ZM58.4385 4.632C58.4385 5.064 58.2665 5.428 57.9225 5.724C57.5785 6.02 57.1505 6.168 56.6385 6.168C56.4225 6.168 56.1505 6.124 55.8225 6.036C55.5585 5.964 55.3905 5.928 55.3185 5.928C55.0705 5.928 54.8265 6.008 54.5865 6.168L53.8905 4.464L54.1905 4.356C54.5745 4.788 54.9025 5.104 55.1745 5.304C55.6705 5.68 56.1745 5.868 56.6865 5.868C56.9905 5.868 57.2585 5.776 57.4905 5.592C57.7225 5.408 57.8385 5.172 57.8385 4.884C57.8385 4.58 57.7025 4.356 57.4305 4.212C57.2545 4.116 56.7905 3.976 56.0385 3.792C55.4785 3.648 55.0625 3.492 54.7905 3.324C54.3345 3.044 54.1065 2.66 54.1065 2.172C54.1065 1.756 54.2625 1.416 54.5745 1.152C54.8785 0.896 55.2585 0.768 55.7145 0.768C55.8825 0.768 56.1065 0.808 56.3865 0.888C56.6585 0.96 56.8545 0.996 56.9745 0.996C57.2065 0.996 57.4145 0.92 57.5985 0.768L58.2705 2.34L57.9465 2.436C57.1785 1.532 56.4345 1.08 55.7145 1.08C55.4025 1.08 55.1465 1.16 54.9465 1.32C54.7545 1.48 54.6585 1.676 54.6585 1.908C54.6585 2.132 54.7665 2.316 54.9825 2.46C55.2385 2.644 55.7065 2.816 56.3865 2.976C57.0185 3.128 57.4745 3.292 57.7545 3.468C58.2105 3.748 58.4385 4.136 58.4385 4.632ZM15.704 16.632C15.704 17.064 15.532 17.428 15.188 17.724C14.844 18.02 14.416 18.168 13.904 18.168C13.688 18.168 13.416 18.124 13.088 18.036C12.824 17.964 12.656 17.928 12.584 17.928C12.336 17.928 12.092 18.008 11.852 18.168L11.156 16.464L11.456 16.356C11.84 16.788 12.168 17.104 12.44 17.304C12.936 17.68 13.44 17.868 13.952 17.868C14.256 17.868 14.524 17.776 14.756 17.592C14.988 17.408 15.104 17.172 15.104 16.884C15.104 16.58 14.968 16.356 14.696 16.212C14.52 16.116 14.056 15.976 13.304 15.792C12.744 15.648 12.328 15.492 12.056 15.324C11.6 15.044 11.372 14.66 11.372 14.172C11.372 13.756 11.528 13.416 11.84 13.152C12.144 12.896 12.524 12.768 12.98 12.768C13.148 12.768 13.372 12.808 13.652 12.888C13.924 12.96 14.12 12.996 14.24 12.996C14.472 12.996 14.68 12.92 14.864 12.768L15.536 14.34L15.212 14.436C14.444 13.532 13.7 13.08 12.98 13.08C12.668 13.08 12.412 13.16 12.212 13.32C12.02 13.48 11.924 13.676 11.924 13.908C11.924 14.132 12.032 14.316 12.248 14.46C12.504 14.644 12.972 14.816 13.652 14.976C14.284 15.128 14.74 15.292 15.02 15.468C15.476 15.748 15.704 16.136 15.704 16.632ZM21.0319 17.04C20.7359 17.376 20.4759 17.616 20.2519 17.76C19.8279 18.032 19.3359 18.168 18.7759 18.168C17.9279 18.168 17.2919 17.872 16.8679 17.28C16.5319 16.824 16.3639 16.276 16.3639 15.636C16.3639 14.86 16.5999 14.188 17.0719 13.62C17.5359 13.052 18.1039 12.768 18.7759 12.768C19.4639 12.768 20.0199 13.06 20.4439 13.644C20.7159 14.028 20.8799 14.544 20.9359 15.192H17.3359V15.708C17.3359 16.14 17.4479 16.544 17.6719 16.92C17.9839 17.44 18.4439 17.7 19.0519 17.7C19.6119 17.7 20.1919 17.42 20.7919 16.86L21.0319 17.04ZM19.9399 14.808C19.9239 13.656 19.5319 13.08 18.7639 13.08C18.4279 13.08 18.1359 13.208 17.8879 13.464C17.5839 13.776 17.4159 14.224 17.3839 14.808H19.9399ZM27.3678 18H26.7918C26.5918 18 26.2998 18.024 25.9158 18.072H25.7598V17.448C25.4238 17.712 25.1758 17.884 25.0158 17.964C24.7358 18.1 24.4238 18.168 24.0798 18.168C23.3918 18.168 22.8238 17.932 22.3758 17.46C21.9038 16.964 21.6678 16.304 21.6678 15.48C21.6678 14.568 21.9638 13.86 22.5558 13.356C23.0118 12.964 23.5158 12.768 24.0678 12.768C24.6758 12.768 25.2398 13 25.7598 13.464V11.436C25.7598 11.028 25.3998 10.824 24.6798 10.824V10.5L26.4078 10.044H26.5758V17.088C26.5758 17.336 26.6558 17.504 26.8158 17.592C26.9198 17.656 27.1038 17.692 27.3678 17.7V18ZM25.7598 17.1V13.8C25.2158 13.416 24.7318 13.224 24.3078 13.224C23.6198 13.224 23.1398 13.56 22.8678 14.232C22.7158 14.608 22.6398 15.052 22.6398 15.564C22.6398 16.188 22.7918 16.7 23.0958 17.1C23.3918 17.5 23.7798 17.7 24.2598 17.7C24.7398 17.7 25.2398 17.5 25.7598 17.1ZM17.12 30H16.544C16.344 30 16.052 30.024 15.668 30.072H15.512V29.448C15.176 29.712 14.928 29.884 14.768 29.964C14.488 30.1 14.176 30.168 13.832 30.168C13.144 30.168 12.576 29.932 12.128 29.46C11.656 28.964 11.42 28.304 11.42 27.48C11.42 26.568 11.716 25.86 12.308 25.356C12.764 24.964 13.268 24.768 13.82 24.768C14.428 24.768 14.992 25 15.512 25.464V23.436C15.512 23.028 15.152 22.824 14.432 22.824V22.5L16.16 22.044H16.328V29.088C16.328 29.336 16.408 29.504 16.568 29.592C16.672 29.656 16.856 29.692 17.12 29.7V30ZM15.512 29.1V25.8C14.968 25.416 14.484 25.224 14.06 25.224C13.372 25.224 12.892 25.56 12.62 26.232C12.468 26.608 12.392 27.052 12.392 27.564C12.392 28.188 12.544 28.7 12.848 29.1C13.144 29.5 13.532 29.7 14.012 29.7C14.492 29.7 14.992 29.5 15.512 29.1ZM19.5738 22.608C19.5738 22.768 19.5138 22.9 19.3938 23.004C19.2738 23.108 19.1258 23.16 18.9498 23.16C18.7738 23.16 18.6258 23.104 18.5058 22.992C18.3858 22.888 18.3258 22.76 18.3258 22.608C18.3258 22.416 18.4098 22.268 18.5778 22.164C18.7058 22.084 18.8418 22.044 18.9858 22.044C19.1298 22.044 19.2658 22.096 19.3938 22.2C19.5138 22.304 19.5738 22.44 19.5738 22.608ZM20.2578 30H17.8098V29.7C18.1218 29.692 18.3338 29.64 18.4458 29.544C18.5578 29.456 18.6138 29.24 18.6138 28.896V26.148C18.6138 25.772 18.3138 25.572 17.7138 25.548V25.248L19.2618 24.768H19.4298V29.16C19.4298 29.496 19.7058 29.676 20.2578 29.7V30ZM26.075 29.556C25.907 29.964 25.591 30.168 25.127 30.168C24.847 30.168 24.639 30.096 24.503 29.952C24.407 29.848 24.327 29.668 24.263 29.412C23.799 29.708 23.463 29.9 23.255 29.988C22.959 30.108 22.631 30.168 22.271 30.168C21.847 30.168 21.495 30.056 21.215 29.832C20.935 29.608 20.795 29.324 20.795 28.98C20.795 28.412 21.195 27.936 21.995 27.552C22.515 27.312 23.271 27.092 24.263 26.892V26.172C24.263 25.444 23.923 25.08 23.243 25.08C22.947 25.08 22.727 25.136 22.583 25.248C22.439 25.352 22.311 25.536 22.199 25.8C22.055 26.152 21.843 26.328 21.563 26.328C21.379 26.328 21.235 26.272 21.131 26.16C21.035 26.048 20.987 25.928 20.987 25.8C20.987 25.552 21.187 25.324 21.587 25.116C22.019 24.884 22.543 24.768 23.159 24.768C24.439 24.768 25.079 25.18 25.079 26.004V29.076C25.079 29.468 25.203 29.664 25.451 29.664C25.611 29.664 25.743 29.588 25.847 29.436L26.075 29.556ZM24.263 29.052V27.168C23.591 27.304 23.027 27.512 22.571 27.792C22.035 28.12 21.767 28.488 21.767 28.896C21.767 29.16 21.859 29.368 22.043 29.52C22.203 29.656 22.407 29.724 22.655 29.724C23.111 29.724 23.647 29.5 24.263 29.052ZM35.6 30H33.164V29.7C33.468 29.692 33.672 29.652 33.776 29.58C33.92 29.476 33.992 29.276 33.992 28.98V26.772C33.992 25.804 33.676 25.32 33.044 25.32C32.54 25.32 32.028 25.58 31.508 26.1V29.004C31.508 29.284 31.58 29.472 31.724 29.568C31.828 29.64 32.028 29.684 32.324 29.7V30H29.876V29.7C30.172 29.684 30.384 29.636 30.512 29.556C30.632 29.484 30.692 29.316 30.692 29.052V26.652C30.692 25.764 30.352 25.32 29.672 25.32C29.256 25.32 28.768 25.58 28.208 26.1V29.004C28.208 29.284 28.276 29.472 28.412 29.568C28.524 29.64 28.732 29.684 29.036 29.7V30H26.576V29.7C26.88 29.692 27.084 29.648 27.188 29.568C27.324 29.472 27.392 29.276 27.392 28.98V26.292C27.392 26.004 27.308 25.804 27.14 25.692C27.012 25.612 26.796 25.564 26.492 25.548V25.248L28.04 24.768H28.208V25.728C28.904 25.088 29.54 24.768 30.116 24.768C30.78 24.768 31.224 25.108 31.448 25.788C31.816 25.452 32.116 25.216 32.348 25.08C32.7 24.872 33.064 24.768 33.44 24.768C34.352 24.768 34.808 25.332 34.808 26.46V28.98C34.808 29.276 34.876 29.476 35.012 29.58C35.116 29.652 35.312 29.692 35.6 29.7V30ZM42.083 25.224C42.083 25.52 41.927 25.668 41.615 25.668C41.479 25.668 41.323 25.612 41.147 25.5C41.059 25.412 40.963 25.368 40.859 25.368C40.763 25.368 40.651 25.416 40.523 25.512C40.827 25.84 40.979 26.2 40.979 26.592C40.979 27.096 40.771 27.532 40.355 27.9C39.947 28.26 39.423 28.44 38.783 28.44C38.559 28.44 38.259 28.392 37.883 28.296C37.579 28.48 37.427 28.62 37.427 28.716C37.427 28.876 37.847 29.016 38.687 29.136C39.767 29.288 40.519 29.488 40.943 29.736C41.319 29.952 41.507 30.252 41.507 30.636C41.507 31.188 41.135 31.572 40.391 31.788C39.951 31.916 39.427 31.98 38.819 31.98C37.931 31.98 37.239 31.88 36.743 31.68C36.255 31.488 36.011 31.22 36.011 30.876C36.011 30.58 36.203 30.336 36.587 30.144C36.827 30.016 37.259 29.872 37.883 29.712V29.688C37.595 29.6 37.259 29.5 36.875 29.388C36.667 29.252 36.563 29.116 36.563 28.98C36.563 28.828 36.659 28.684 36.851 28.548C36.987 28.452 37.239 28.324 37.607 28.164C36.903 27.748 36.551 27.228 36.551 26.604C36.551 26.132 36.747 25.716 37.139 25.356C37.563 24.964 38.103 24.768 38.759 24.768C39.343 24.768 39.871 24.948 40.343 25.308C40.743 24.948 41.115 24.768 41.459 24.768C41.875 24.768 42.083 24.92 42.083 25.224ZM40.007 26.58C40.007 26.116 39.891 25.748 39.659 25.476C39.435 25.212 39.143 25.08 38.783 25.08C38.423 25.08 38.123 25.216 37.883 25.488C37.643 25.76 37.523 26.132 37.523 26.604C37.523 27.068 37.643 27.44 37.883 27.72C38.115 28 38.407 28.14 38.759 28.14C39.071 28.14 39.335 28.04 39.551 27.84C39.855 27.576 40.007 27.156 40.007 26.58ZM40.787 30.864C40.787 30.592 40.587 30.38 40.187 30.228C39.939 30.132 39.363 30 38.459 29.832C37.411 30.096 36.887 30.448 36.887 30.888C36.887 31.416 37.531 31.68 38.819 31.68C40.131 31.68 40.787 31.408 40.787 30.864ZM46.5168 25.308C46.5168 25.636 46.3248 25.8 45.9408 25.8C45.8208 25.8 45.6688 25.756 45.4848 25.668C45.3008 25.588 45.1728 25.548 45.1008 25.548C44.8928 25.548 44.6528 25.696 44.3808 25.992C44.1328 26.256 44.0088 26.444 44.0088 26.556V28.932C44.0088 29.268 44.0848 29.484 44.2368 29.58C44.3488 29.652 44.6088 29.692 45.0168 29.7V30H42.3288V29.7C42.6408 29.692 42.8528 29.656 42.9648 29.592C43.1168 29.504 43.1928 29.324 43.1928 29.052V26.232C43.1928 25.792 42.9048 25.56 42.3288 25.536V25.248L43.8408 24.768H44.0088V26.04H44.0328C44.6808 25.192 45.2928 24.768 45.8688 24.768C46.3008 24.768 46.5168 24.948 46.5168 25.308ZM52.1956 29.556C52.0276 29.964 51.7116 30.168 51.2476 30.168C50.9676 30.168 50.7596 30.096 50.6236 29.952C50.5276 29.848 50.4476 29.668 50.3836 29.412C49.9196 29.708 49.5836 29.9 49.3756 29.988C49.0796 30.108 48.7516 30.168 48.3916 30.168C47.9676 30.168 47.6156 30.056 47.3356 29.832C47.0556 29.608 46.9156 29.324 46.9156 28.98C46.9156 28.412 47.3156 27.936 48.1156 27.552C48.6356 27.312 49.3916 27.092 50.3836 26.892V26.172C50.3836 25.444 50.0436 25.08 49.3636 25.08C49.0676 25.08 48.8476 25.136 48.7036 25.248C48.5596 25.352 48.4316 25.536 48.3196 25.8C48.1756 26.152 47.9636 26.328 47.6836 26.328C47.4996 26.328 47.3556 26.272 47.2516 26.16C47.1556 26.048 47.1076 25.928 47.1076 25.8C47.1076 25.552 47.3076 25.324 47.7076 25.116C48.1396 24.884 48.6636 24.768 49.2796 24.768C50.5596 24.768 51.1996 25.18 51.1996 26.004V29.076C51.1996 29.468 51.3236 29.664 51.5716 29.664C51.7316 29.664 51.8636 29.588 51.9676 29.436L52.1956 29.556ZM50.3836 29.052V27.168C49.7116 27.304 49.1476 27.512 48.6916 27.792C48.1556 28.12 47.8876 28.488 47.8876 28.896C47.8876 29.16 47.9796 29.368 48.1636 29.52C48.3236 29.656 48.5276 29.724 48.7756 29.724C49.2316 29.724 49.7676 29.5 50.3836 29.052ZM58.5886 25.248C58.0606 25.28 57.7086 25.5 57.5326 25.908L55.7206 30.168H55.3966L53.5966 25.8C53.4446 25.432 53.1206 25.248 52.6246 25.248V24.948H55.1686V25.248C54.6646 25.264 54.4126 25.372 54.4126 25.572C54.4126 25.66 54.4326 25.752 54.4726 25.848L55.7926 29.04L57.0046 26.172C57.0846 25.98 57.1246 25.812 57.1246 25.668C57.1246 25.412 56.8366 25.272 56.2606 25.248V24.948H58.5886V25.248ZM61.0544 22.608C61.0544 22.768 60.9944 22.9 60.8744 23.004C60.7544 23.108 60.6064 23.16 60.4304 23.16C60.2544 23.16 60.1064 23.104 59.9864 22.992C59.8664 22.888 59.8064 22.76 59.8064 22.608C59.8064 22.416 59.8904 22.268 60.0584 22.164C60.1864 22.084 60.3224 22.044 60.4664 22.044C60.6104 22.044 60.7464 22.096 60.8744 22.2C60.9944 22.304 61.0544 22.44 61.0544 22.608ZM61.7384 30H59.2904V29.7C59.6024 29.692 59.8144 29.64 59.9264 29.544C60.0384 29.456 60.0944 29.24 60.0944 28.896V26.148C60.0944 25.772 59.7944 25.572 59.1944 25.548V25.248L60.7424 24.768H60.9104V29.16C60.9104 29.496 61.1864 29.676 61.7384 29.7V30ZM68.2156 30H67.6396C67.4396 30 67.1476 30.024 66.7636 30.072H66.6076V29.448C66.2716 29.712 66.0236 29.884 65.8636 29.964C65.5836 30.1 65.2716 30.168 64.9276 30.168C64.2396 30.168 63.6716 29.932 63.2236 29.46C62.7516 28.964 62.5156 28.304 62.5156 27.48C62.5156 26.568 62.8116 25.86 63.4036 25.356C63.8596 24.964 64.3636 24.768 64.9156 24.768C65.5236 24.768 66.0876 25 66.6076 25.464V23.436C66.6076 23.028 66.2476 22.824 65.5276 22.824V22.5L67.2556 22.044H67.4236V29.088C67.4236 29.336 67.5036 29.504 67.6636 29.592C67.7676 29.656 67.9516 29.692 68.2156 29.7V30ZM66.6076 29.1V25.8C66.0636 25.416 65.5796 25.224 65.1556 25.224C64.4676 25.224 63.9876 25.56 63.7156 26.232C63.5636 26.608 63.4876 27.052 63.4876 27.564C63.4876 28.188 63.6396 28.7 63.9436 29.1C64.2396 29.5 64.6276 29.7 65.1076 29.7C65.5876 29.7 66.0876 29.5 66.6076 29.1ZM73.9334 29.556C73.7654 29.964 73.4494 30.168 72.9854 30.168C72.7054 30.168 72.4974 30.096 72.3614 29.952C72.2654 29.848 72.1854 29.668 72.1214 29.412C71.6574 29.708 71.3214 29.9 71.1134 29.988C70.8174 30.108 70.4894 30.168 70.1294 30.168C69.7054 30.168 69.3534 30.056 69.0734 29.832C68.7934 29.608 68.6534 29.324 68.6534 28.98C68.6534 28.412 69.0534 27.936 69.8534 27.552C70.3734 27.312 71.1294 27.092 72.1214 26.892V26.172C72.1214 25.444 71.7814 25.08 71.1014 25.08C70.8054 25.08 70.5854 25.136 70.4414 25.248C70.2974 25.352 70.1694 25.536 70.0574 25.8C69.9134 26.152 69.7014 26.328 69.4214 26.328C69.2374 26.328 69.0934 26.272 68.9894 26.16C68.8934 26.048 68.8454 25.928 68.8454 25.8C68.8454 25.552 69.0454 25.324 69.4454 25.116C69.8774 24.884 70.4014 24.768 71.0174 24.768C72.2974 24.768 72.9374 25.18 72.9374 26.004V29.076C72.9374 29.468 73.0614 29.664 73.3094 29.664C73.4694 29.664 73.6014 29.588 73.7054 29.436L73.9334 29.556ZM72.1214 29.052V27.168C71.4494 27.304 70.8854 27.512 70.4294 27.792C69.8934 28.12 69.6254 28.488 69.6254 28.896C69.6254 29.16 69.7174 29.368 69.9014 29.52C70.0614 29.656 70.2654 29.724 70.5134 29.724C70.9694 29.724 71.5054 29.5 72.1214 29.052ZM76.1384 29.568C76.1384 29.736 76.0704 29.88 75.9344 30C75.8064 30.112 75.6464 30.168 75.4544 30.168C75.2704 30.168 75.1144 30.108 74.9864 29.988C74.8584 29.876 74.7944 29.736 74.7944 29.568C74.7944 29.4 74.8584 29.256 74.9864 29.136C75.1144 29.024 75.2704 28.968 75.4544 28.968C75.6464 28.968 75.8104 29.028 75.9464 29.148C76.0744 29.268 76.1384 29.408 76.1384 29.568Z" fill="#FF33BA"/>
</svg>
