<svg width="103" height="9" viewBox="0 0 103 9" fill="none" xmlns="http://www.w3.org/2000/svg">
<path d="M2 2.18C2.312 2.18 2.592 2.304 2.84 2.552C3.056 2.776 3.164 3.06 3.164 3.404C3.164 3.716 3.056 3.996 2.84 4.244C2.592 4.492 2.312 4.616 2 4.616C1.624 4.616 1.328 4.492 1.112 4.244C0.888 3.996 0.776 3.716 0.776 3.404C0.776 3.028 0.9 2.712 1.148 2.456C1.372 2.272 1.656 2.18 2 2.18ZM21.2358 3.248C20.7078 3.28 20.3558 3.5 20.1798 3.908L18.3678 8.168H18.0438L16.2438 3.8C16.0918 3.432 15.7678 3.248 15.2718 3.248V2.948H17.8158V3.248C17.3118 3.264 17.0598 3.372 17.0598 3.572C17.0598 3.66 17.0798 3.752 17.1198 3.848L18.4398 7.04L19.6518 4.172C19.7318 3.98 19.7718 3.812 19.7718 3.668C19.7718 3.412 19.4838 3.272 18.9078 3.248V2.948H21.2358V3.248ZM23.7016 0.607999C23.7016 0.768 23.6416 0.9 23.5216 1.004C23.4016 1.108 23.2536 1.16 23.0776 1.16C22.9016 1.16 22.7536 1.104 22.6336 0.991999C22.5136 0.888 22.4536 0.76 22.4536 0.607999C22.4536 0.415999 22.5376 0.267999 22.7056 0.163999C22.8336 0.0839994 22.9696 0.0439994 23.1136 0.0439994C23.2576 0.0439994 23.3936 0.0959995 23.5216 0.2C23.6416 0.304 23.7016 0.44 23.7016 0.607999ZM24.3856 8H21.9376V7.7C22.2496 7.692 22.4616 7.64 22.5736 7.544C22.6856 7.456 22.7416 7.24 22.7416 6.896V4.148C22.7416 3.772 22.4416 3.572 21.8416 3.548V3.248L23.3896 2.768H23.5576V7.16C23.5576 7.496 23.8336 7.676 24.3856 7.7V8ZM30.8508 3.248C30.3228 3.28 29.9708 3.5 29.7948 3.908L27.9828 8.168H27.6588L25.8588 3.8C25.7068 3.432 25.3828 3.248 24.8868 3.248V2.948H27.4308V3.248C26.9268 3.264 26.6748 3.372 26.6748 3.572C26.6748 3.66 26.6948 3.752 26.7348 3.848L28.0548 7.04L29.2668 4.172C29.3468 3.98 29.3868 3.812 29.3868 3.668C29.3868 3.412 29.0988 3.272 28.5228 3.248V2.948H30.8508V3.248ZM36.0286 7.04C35.7326 7.376 35.4726 7.616 35.2486 7.76C34.8246 8.032 34.3326 8.168 33.7726 8.168C32.9246 8.168 32.2886 7.872 31.8646 7.28C31.5286 6.824 31.3606 6.276 31.3606 5.636C31.3606 4.86 31.5966 4.188 32.0686 3.62C32.5326 3.052 33.1006 2.768 33.7726 2.768C34.4606 2.768 35.0166 3.06 35.4406 3.644C35.7126 4.028 35.8766 4.544 35.9326 5.192H32.3326V5.708C32.3326 6.14 32.4446 6.544 32.6686 6.92C32.9806 7.44 33.4406 7.7 34.0486 7.7C34.6086 7.7 35.1886 7.42 35.7886 6.86L36.0286 7.04ZM34.9366 4.808C34.9206 3.656 34.5286 3.08 33.7606 3.08C33.4246 3.08 33.1326 3.208 32.8846 3.464C32.5806 3.776 32.4126 4.224 32.3806 4.808H34.9366ZM40.5285 3.308C40.5285 3.636 40.3365 3.8 39.9525 3.8C39.8325 3.8 39.6805 3.756 39.4965 3.668C39.3125 3.588 39.1845 3.548 39.1125 3.548C38.9045 3.548 38.6645 3.696 38.3925 3.992C38.1445 4.256 38.0205 4.444 38.0205 4.556V6.932C38.0205 7.268 38.0965 7.484 38.2485 7.58C38.3605 7.652 38.6205 7.692 39.0285 7.7V8H36.3405V7.7C36.6525 7.692 36.8645 7.656 36.9765 7.592C37.1285 7.504 37.2045 7.324 37.2045 7.052V4.232C37.2045 3.792 36.9165 3.56 36.3405 3.536V3.248L37.8525 2.768H38.0205V4.04H38.0445C38.6925 3.192 39.3045 2.768 39.8805 2.768C40.3125 2.768 40.5285 2.948 40.5285 3.308ZM45.0313 3.308C45.0313 3.636 44.8393 3.8 44.4553 3.8C44.3353 3.8 44.1833 3.756 43.9993 3.668C43.8153 3.588 43.6873 3.548 43.6153 3.548C43.4073 3.548 43.1673 3.696 42.8953 3.992C42.6473 4.256 42.5233 4.444 42.5233 4.556V6.932C42.5233 7.268 42.5993 7.484 42.7513 7.58C42.8633 7.652 43.1233 7.692 43.5313 7.7V8H40.8433V7.7C41.1553 7.692 41.3673 7.656 41.4793 7.592C41.6313 7.504 41.7073 7.324 41.7073 7.052V4.232C41.7073 3.792 41.4193 3.56 40.8433 3.536V3.248L42.3553 2.768H42.5233V4.04H42.5473C43.1953 3.192 43.8073 2.768 44.3833 2.768C44.8153 2.768 45.0313 2.948 45.0313 3.308ZM50.7102 7.556C50.5422 7.964 50.2262 8.168 49.7622 8.168C49.4822 8.168 49.2742 8.096 49.1382 7.952C49.0422 7.848 48.9622 7.668 48.8982 7.412C48.4342 7.708 48.0982 7.9 47.8902 7.988C47.5942 8.108 47.2662 8.168 46.9062 8.168C46.4822 8.168 46.1302 8.056 45.8502 7.832C45.5702 7.608 45.4302 7.324 45.4302 6.98C45.4302 6.412 45.8302 5.936 46.6302 5.552C47.1502 5.312 47.9062 5.092 48.8982 4.892V4.172C48.8982 3.444 48.5582 3.08 47.8782 3.08C47.5822 3.08 47.3622 3.136 47.2182 3.248C47.0742 3.352 46.9462 3.536 46.8342 3.8C46.6902 4.152 46.4782 4.328 46.1982 4.328C46.0142 4.328 45.8702 4.272 45.7662 4.16C45.6702 4.048 45.6222 3.928 45.6222 3.8C45.6222 3.552 45.8222 3.324 46.2222 3.116C46.6542 2.884 47.1782 2.768 47.7942 2.768C49.0742 2.768 49.7142 3.18 49.7142 4.004V7.076C49.7142 7.468 49.8382 7.664 50.0862 7.664C50.2462 7.664 50.3782 7.588 50.4822 7.436L50.7102 7.556ZM48.8982 7.052V5.168C48.2262 5.304 47.6622 5.512 47.2062 5.792C46.6702 6.12 46.4022 6.488 46.4022 6.896C46.4022 7.16 46.4942 7.368 46.6782 7.52C46.8382 7.656 47.0422 7.724 47.2902 7.724C47.7462 7.724 48.2822 7.5 48.8982 7.052ZM64.363 8H61.927V7.7C62.231 7.692 62.435 7.652 62.539 7.58C62.683 7.476 62.755 7.276 62.755 6.98V4.772C62.755 3.804 62.439 3.32 61.807 3.32C61.303 3.32 60.791 3.58 60.271 4.1V7.004C60.271 7.284 60.343 7.472 60.487 7.568C60.591 7.64 60.791 7.684 61.087 7.7V8H58.639V7.7C58.935 7.684 59.147 7.636 59.275 7.556C59.395 7.484 59.455 7.316 59.455 7.052V4.652C59.455 3.764 59.115 3.32 58.435 3.32C58.019 3.32 57.531 3.58 56.971 4.1V7.004C56.971 7.284 57.039 7.472 57.175 7.568C57.287 7.64 57.495 7.684 57.799 7.7V8H55.339V7.7C55.643 7.692 55.847 7.648 55.951 7.568C56.087 7.472 56.155 7.276 56.155 6.98V4.292C56.155 4.004 56.071 3.804 55.903 3.692C55.775 3.612 55.559 3.564 55.255 3.548V3.248L56.803 2.768H56.971V3.728C57.667 3.088 58.303 2.768 58.879 2.768C59.543 2.768 59.987 3.108 60.211 3.788C60.579 3.452 60.879 3.216 61.111 3.08C61.463 2.872 61.827 2.768 62.203 2.768C63.115 2.768 63.571 3.332 63.571 4.46V6.98C63.571 7.276 63.639 7.476 63.775 7.58C63.879 7.652 64.075 7.692 64.363 7.7V8ZM70.078 7.556C69.91 7.964 69.594 8.168 69.13 8.168C68.85 8.168 68.642 8.096 68.506 7.952C68.41 7.848 68.33 7.668 68.266 7.412C67.802 7.708 67.466 7.9 67.258 7.988C66.962 8.108 66.634 8.168 66.274 8.168C65.85 8.168 65.498 8.056 65.218 7.832C64.938 7.608 64.798 7.324 64.798 6.98C64.798 6.412 65.198 5.936 65.998 5.552C66.518 5.312 67.274 5.092 68.266 4.892V4.172C68.266 3.444 67.926 3.08 67.246 3.08C66.95 3.08 66.73 3.136 66.586 3.248C66.442 3.352 66.314 3.536 66.202 3.8C66.058 4.152 65.846 4.328 65.566 4.328C65.382 4.328 65.238 4.272 65.134 4.16C65.038 4.048 64.99 3.928 64.99 3.8C64.99 3.552 65.19 3.324 65.59 3.116C66.022 2.884 66.546 2.768 67.162 2.768C68.442 2.768 69.082 3.18 69.082 4.004V7.076C69.082 7.468 69.206 7.664 69.454 7.664C69.614 7.664 69.746 7.588 69.85 7.436L70.078 7.556ZM68.266 7.052V5.168C67.594 5.304 67.03 5.512 66.574 5.792C66.038 6.12 65.77 6.488 65.77 6.896C65.77 7.16 65.862 7.368 66.046 7.52C66.206 7.656 66.41 7.724 66.658 7.724C67.114 7.724 67.65 7.5 68.266 7.052ZM75.271 7.04C74.975 7.376 74.715 7.616 74.491 7.76C74.067 8.032 73.575 8.168 73.015 8.168C72.167 8.168 71.531 7.872 71.107 7.28C70.771 6.824 70.603 6.276 70.603 5.636C70.603 4.86 70.839 4.188 71.311 3.62C71.775 3.052 72.343 2.768 73.015 2.768C73.703 2.768 74.259 3.06 74.683 3.644C74.955 4.028 75.119 4.544 75.175 5.192H71.575V5.708C71.575 6.14 71.687 6.544 71.911 6.92C72.223 7.44 72.683 7.7 73.291 7.7C73.851 7.7 74.431 7.42 75.031 6.86L75.271 7.04ZM74.179 4.808C74.163 3.656 73.771 3.08 73.003 3.08C72.667 3.08 72.375 3.208 72.127 3.464C71.823 3.776 71.655 4.224 71.623 4.808H74.179ZM80.4189 6.932C79.8189 7.756 79.0789 8.168 78.1989 8.168C77.3509 8.168 76.7109 7.88 76.2789 7.304C75.9269 6.84 75.7509 6.288 75.7509 5.648C75.7509 4.864 75.9989 4.196 76.4949 3.644C77.0229 3.06 77.6869 2.768 78.4869 2.768C78.9509 2.768 79.3749 2.868 79.7589 3.068C80.1349 3.26 80.3229 3.496 80.3229 3.776C80.3229 4.104 80.1389 4.268 79.7709 4.268C79.4589 4.268 79.2469 4.084 79.1349 3.716C79.0069 3.292 78.7429 3.08 78.3429 3.08C77.7829 3.08 77.3589 3.344 77.0709 3.872C76.8389 4.296 76.7229 4.792 76.7229 5.36C76.7229 5.936 76.8269 6.424 77.0349 6.824C77.3309 7.408 77.8069 7.7 78.4629 7.7C79.0069 7.7 79.5909 7.388 80.2149 6.764L80.4189 6.932ZM85.5188 7.04C85.2228 7.376 84.9628 7.616 84.7388 7.76C84.3148 8.032 83.8228 8.168 83.2628 8.168C82.4148 8.168 81.7788 7.872 81.3548 7.28C81.0188 6.824 80.8508 6.276 80.8508 5.636C80.8508 4.86 81.0868 4.188 81.5588 3.62C82.0228 3.052 82.5908 2.768 83.2628 2.768C83.9508 2.768 84.5068 3.06 84.9308 3.644C85.2028 4.028 85.3668 4.544 85.4228 5.192H81.8228V5.708C81.8228 6.14 81.9348 6.544 82.1588 6.92C82.4708 7.44 82.9308 7.7 83.5388 7.7C84.0988 7.7 84.6788 7.42 85.2788 6.86L85.5188 7.04ZM84.4268 4.808C84.4108 3.656 84.0188 3.08 83.2508 3.08C82.9148 3.08 82.6228 3.208 82.3748 3.464C82.0708 3.776 81.9028 4.224 81.8708 4.808H84.4268ZM91.8307 8H89.3947V7.7C89.6987 7.684 89.9027 7.64 90.0067 7.568C90.1427 7.48 90.2107 7.308 90.2107 7.052V4.652C90.2107 3.764 89.8747 3.32 89.2027 3.32C88.7307 3.32 88.1987 3.584 87.6067 4.112V7.052C87.6067 7.316 87.6907 7.496 87.8587 7.592C87.9787 7.656 88.1787 7.692 88.4587 7.7V8H86.0227V7.7C86.3027 7.684 86.5027 7.636 86.6227 7.556C86.7347 7.476 86.7907 7.308 86.7907 7.052V4.268C86.7907 3.812 86.4867 3.572 85.8787 3.548V3.248L87.4387 2.768H87.6067V3.752C88.3427 3.096 88.9947 2.768 89.5627 2.768C90.5387 2.768 91.0267 3.396 91.0267 4.652V6.956C91.0267 7.252 91.0907 7.452 91.2187 7.556C91.3227 7.636 91.5267 7.684 91.8307 7.7V8ZM97.5725 7.556C97.4045 7.964 97.0885 8.168 96.6245 8.168C96.3445 8.168 96.1365 8.096 96.0005 7.952C95.9045 7.848 95.8245 7.668 95.7605 7.412C95.2965 7.708 94.9605 7.9 94.7525 7.988C94.4565 8.108 94.1285 8.168 93.7685 8.168C93.3445 8.168 92.9925 8.056 92.7125 7.832C92.4325 7.608 92.2925 7.324 92.2925 6.98C92.2925 6.412 92.6925 5.936 93.4925 5.552C94.0125 5.312 94.7685 5.092 95.7605 4.892V4.172C95.7605 3.444 95.4205 3.08 94.7405 3.08C94.4445 3.08 94.2245 3.136 94.0805 3.248C93.9365 3.352 93.8085 3.536 93.6965 3.8C93.5525 4.152 93.3405 4.328 93.0605 4.328C92.8765 4.328 92.7325 4.272 92.6285 4.16C92.5325 4.048 92.4845 3.928 92.4845 3.8C92.4845 3.552 92.6845 3.324 93.0845 3.116C93.5165 2.884 94.0405 2.768 94.6565 2.768C95.9365 2.768 96.5765 3.18 96.5765 4.004V7.076C96.5765 7.468 96.7005 7.664 96.9485 7.664C97.1085 7.664 97.2405 7.588 97.3445 7.436L97.5725 7.556ZM95.7605 7.052V5.168C95.0885 5.304 94.5245 5.512 94.0685 5.792C93.5325 6.12 93.2645 6.488 93.2645 6.896C93.2645 7.16 93.3565 7.368 93.5405 7.52C93.7005 7.656 93.9045 7.724 94.1525 7.724C94.6085 7.724 95.1445 7.5 95.7605 7.052ZM102.561 6.632C102.561 7.064 102.389 7.428 102.045 7.724C101.701 8.02 101.273 8.168 100.761 8.168C100.545 8.168 100.273 8.124 99.9455 8.036C99.6815 7.964 99.5135 7.928 99.4415 7.928C99.1935 7.928 98.9495 8.008 98.7095 8.168L98.0135 6.464L98.3135 6.356C98.6975 6.788 99.0255 7.104 99.2975 7.304C99.7935 7.68 100.297 7.868 100.809 7.868C101.113 7.868 101.381 7.776 101.613 7.592C101.845 7.408 101.961 7.172 101.961 6.884C101.961 6.58 101.825 6.356 101.553 6.212C101.377 6.116 100.913 5.976 100.161 5.792C99.6015 5.648 99.1855 5.492 98.9135 5.324C98.4575 5.044 98.2295 4.66 98.2295 4.172C98.2295 3.756 98.3855 3.416 98.6975 3.152C99.0015 2.896 99.3815 2.768 99.8375 2.768C100.005 2.768 100.229 2.808 100.509 2.888C100.781 2.96 100.977 2.996 101.097 2.996C101.329 2.996 101.537 2.92 101.721 2.768L102.393 4.34L102.069 4.436C101.301 3.532 100.557 3.08 99.8375 3.08C99.5255 3.08 99.2695 3.16 99.0695 3.32C98.8775 3.48 98.7815 3.676 98.7815 3.908C98.7815 4.132 98.8895 4.316 99.1055 4.46C99.3615 4.644 99.8295 4.816 100.509 4.976C101.141 5.128 101.597 5.292 101.877 5.468C102.333 5.748 102.561 6.136 102.561 6.632Z" fill="#FF33BA"/>
</svg>
