<svg width="90" height="18" viewBox="0 0 90 18" fill="none" xmlns="http://www.w3.org/2000/svg">
<path d="M14.44 6.08C14.1333 6.09333 13.8867 6.15333 13.7 6.26C13.34 6.44667 13.0667 6.78 12.88 7.26L10.18 14.28H9.62L7.3 8.36H7.26L4.96 14.28H4.44L1.6 7.04C1.44 6.62667 1.22 6.35333 0.94 6.22C0.78 6.14 0.52 6.09333 0.16 6.08V5.58H4.18V6.08C3.35333 6.10667 2.94 6.28 2.94 6.6C2.94 6.76 2.98 6.92 3.06 7.08L5.06 12.3H5.1L6.98 7.48C6.7 6.89333 6.48 6.52667 6.32 6.38C6.12 6.19333 5.77333 6.09333 5.28 6.08V5.58H9.34V6.08C8.52667 6.10667 8.12 6.29333 8.12 6.64C8.12 6.77333 8.16 6.94 8.24 7.14L10.26 12.26H10.3L12.1 7.52C12.1933 7.28 12.24 7.07333 12.24 6.9C12.24 6.39333 11.7467 6.12 10.76 6.08V5.58H14.44V6.08ZM23.7303 9.86C23.7303 11.0867 23.317 12.1333 22.4903 13C21.6636 13.8533 20.6436 14.28 19.4303 14.28C18.217 14.28 17.1903 13.8133 16.3503 12.88C15.5636 12 15.1703 10.9733 15.1703 9.8C15.1703 8.62667 15.557 7.59333 16.3303 6.7C17.157 5.75333 18.177 5.28 19.3903 5.28C20.6436 5.28 21.6903 5.75333 22.5303 6.7C23.3303 7.59333 23.7303 8.64667 23.7303 9.86ZM22.1103 9.88C22.1103 8.73333 21.917 7.8 21.5303 7.08C21.0636 6.22667 20.3703 5.8 19.4503 5.8C18.5836 5.8 17.9236 6.16 17.4703 6.88C17.017 7.6 16.7903 8.56 16.7903 9.76C16.7903 10.92 16.9903 11.8533 17.3903 12.56C17.857 13.3733 18.5436 13.78 19.4503 13.78C20.3303 13.78 21.0036 13.4067 21.4703 12.66C21.897 11.98 22.1103 11.0533 22.1103 9.88ZM31.4853 6.18C31.4853 6.72667 31.1653 7 30.5253 7C30.3253 7 30.072 6.92667 29.7653 6.78C29.4586 6.64667 29.2453 6.58 29.1253 6.58C28.7786 6.58 28.3786 6.82667 27.9253 7.32C27.512 7.76 27.3053 8.07333 27.3053 8.26V12.22C27.3053 12.78 27.432 13.14 27.6853 13.3C27.872 13.42 28.3053 13.4867 28.9853 13.5V14H24.5053V13.5C25.0253 13.4867 25.3786 13.4267 25.5653 13.32C25.8186 13.1733 25.9453 12.8733 25.9453 12.42V7.72C25.9453 6.98667 25.4653 6.6 24.5053 6.56V6.08L27.0253 5.28H27.3053V7.4H27.3453C28.4253 5.98667 29.4453 5.28 30.4053 5.28C31.1253 5.28 31.4853 5.58 31.4853 6.18ZM42.07 14H37.73V13.5C38.5033 13.4733 38.89 13.3667 38.89 13.18C38.89 13.0067 38.81 12.8133 38.65 12.6L36.41 9.54L35.01 10.74V12.6C35.01 13.16 35.4433 13.46 36.31 13.5V14H32.31V13.5C32.79 13.4867 33.1167 13.42 33.29 13.3C33.53 13.14 33.65 12.82 33.65 12.34V3.1C33.65 2.46 33.1567 2.11333 32.17 2.06V1.56L34.73 0.739999H35.01V10.06L37.79 7.68C38.3233 7.22667 38.59 6.86 38.59 6.58C38.59 6.27333 38.2033 6.10667 37.43 6.08V5.58H41.61V6.08C41.0367 6.10667 40.5167 6.26667 40.05 6.56C39.6633 6.81333 38.79 7.52 37.43 8.68L40.21 12.54C40.5167 12.9667 40.8433 13.2467 41.19 13.38C41.39 13.46 41.6833 13.5 42.07 13.5V14ZM60.6194 4.42C60.6194 5.62 60.0594 6.55333 58.9394 7.22C58.1527 7.68667 56.9594 7.92 55.3594 7.92H53.2194V12.16C53.2194 12.7733 53.4394 13.1667 53.8794 13.34C54.1327 13.4467 54.646 13.5 55.4194 13.5V14H49.5594V13.5C50.1727 13.5 50.5994 13.4467 50.8394 13.34C51.2527 13.14 51.4594 12.7467 51.4594 12.16V2.86C51.4594 2.27333 51.2794 1.88667 50.9194 1.7C50.6927 1.59333 50.2394 1.53333 49.5594 1.52V1.02H55.3394C56.8327 1.02 57.9994 1.24667 58.8394 1.7C60.026 2.34 60.6194 3.24667 60.6194 4.42ZM58.5394 4.4C58.5394 3.30667 58.2394 2.54 57.6394 2.1C57.1327 1.71333 56.326 1.52 55.2194 1.52C54.4727 1.52 53.9527 1.61333 53.6594 1.8C53.366 1.98667 53.2194 2.36 53.2194 2.92V7.42H55.1594C56.4127 7.42 57.306 7.15333 57.8394 6.62C58.306 6.14 58.5394 5.4 58.5394 4.4ZM70.1242 13.26C69.8442 13.94 69.3176 14.28 68.5442 14.28C68.0776 14.28 67.7309 14.16 67.5042 13.92C67.3442 13.7467 67.2109 13.4467 67.1042 13.02C66.3309 13.5133 65.7709 13.8333 65.4242 13.98C64.9309 14.18 64.3842 14.28 63.7842 14.28C63.0776 14.28 62.4909 14.0933 62.0242 13.72C61.5576 13.3467 61.3242 12.8733 61.3242 12.3C61.3242 11.3533 61.9909 10.56 63.3242 9.92C64.1909 9.52 65.4509 9.15333 67.1042 8.82V7.62C67.1042 6.40667 66.5376 5.8 65.4042 5.8C64.9109 5.8 64.5442 5.89333 64.3042 6.08C64.0642 6.25333 63.8509 6.56 63.6642 7C63.4242 7.58667 63.0709 7.88 62.6042 7.88C62.2976 7.88 62.0576 7.78667 61.8842 7.6C61.7242 7.41333 61.6442 7.21333 61.6442 7C61.6442 6.58667 61.9776 6.20667 62.6442 5.86C63.3642 5.47333 64.2376 5.28 65.2642 5.28C67.3976 5.28 68.4642 5.96667 68.4642 7.34V12.46C68.4642 13.1133 68.6709 13.44 69.0842 13.44C69.3509 13.44 69.5709 13.3133 69.7442 13.06L70.1242 13.26ZM67.1042 12.42V9.28C65.9842 9.50667 65.0442 9.85333 64.2842 10.32C63.3909 10.8667 62.9442 11.48 62.9442 12.16C62.9442 12.6 63.0976 12.9467 63.4042 13.2C63.6709 13.4267 64.0109 13.54 64.4242 13.54C65.1842 13.54 66.0776 13.1667 67.1042 12.42ZM80.9792 6.04C80.9792 6.53333 80.7192 6.78 80.1992 6.78C79.9726 6.78 79.7126 6.68667 79.4192 6.5C79.2726 6.35333 79.1126 6.28 78.9392 6.28C78.7792 6.28 78.5926 6.36 78.3792 6.52C78.8859 7.06667 79.1392 7.66667 79.1392 8.32C79.1392 9.16 78.7926 9.88667 78.0992 10.5C77.4192 11.1 76.5459 11.4 75.4792 11.4C75.1059 11.4 74.6059 11.32 73.9792 11.16C73.4726 11.4667 73.2192 11.7 73.2192 11.86C73.2192 12.1267 73.9192 12.36 75.3192 12.56C77.1192 12.8133 78.3726 13.1467 79.0792 13.56C79.7059 13.92 80.0192 14.42 80.0192 15.06C80.0192 15.98 79.3992 16.62 78.1592 16.98C77.4259 17.1933 76.5526 17.3 75.5392 17.3C74.0592 17.3 72.9059 17.1333 72.0792 16.8C71.2659 16.48 70.8592 16.0333 70.8592 15.46C70.8592 14.9667 71.1792 14.56 71.8192 14.24C72.2192 14.0267 72.9392 13.7867 73.9792 13.52V13.48C73.4992 13.3333 72.9392 13.1667 72.2992 12.98C71.9526 12.7533 71.7792 12.5267 71.7792 12.3C71.7792 12.0467 71.9392 11.8067 72.2592 11.58C72.4859 11.42 72.9059 11.2067 73.5192 10.94C72.3459 10.2467 71.7592 9.38 71.7592 8.34C71.7592 7.55333 72.0859 6.86 72.7392 6.26C73.4459 5.60667 74.3459 5.28 75.4392 5.28C76.4126 5.28 77.2926 5.58 78.0792 6.18C78.7459 5.58 79.3659 5.28 79.9392 5.28C80.6326 5.28 80.9792 5.53333 80.9792 6.04ZM77.5192 8.3C77.5192 7.52667 77.3259 6.91333 76.9392 6.46C76.5659 6.02 76.0792 5.8 75.4792 5.8C74.8792 5.8 74.3792 6.02667 73.9792 6.48C73.5792 6.93333 73.3792 7.55333 73.3792 8.34C73.3792 9.11333 73.5792 9.73333 73.9792 10.2C74.3659 10.6667 74.8526 10.9 75.4392 10.9C75.9592 10.9 76.3992 10.7333 76.7592 10.4C77.2659 9.96 77.5192 9.26 77.5192 8.3ZM78.8192 15.44C78.8192 14.9867 78.4859 14.6333 77.8192 14.38C77.4059 14.22 76.4459 14 74.9392 13.72C73.1926 14.16 72.3192 14.7467 72.3192 15.48C72.3192 16.36 73.3926 16.8 75.5392 16.8C77.7259 16.8 78.8192 16.3467 78.8192 15.44ZM89.4089 12.4C88.9156 12.96 88.4822 13.36 88.1089 13.6C87.4022 14.0533 86.5822 14.28 85.6489 14.28C84.2356 14.28 83.1756 13.7867 82.4689 12.8C81.9089 12.04 81.6289 11.1267 81.6289 10.06C81.6289 8.76667 82.0222 7.64667 82.8089 6.7C83.5822 5.75333 84.5289 5.28 85.6489 5.28C86.7956 5.28 87.7222 5.76667 88.4289 6.74C88.8822 7.38 89.1556 8.24 89.2489 9.32H83.2489V10.18C83.2489 10.9 83.4356 11.5733 83.8089 12.2C84.3289 13.0667 85.0956 13.5 86.1089 13.5C87.0422 13.5 88.0089 13.0333 89.0089 12.1L89.4089 12.4ZM87.5889 8.68C87.5622 6.76 86.9089 5.8 85.6289 5.8C85.0689 5.8 84.5822 6.01333 84.1689 6.44C83.6622 6.96 83.3822 7.70667 83.3289 8.68H87.5889Z" fill="#FF33BA"/>
</svg>
