<svg width="505" height="12" viewBox="0 0 505 12" fill="none" xmlns="http://www.w3.org/2000/svg">
<path d="M2.532 10.72C1.892 10.72 1.36 10.432 0.936 9.856C0.512 9.272 0.3 8.528 0.3 7.624C0.3 7.12 0.364 6.616 0.492 6.112C0.748 5.136 1.372 4.144 2.364 3.136C3.468 2.008 4.664 1.276 5.952 0.939999C5.984 0.931999 6.012 0.927999 6.036 0.927999C6.068 0.92 6.092 0.916 6.108 0.916C6.188 0.916 6.228 0.94 6.228 0.987999C6.228 1.076 6.136 1.144 5.952 1.192C4.744 1.512 3.684 2.232 2.772 3.352C2.436 3.768 2.144 4.196 1.896 4.636C1.656 5.076 1.46 5.532 1.308 6.004C1.092 6.66 0.984 7.316 0.984 7.972C0.984 8.708 1.12 9.296 1.392 9.736C1.696 10.216 2.108 10.456 2.628 10.456C2.668 10.456 2.704 10.456 2.736 10.456C2.776 10.456 2.812 10.452 2.844 10.444H2.916C3.02 10.444 3.072 10.472 3.072 10.528C3.072 10.624 2.968 10.684 2.76 10.708C2.728 10.716 2.692 10.72 2.652 10.72C2.612 10.72 2.572 10.72 2.532 10.72ZM14.2422 10H12.2142L9.91022 6.184H9.03422V9.028C9.03422 9.316 9.16222 9.508 9.41822 9.604C9.54622 9.66 9.77022 9.692 10.0902 9.7V10H6.93422V9.7C7.63022 9.676 7.97822 9.432 7.97822 8.968V3.316C7.97822 2.964 7.87022 2.732 7.65422 2.62C7.52622 2.556 7.28622 2.52 6.93422 2.512V2.212H10.5582C11.2302 2.212 11.8142 2.332 12.3102 2.572C13.0302 2.908 13.3902 3.448 13.3902 4.192C13.3902 5.224 12.6142 5.868 11.0622 6.124L12.7782 8.968C12.9622 9.272 13.1862 9.476 13.4502 9.58C13.6182 9.644 13.8822 9.684 14.2422 9.7V10ZM12.1422 4.132C12.1422 3.052 11.4662 2.512 10.1142 2.512C9.77022 2.512 9.52222 2.548 9.37022 2.62C9.14622 2.724 9.03422 2.928 9.03422 3.232V5.884H9.67022C10.5262 5.884 11.1382 5.764 11.5062 5.524C11.9302 5.26 12.1422 4.796 12.1422 4.132ZM20.5302 10H18.0942V9.7C18.4542 9.692 18.6782 9.632 18.7662 9.52C18.8542 9.408 18.8982 9.152 18.8982 8.752V6.604C18.8982 5.748 18.5622 5.32 17.8902 5.32C17.4262 5.32 16.8942 5.588 16.2942 6.124V9.112C16.2942 9.352 16.3822 9.516 16.5582 9.604C16.6702 9.66 16.8662 9.692 17.1462 9.7V10H14.7102V9.7C14.9822 9.692 15.1662 9.656 15.2622 9.592C15.4062 9.48 15.4782 9.256 15.4782 8.92V3.496C15.4782 3.048 15.1822 2.824 14.5902 2.824V2.512L16.1262 2.044H16.2942V5.728C17.0222 5.088 17.6742 4.768 18.2502 4.768C19.2262 4.768 19.7142 5.348 19.7142 6.508V8.872C19.7142 9.24 19.7742 9.472 19.8942 9.568C19.9822 9.648 20.1942 9.692 20.5302 9.7V10ZM26.188 7.516C26.188 8.252 25.94 8.88 25.444 9.4C24.948 9.912 24.336 10.168 23.608 10.168C22.88 10.168 22.264 9.888 21.76 9.328C21.288 8.8 21.052 8.184 21.052 7.48C21.052 6.776 21.284 6.156 21.748 5.62C22.244 5.052 22.856 4.768 23.584 4.768C24.336 4.768 24.964 5.052 25.468 5.62C25.948 6.156 26.188 6.788 26.188 7.516ZM25.216 7.528C25.216 6.84 25.1 6.28 24.868 5.848C24.588 5.336 24.172 5.08 23.62 5.08C23.1 5.08 22.704 5.296 22.432 5.728C22.16 6.16 22.024 6.736 22.024 7.456C22.024 8.152 22.144 8.712 22.384 9.136C22.664 9.624 23.076 9.868 23.62 9.868C24.148 9.868 24.552 9.644 24.832 9.196C25.088 8.788 25.216 8.232 25.216 7.528ZM32.653 10H30.217V9.7C30.521 9.684 30.725 9.64 30.829 9.568C30.965 9.48 31.033 9.308 31.033 9.052V6.652C31.033 5.764 30.697 5.32 30.025 5.32C29.553 5.32 29.021 5.584 28.429 6.112V9.052C28.429 9.316 28.513 9.496 28.681 9.592C28.801 9.656 29.001 9.692 29.281 9.7V10H26.845V9.7C27.125 9.684 27.325 9.636 27.445 9.556C27.557 9.476 27.613 9.308 27.613 9.052V6.268C27.613 5.812 27.309 5.572 26.701 5.548V5.248L28.261 4.768H28.429V5.752C29.165 5.096 29.817 4.768 30.385 4.768C31.361 4.768 31.849 5.396 31.849 6.652V8.956C31.849 9.252 31.913 9.452 32.041 9.556C32.145 9.636 32.349 9.684 32.653 9.7V10ZM37.8668 8.932C37.2668 9.756 36.5268 10.168 35.6468 10.168C34.7988 10.168 34.1588 9.88 33.7268 9.304C33.3748 8.84 33.1988 8.288 33.1988 7.648C33.1988 6.864 33.4468 6.196 33.9428 5.644C34.4708 5.06 35.1348 4.768 35.9348 4.768C36.3988 4.768 36.8228 4.868 37.2068 5.068C37.5828 5.26 37.7708 5.496 37.7708 5.776C37.7708 6.104 37.5868 6.268 37.2188 6.268C36.9068 6.268 36.6948 6.084 36.5828 5.716C36.4548 5.292 36.1908 5.08 35.7908 5.08C35.2308 5.08 34.8068 5.344 34.5188 5.872C34.2868 6.296 34.1708 6.792 34.1708 7.36C34.1708 7.936 34.2748 8.424 34.4828 8.824C34.7788 9.408 35.2548 9.7 35.9108 9.7C36.4548 9.7 37.0388 9.388 37.6628 8.764L37.8668 8.932ZM44.1908 10H43.6388C43.2788 10 42.9748 10.036 42.7268 10.108H42.5588V9.184C41.8468 9.84 41.1788 10.168 40.5548 10.168C40.0988 10.168 39.7268 10.02 39.4388 9.724C39.1588 9.428 39.0188 9.036 39.0188 8.548V5.956C39.0188 5.652 38.7388 5.488 38.1788 5.464V5.164L39.6668 4.768H39.8348V8.32C39.8348 8.736 39.9348 9.06 40.1348 9.292C40.3348 9.516 40.5908 9.628 40.9028 9.628C41.4548 9.628 42.0068 9.348 42.5588 8.788V6.016C42.5588 5.776 42.4628 5.616 42.2708 5.536C42.1508 5.496 41.9188 5.472 41.5748 5.464V5.164L43.2068 4.768H43.3748V9.184C43.3748 9.512 43.6468 9.684 44.1908 9.7V10ZM49.1406 8.632C49.1406 9.064 48.9686 9.428 48.6246 9.724C48.2806 10.02 47.8526 10.168 47.3406 10.168C47.1246 10.168 46.8526 10.124 46.5246 10.036C46.2606 9.964 46.0926 9.928 46.0206 9.928C45.7726 9.928 45.5286 10.008 45.2886 10.168L44.5926 8.464L44.8926 8.356C45.2766 8.788 45.6046 9.104 45.8766 9.304C46.3726 9.68 46.8766 9.868 47.3886 9.868C47.6926 9.868 47.9606 9.776 48.1926 9.592C48.4246 9.408 48.5406 9.172 48.5406 8.884C48.5406 8.58 48.4046 8.356 48.1326 8.212C47.9566 8.116 47.4926 7.976 46.7406 7.792C46.1806 7.648 45.7646 7.492 45.4926 7.324C45.0366 7.044 44.8086 6.66 44.8086 6.172C44.8086 5.756 44.9646 5.416 45.2766 5.152C45.5806 4.896 45.9606 4.768 46.4166 4.768C46.5846 4.768 46.8086 4.808 47.0886 4.888C47.3606 4.96 47.5566 4.996 47.6766 4.996C47.9086 4.996 48.1166 4.92 48.3006 4.768L48.9726 6.34L48.6486 6.436C47.8806 5.532 47.1366 5.08 46.4166 5.08C46.1046 5.08 45.8486 5.16 45.6486 5.32C45.4566 5.48 45.3606 5.676 45.3606 5.908C45.3606 6.132 45.4686 6.316 45.6846 6.46C45.9406 6.644 46.4086 6.816 47.0886 6.976C47.7206 7.128 48.1766 7.292 48.4566 7.468C48.9126 7.748 49.1406 8.136 49.1406 8.632ZM58.3923 8.632C58.3923 9.064 58.2203 9.428 57.8763 9.724C57.5323 10.02 57.1043 10.168 56.5923 10.168C56.3763 10.168 56.1043 10.124 55.7763 10.036C55.5123 9.964 55.3443 9.928 55.2723 9.928C55.0243 9.928 54.7803 10.008 54.5403 10.168L53.8443 8.464L54.1443 8.356C54.5283 8.788 54.8563 9.104 55.1283 9.304C55.6243 9.68 56.1283 9.868 56.6403 9.868C56.9443 9.868 57.2123 9.776 57.4443 9.592C57.6763 9.408 57.7923 9.172 57.7923 8.884C57.7923 8.58 57.6563 8.356 57.3843 8.212C57.2083 8.116 56.7443 7.976 55.9923 7.792C55.4323 7.648 55.0163 7.492 54.7443 7.324C54.2883 7.044 54.0603 6.66 54.0603 6.172C54.0603 5.756 54.2163 5.416 54.5283 5.152C54.8323 4.896 55.2123 4.768 55.6683 4.768C55.8363 4.768 56.0603 4.808 56.3403 4.888C56.6123 4.96 56.8083 4.996 56.9283 4.996C57.1603 4.996 57.3683 4.92 57.5523 4.768L58.2243 6.34L57.9003 6.436C57.1323 5.532 56.3883 5.08 55.6683 5.08C55.3563 5.08 55.1003 5.16 54.9003 5.32C54.7083 5.48 54.6123 5.676 54.6123 5.908C54.6123 6.132 54.7203 6.316 54.9363 6.46C55.1923 6.644 55.6603 6.816 56.3403 6.976C56.9723 7.128 57.4283 7.292 57.7083 7.468C58.1643 7.748 58.3923 8.136 58.3923 8.632ZM63.7202 9.04C63.4242 9.376 63.1642 9.616 62.9402 9.76C62.5162 10.032 62.0242 10.168 61.4642 10.168C60.6162 10.168 59.9802 9.872 59.5562 9.28C59.2202 8.824 59.0522 8.276 59.0522 7.636C59.0522 6.86 59.2882 6.188 59.7602 5.62C60.2242 5.052 60.7922 4.768 61.4642 4.768C62.1522 4.768 62.7082 5.06 63.1322 5.644C63.4042 6.028 63.5682 6.544 63.6242 7.192H60.0242V7.708C60.0242 8.14 60.1362 8.544 60.3602 8.92C60.6722 9.44 61.1322 9.7 61.7402 9.7C62.3002 9.7 62.8802 9.42 63.4802 8.86L63.7202 9.04ZM62.6282 6.808C62.6122 5.656 62.2202 5.08 61.4522 5.08C61.1162 5.08 60.8242 5.208 60.5762 5.464C60.2722 5.776 60.1042 6.224 60.0722 6.808H62.6282ZM73.1761 10H70.7401V9.7C71.0441 9.692 71.2481 9.652 71.3521 9.58C71.4961 9.476 71.5681 9.276 71.5681 8.98V6.772C71.5681 5.804 71.2521 5.32 70.6201 5.32C70.1161 5.32 69.6041 5.58 69.0841 6.1V9.004C69.0841 9.284 69.1561 9.472 69.3001 9.568C69.4041 9.64 69.6041 9.684 69.9001 9.7V10H67.4521V9.7C67.7481 9.684 67.9601 9.636 68.0881 9.556C68.2081 9.484 68.2681 9.316 68.2681 9.052V6.652C68.2681 5.764 67.9281 5.32 67.2481 5.32C66.8321 5.32 66.3441 5.58 65.7841 6.1V9.004C65.7841 9.284 65.8521 9.472 65.9881 9.568C66.1001 9.64 66.3081 9.684 66.6121 9.7V10H64.1521V9.7C64.4561 9.692 64.6601 9.648 64.7641 9.568C64.9001 9.472 64.9681 9.276 64.9681 8.98V6.292C64.9681 6.004 64.8841 5.804 64.7161 5.692C64.5881 5.612 64.3721 5.564 64.0681 5.548V5.248L65.6161 4.768H65.7841V5.728C66.4801 5.088 67.1161 4.768 67.6921 4.768C68.3561 4.768 68.8001 5.108 69.0241 5.788C69.3921 5.452 69.6921 5.216 69.9241 5.08C70.2761 4.872 70.6401 4.768 71.0161 4.768C71.9281 4.768 72.3841 5.332 72.3841 6.46V8.98C72.3841 9.276 72.4521 9.476 72.5881 9.58C72.6921 9.652 72.8881 9.692 73.1761 9.7V10ZM79.2871 7.42C79.2871 8.316 79.0231 9.016 78.4951 9.52C78.0391 9.952 77.4951 10.168 76.8631 10.168C76.2631 10.168 75.7071 9.936 75.1951 9.472V10.924C75.1951 11.26 75.2631 11.472 75.3991 11.56C75.5031 11.632 75.7471 11.672 76.1311 11.68V11.98H73.5751V11.68C73.8711 11.672 74.0711 11.636 74.1751 11.572C74.3111 11.484 74.3791 11.3 74.3791 11.02V6.172C74.3791 5.78 74.0791 5.572 73.4791 5.548V5.272L75.0271 4.768H75.1951V5.548C75.7951 5.028 76.3711 4.768 76.9231 4.768C77.4911 4.768 77.9951 4.96 78.4351 5.344C79.0031 5.832 79.2871 6.524 79.2871 7.42ZM78.3151 7.432C78.3151 6.92 78.2191 6.472 78.0271 6.088C77.7551 5.528 77.3111 5.248 76.6951 5.248C76.2071 5.248 75.7071 5.472 75.1951 5.92V9.148C75.7231 9.532 76.2031 9.724 76.6351 9.724C77.3471 9.724 77.8391 9.384 78.1111 8.704C78.2471 8.344 78.3151 7.92 78.3151 7.432ZM84.7169 9.04C84.4209 9.376 84.1609 9.616 83.9369 9.76C83.5129 10.032 83.0209 10.168 82.4609 10.168C81.6129 10.168 80.9769 9.872 80.5529 9.28C80.2169 8.824 80.0489 8.276 80.0489 7.636C80.0489 6.86 80.2849 6.188 80.7569 5.62C81.2209 5.052 81.7889 4.768 82.4609 4.768C83.1489 4.768 83.7049 5.06 84.1289 5.644C84.4009 6.028 84.5649 6.544 84.6209 7.192H81.0209V7.708C81.0209 8.14 81.1329 8.544 81.3569 8.92C81.6689 9.44 82.1289 9.7 82.7369 9.7C83.2969 9.7 83.8769 9.42 84.4769 8.86L84.7169 9.04ZM83.6249 6.808C83.6089 5.656 83.2169 5.08 82.4489 5.08C82.1129 5.08 81.8209 5.208 81.5729 5.464C81.2689 5.776 81.1009 6.224 81.0689 6.808H83.6249ZM89.2168 5.308C89.2168 5.636 89.0248 5.8 88.6408 5.8C88.5208 5.8 88.3688 5.756 88.1848 5.668C88.0008 5.588 87.8728 5.548 87.8008 5.548C87.5928 5.548 87.3528 5.696 87.0808 5.992C86.8328 6.256 86.7088 6.444 86.7088 6.556V8.932C86.7088 9.268 86.7848 9.484 86.9368 9.58C87.0488 9.652 87.3088 9.692 87.7168 9.7V10H85.0288V9.7C85.3408 9.692 85.5528 9.656 85.6648 9.592C85.8168 9.504 85.8928 9.324 85.8928 9.052V6.232C85.8928 5.792 85.6048 5.56 85.0288 5.536V5.248L86.5408 4.768H86.7088V6.04H86.7328C87.3808 5.192 87.9928 4.768 88.5688 4.768C89.0008 4.768 89.2168 4.948 89.2168 5.308ZM97.2354 9.328C96.8754 9.888 96.4074 10.168 95.8314 10.168C95.0394 10.168 94.6434 9.7 94.6434 8.764V5.332H93.7794V5.02C94.6354 4.764 95.0874 4.116 95.1354 3.076H95.4594V4.948H97.1994V5.332H95.4594V8.704C95.4594 9.368 95.6914 9.7 96.1554 9.7C96.4594 9.7 96.7594 9.536 97.0554 9.208L97.2354 9.328ZM102.353 9.04C102.057 9.376 101.797 9.616 101.573 9.76C101.149 10.032 100.657 10.168 100.097 10.168C99.2492 10.168 98.6132 9.872 98.1892 9.28C97.8532 8.824 97.6852 8.276 97.6852 7.636C97.6852 6.86 97.9212 6.188 98.3932 5.62C98.8572 5.052 99.4252 4.768 100.097 4.768C100.785 4.768 101.341 5.06 101.765 5.644C102.037 6.028 102.201 6.544 102.257 7.192H98.6572V7.708C98.6572 8.14 98.7692 8.544 98.9932 8.92C99.3052 9.44 99.7652 9.7 100.373 9.7C100.933 9.7 101.513 9.42 102.113 8.86L102.353 9.04ZM101.261 6.808C101.245 5.656 100.853 5.08 100.085 5.08C99.7492 5.08 99.4572 5.208 99.2092 5.464C98.9052 5.776 98.7372 6.224 98.7052 6.808H101.261ZM105.425 10H102.977V9.7C103.281 9.692 103.485 9.656 103.589 9.592C103.749 9.504 103.829 9.324 103.829 9.052V3.472C103.829 3.056 103.521 2.848 102.905 2.848V2.548L104.477 2.044H104.645V9.112C104.645 9.352 104.725 9.516 104.885 9.604C104.989 9.66 105.169 9.692 105.425 9.7V10ZM108.662 10H106.214V9.7C106.518 9.692 106.722 9.656 106.826 9.592C106.986 9.504 107.066 9.324 107.066 9.052V3.472C107.066 3.056 106.758 2.848 106.142 2.848V2.548L107.714 2.044H107.882V9.112C107.882 9.352 107.962 9.516 108.122 9.604C108.226 9.66 108.406 9.692 108.662 9.7V10ZM115.175 10H114.623C114.263 10 113.959 10.036 113.711 10.108H113.543V9.184C112.831 9.84 112.163 10.168 111.539 10.168C111.083 10.168 110.711 10.02 110.423 9.724C110.143 9.428 110.003 9.036 110.003 8.548V5.956C110.003 5.652 109.723 5.488 109.163 5.464V5.164L110.651 4.768H110.819V8.32C110.819 8.736 110.919 9.06 111.119 9.292C111.319 9.516 111.575 9.628 111.887 9.628C112.439 9.628 112.991 9.348 113.543 8.788V6.016C113.543 5.776 113.447 5.616 113.255 5.536C113.135 5.496 112.903 5.472 112.559 5.464V5.164L114.191 4.768H114.359V9.184C114.359 9.512 114.631 9.684 115.175 9.7V10ZM120.125 8.632C120.125 9.064 119.953 9.428 119.609 9.724C119.265 10.02 118.837 10.168 118.325 10.168C118.109 10.168 117.837 10.124 117.509 10.036C117.245 9.964 117.077 9.928 117.005 9.928C116.757 9.928 116.513 10.008 116.273 10.168L115.577 8.464L115.877 8.356C116.261 8.788 116.589 9.104 116.861 9.304C117.357 9.68 117.861 9.868 118.373 9.868C118.677 9.868 118.945 9.776 119.177 9.592C119.409 9.408 119.525 9.172 119.525 8.884C119.525 8.58 119.389 8.356 119.117 8.212C118.941 8.116 118.477 7.976 117.725 7.792C117.165 7.648 116.749 7.492 116.477 7.324C116.021 7.044 115.793 6.66 115.793 6.172C115.793 5.756 115.949 5.416 116.261 5.152C116.565 4.896 116.945 4.768 117.401 4.768C117.569 4.768 117.793 4.808 118.073 4.888C118.345 4.96 118.541 4.996 118.661 4.996C118.893 4.996 119.101 4.92 119.285 4.768L119.957 6.34L119.633 6.436C118.865 5.532 118.121 5.08 117.401 5.08C117.089 5.08 116.833 5.16 116.633 5.32C116.441 5.48 116.345 5.676 116.345 5.908C116.345 6.132 116.453 6.316 116.669 6.46C116.925 6.644 117.393 6.816 118.073 6.976C118.705 7.128 119.161 7.292 119.441 7.468C119.897 7.748 120.125 8.136 120.125 8.632ZM128.729 2.584C128.729 2.888 128.561 3.04 128.225 3.04C128.041 3.04 127.857 2.956 127.673 2.788C127.553 2.676 127.457 2.62 127.385 2.62C127.017 2.62 126.833 3.404 126.833 4.972L128.333 4.948V5.344L126.833 5.32V8.98C126.833 9.308 126.921 9.516 127.097 9.604C127.217 9.66 127.537 9.692 128.057 9.7V10H124.877V9.7C125.325 9.692 125.613 9.656 125.741 9.592C125.925 9.504 126.017 9.308 126.017 9.004V5.32L124.781 5.344V4.948L126.017 4.972C126.041 4.412 126.089 3.988 126.161 3.7C126.289 3.212 126.521 2.812 126.857 2.5C127.185 2.196 127.577 2.044 128.033 2.044C128.497 2.044 128.729 2.224 128.729 2.584ZM133.463 9.04C133.167 9.376 132.907 9.616 132.683 9.76C132.259 10.032 131.767 10.168 131.207 10.168C130.359 10.168 129.723 9.872 129.299 9.28C128.963 8.824 128.795 8.276 128.795 7.636C128.795 6.86 129.031 6.188 129.503 5.62C129.967 5.052 130.535 4.768 131.207 4.768C131.895 4.768 132.451 5.06 132.875 5.644C133.147 6.028 133.311 6.544 133.367 7.192H129.767V7.708C129.767 8.14 129.879 8.544 130.103 8.92C130.415 9.44 130.875 9.7 131.483 9.7C132.043 9.7 132.623 9.42 133.223 8.86L133.463 9.04ZM132.371 6.808C132.355 5.656 131.963 5.08 131.195 5.08C130.859 5.08 130.567 5.208 130.319 5.464C130.015 5.776 129.847 6.224 129.815 6.808H132.371ZM139.811 10H139.259C138.899 10 138.595 10.036 138.347 10.108H138.179V9.184C137.467 9.84 136.799 10.168 136.175 10.168C135.719 10.168 135.347 10.02 135.059 9.724C134.779 9.428 134.639 9.036 134.639 8.548V5.956C134.639 5.652 134.359 5.488 133.799 5.464V5.164L135.287 4.768H135.455V8.32C135.455 8.736 135.555 9.06 135.755 9.292C135.955 9.516 136.211 9.628 136.523 9.628C137.075 9.628 137.627 9.348 138.179 8.788V6.016C138.179 5.776 138.083 5.616 137.891 5.536C137.771 5.496 137.539 5.472 137.195 5.464V5.164L138.827 4.768H138.995V9.184C138.995 9.512 139.267 9.684 139.811 9.7V10ZM146.284 5.224C146.284 5.52 146.128 5.668 145.816 5.668C145.68 5.668 145.524 5.612 145.348 5.5C145.26 5.412 145.164 5.368 145.06 5.368C144.964 5.368 144.852 5.416 144.724 5.512C145.028 5.84 145.18 6.2 145.18 6.592C145.18 7.096 144.972 7.532 144.556 7.9C144.148 8.26 143.624 8.44 142.984 8.44C142.76 8.44 142.46 8.392 142.084 8.296C141.78 8.48 141.628 8.62 141.628 8.716C141.628 8.876 142.048 9.016 142.888 9.136C143.968 9.288 144.72 9.488 145.144 9.736C145.52 9.952 145.708 10.252 145.708 10.636C145.708 11.188 145.336 11.572 144.592 11.788C144.152 11.916 143.628 11.98 143.02 11.98C142.132 11.98 141.44 11.88 140.944 11.68C140.456 11.488 140.212 11.22 140.212 10.876C140.212 10.58 140.404 10.336 140.788 10.144C141.028 10.016 141.46 9.872 142.084 9.712V9.688C141.796 9.6 141.46 9.5 141.076 9.388C140.868 9.252 140.764 9.116 140.764 8.98C140.764 8.828 140.86 8.684 141.052 8.548C141.188 8.452 141.44 8.324 141.808 8.164C141.104 7.748 140.752 7.228 140.752 6.604C140.752 6.132 140.948 5.716 141.34 5.356C141.764 4.964 142.304 4.768 142.96 4.768C143.544 4.768 144.072 4.948 144.544 5.308C144.944 4.948 145.316 4.768 145.66 4.768C146.076 4.768 146.284 4.92 146.284 5.224ZM144.208 6.58C144.208 6.116 144.092 5.748 143.86 5.476C143.636 5.212 143.344 5.08 142.984 5.08C142.624 5.08 142.324 5.216 142.084 5.488C141.844 5.76 141.724 6.132 141.724 6.604C141.724 7.068 141.844 7.44 142.084 7.72C142.316 8 142.608 8.14 142.96 8.14C143.272 8.14 143.536 8.04 143.752 7.84C144.056 7.576 144.208 7.156 144.208 6.58ZM144.988 10.864C144.988 10.592 144.788 10.38 144.388 10.228C144.14 10.132 143.564 10 142.66 9.832C141.612 10.096 141.088 10.448 141.088 10.888C141.088 11.416 141.732 11.68 143.02 11.68C144.332 11.68 144.988 11.408 144.988 10.864ZM148.63 2.608C148.63 2.768 148.57 2.9 148.45 3.004C148.33 3.108 148.182 3.16 148.006 3.16C147.83 3.16 147.682 3.104 147.562 2.992C147.442 2.888 147.382 2.76 147.382 2.608C147.382 2.416 147.466 2.268 147.634 2.164C147.762 2.084 147.898 2.044 148.042 2.044C148.186 2.044 148.322 2.096 148.45 2.2C148.57 2.304 148.63 2.44 148.63 2.608ZM149.314 10H146.866V9.7C147.178 9.692 147.39 9.64 147.502 9.544C147.614 9.456 147.67 9.24 147.67 8.896V6.148C147.67 5.772 147.37 5.572 146.77 5.548V5.248L148.318 4.768H148.486V9.16C148.486 9.496 148.762 9.676 149.314 9.7V10ZM155.131 9.556C154.963 9.964 154.647 10.168 154.183 10.168C153.903 10.168 153.695 10.096 153.559 9.952C153.463 9.848 153.383 9.668 153.319 9.412C152.855 9.708 152.519 9.9 152.311 9.988C152.015 10.108 151.687 10.168 151.327 10.168C150.903 10.168 150.551 10.056 150.271 9.832C149.991 9.608 149.851 9.324 149.851 8.98C149.851 8.412 150.251 7.936 151.051 7.552C151.571 7.312 152.327 7.092 153.319 6.892V6.172C153.319 5.444 152.979 5.08 152.299 5.08C152.003 5.08 151.783 5.136 151.639 5.248C151.495 5.352 151.367 5.536 151.255 5.8C151.111 6.152 150.899 6.328 150.619 6.328C150.435 6.328 150.291 6.272 150.187 6.16C150.091 6.048 150.043 5.928 150.043 5.8C150.043 5.552 150.243 5.324 150.643 5.116C151.075 4.884 151.599 4.768 152.215 4.768C153.495 4.768 154.135 5.18 154.135 6.004V9.076C154.135 9.468 154.259 9.664 154.507 9.664C154.667 9.664 154.799 9.588 154.903 9.436L155.131 9.556ZM153.319 9.052V7.168C152.647 7.304 152.083 7.512 151.627 7.792C151.091 8.12 150.823 8.488 150.823 8.896C150.823 9.16 150.915 9.368 151.099 9.52C151.259 9.656 151.463 9.724 151.711 9.724C152.167 9.724 152.703 9.5 153.319 9.052ZM159.088 9.328C158.728 9.888 158.26 10.168 157.684 10.168C156.892 10.168 156.496 9.7 156.496 8.764V5.332H155.632V5.02C156.488 4.764 156.94 4.116 156.988 3.076H157.312V4.948H159.052V5.332H157.312V8.704C157.312 9.368 157.544 9.7 158.008 9.7C158.312 9.7 158.612 9.536 158.908 9.208L159.088 9.328ZM168.334 9.04C168.038 9.376 167.778 9.616 167.554 9.76C167.13 10.032 166.638 10.168 166.078 10.168C165.23 10.168 164.594 9.872 164.17 9.28C163.834 8.824 163.666 8.276 163.666 7.636C163.666 6.86 163.902 6.188 164.374 5.62C164.838 5.052 165.406 4.768 166.078 4.768C166.766 4.768 167.322 5.06 167.746 5.644C168.018 6.028 168.182 6.544 168.238 7.192H164.638V7.708C164.638 8.14 164.75 8.544 164.974 8.92C165.286 9.44 165.746 9.7 166.354 9.7C166.914 9.7 167.494 9.42 168.094 8.86L168.334 9.04ZM167.242 6.808C167.226 5.656 166.834 5.08 166.066 5.08C165.73 5.08 165.438 5.208 165.19 5.464C164.886 5.776 164.718 6.224 164.686 6.808H167.242ZM174.778 5.224C174.778 5.52 174.622 5.668 174.31 5.668C174.174 5.668 174.018 5.612 173.842 5.5C173.754 5.412 173.658 5.368 173.554 5.368C173.458 5.368 173.346 5.416 173.218 5.512C173.522 5.84 173.674 6.2 173.674 6.592C173.674 7.096 173.466 7.532 173.05 7.9C172.642 8.26 172.118 8.44 171.478 8.44C171.254 8.44 170.954 8.392 170.578 8.296C170.274 8.48 170.122 8.62 170.122 8.716C170.122 8.876 170.542 9.016 171.382 9.136C172.462 9.288 173.214 9.488 173.638 9.736C174.014 9.952 174.202 10.252 174.202 10.636C174.202 11.188 173.83 11.572 173.086 11.788C172.646 11.916 172.122 11.98 171.514 11.98C170.626 11.98 169.934 11.88 169.438 11.68C168.95 11.488 168.706 11.22 168.706 10.876C168.706 10.58 168.898 10.336 169.282 10.144C169.522 10.016 169.954 9.872 170.578 9.712V9.688C170.29 9.6 169.954 9.5 169.57 9.388C169.362 9.252 169.258 9.116 169.258 8.98C169.258 8.828 169.354 8.684 169.546 8.548C169.682 8.452 169.934 8.324 170.302 8.164C169.598 7.748 169.246 7.228 169.246 6.604C169.246 6.132 169.442 5.716 169.834 5.356C170.258 4.964 170.798 4.768 171.454 4.768C172.038 4.768 172.566 4.948 173.038 5.308C173.438 4.948 173.81 4.768 174.154 4.768C174.57 4.768 174.778 4.92 174.778 5.224ZM172.702 6.58C172.702 6.116 172.586 5.748 172.354 5.476C172.13 5.212 171.838 5.08 171.478 5.08C171.118 5.08 170.818 5.216 170.578 5.488C170.338 5.76 170.218 6.132 170.218 6.604C170.218 7.068 170.338 7.44 170.578 7.72C170.81 8 171.102 8.14 171.454 8.14C171.766 8.14 172.03 8.04 172.246 7.84C172.55 7.576 172.702 7.156 172.702 6.58ZM173.482 10.864C173.482 10.592 173.282 10.38 172.882 10.228C172.634 10.132 172.058 10 171.154 9.832C170.106 10.096 169.582 10.448 169.582 10.888C169.582 11.416 170.226 11.68 171.514 11.68C172.826 11.68 173.482 11.408 173.482 10.864ZM179.836 9.04C179.54 9.376 179.28 9.616 179.056 9.76C178.632 10.032 178.14 10.168 177.58 10.168C176.732 10.168 176.096 9.872 175.672 9.28C175.336 8.824 175.168 8.276 175.168 7.636C175.168 6.86 175.404 6.188 175.876 5.62C176.34 5.052 176.908 4.768 177.58 4.768C178.268 4.768 178.824 5.06 179.248 5.644C179.52 6.028 179.684 6.544 179.74 7.192H176.14V7.708C176.14 8.14 176.252 8.544 176.476 8.92C176.788 9.44 177.248 9.7 177.856 9.7C178.416 9.7 178.996 9.42 179.596 8.86L179.836 9.04ZM178.744 6.808C178.728 5.656 178.336 5.08 177.568 5.08C177.232 5.08 176.94 5.208 176.692 5.464C176.388 5.776 176.22 6.224 176.188 6.808H178.744ZM184.756 8.632C184.756 9.064 184.584 9.428 184.24 9.724C183.896 10.02 183.468 10.168 182.956 10.168C182.74 10.168 182.468 10.124 182.14 10.036C181.876 9.964 181.708 9.928 181.636 9.928C181.388 9.928 181.144 10.008 180.904 10.168L180.208 8.464L180.508 8.356C180.892 8.788 181.22 9.104 181.492 9.304C181.988 9.68 182.492 9.868 183.004 9.868C183.308 9.868 183.576 9.776 183.808 9.592C184.04 9.408 184.156 9.172 184.156 8.884C184.156 8.58 184.02 8.356 183.748 8.212C183.572 8.116 183.108 7.976 182.356 7.792C181.796 7.648 181.38 7.492 181.108 7.324C180.652 7.044 180.424 6.66 180.424 6.172C180.424 5.756 180.58 5.416 180.892 5.152C181.196 4.896 181.576 4.768 182.032 4.768C182.2 4.768 182.424 4.808 182.704 4.888C182.976 4.96 183.172 4.996 183.292 4.996C183.524 4.996 183.732 4.92 183.916 4.768L184.588 6.34L184.264 6.436C183.496 5.532 182.752 5.08 182.032 5.08C181.72 5.08 181.464 5.16 181.264 5.32C181.072 5.48 180.976 5.676 180.976 5.908C180.976 6.132 181.084 6.316 181.3 6.46C181.556 6.644 182.024 6.816 182.704 6.976C183.336 7.128 183.792 7.292 184.072 7.468C184.528 7.748 184.756 8.136 184.756 8.632ZM188.847 9.328C188.487 9.888 188.019 10.168 187.443 10.168C186.651 10.168 186.255 9.7 186.255 8.764V5.332H185.391V5.02C186.247 4.764 186.699 4.116 186.747 3.076H187.071V4.948H188.811V5.332H187.071V8.704C187.071 9.368 187.303 9.7 187.767 9.7C188.071 9.7 188.371 9.536 188.667 9.208L188.847 9.328ZM194.517 9.556C194.349 9.964 194.033 10.168 193.569 10.168C193.289 10.168 193.081 10.096 192.945 9.952C192.849 9.848 192.769 9.668 192.705 9.412C192.241 9.708 191.905 9.9 191.697 9.988C191.401 10.108 191.073 10.168 190.713 10.168C190.289 10.168 189.937 10.056 189.657 9.832C189.377 9.608 189.237 9.324 189.237 8.98C189.237 8.412 189.637 7.936 190.437 7.552C190.957 7.312 191.713 7.092 192.705 6.892V6.172C192.705 5.444 192.365 5.08 191.685 5.08C191.389 5.08 191.169 5.136 191.025 5.248C190.881 5.352 190.753 5.536 190.641 5.8C190.497 6.152 190.285 6.328 190.005 6.328C189.821 6.328 189.677 6.272 189.573 6.16C189.477 6.048 189.429 5.928 189.429 5.8C189.429 5.552 189.629 5.324 190.029 5.116C190.461 4.884 190.985 4.768 191.601 4.768C192.881 4.768 193.521 5.18 193.521 6.004V9.076C193.521 9.468 193.645 9.664 193.893 9.664C194.053 9.664 194.185 9.588 194.289 9.436L194.517 9.556ZM192.705 9.052V7.168C192.033 7.304 191.469 7.512 191.013 7.792C190.477 8.12 190.209 8.488 190.209 8.896C190.209 9.16 190.301 9.368 190.485 9.52C190.645 9.656 190.849 9.724 191.097 9.724C191.553 9.724 192.089 9.5 192.705 9.052ZM199.506 8.632C199.506 9.064 199.334 9.428 198.99 9.724C198.646 10.02 198.218 10.168 197.706 10.168C197.49 10.168 197.218 10.124 196.89 10.036C196.626 9.964 196.458 9.928 196.386 9.928C196.138 9.928 195.894 10.008 195.654 10.168L194.958 8.464L195.258 8.356C195.642 8.788 195.97 9.104 196.242 9.304C196.738 9.68 197.242 9.868 197.754 9.868C198.058 9.868 198.326 9.776 198.558 9.592C198.79 9.408 198.906 9.172 198.906 8.884C198.906 8.58 198.77 8.356 198.498 8.212C198.322 8.116 197.858 7.976 197.106 7.792C196.546 7.648 196.13 7.492 195.858 7.324C195.402 7.044 195.174 6.66 195.174 6.172C195.174 5.756 195.33 5.416 195.642 5.152C195.946 4.896 196.326 4.768 196.782 4.768C196.95 4.768 197.174 4.808 197.454 4.888C197.726 4.96 197.922 4.996 198.042 4.996C198.274 4.996 198.482 4.92 198.666 4.768L199.338 6.34L199.014 6.436C198.246 5.532 197.502 5.08 196.782 5.08C196.47 5.08 196.214 5.16 196.014 5.32C195.822 5.48 195.726 5.676 195.726 5.908C195.726 6.132 195.834 6.316 196.05 6.46C196.306 6.644 196.774 6.816 197.454 6.976C198.086 7.128 198.542 7.292 198.822 7.468C199.278 7.748 199.506 8.136 199.506 8.632ZM208.758 8.632C208.758 9.064 208.586 9.428 208.242 9.724C207.898 10.02 207.47 10.168 206.958 10.168C206.742 10.168 206.47 10.124 206.142 10.036C205.878 9.964 205.71 9.928 205.638 9.928C205.39 9.928 205.146 10.008 204.906 10.168L204.21 8.464L204.51 8.356C204.894 8.788 205.222 9.104 205.494 9.304C205.99 9.68 206.494 9.868 207.006 9.868C207.31 9.868 207.578 9.776 207.81 9.592C208.042 9.408 208.158 9.172 208.158 8.884C208.158 8.58 208.022 8.356 207.75 8.212C207.574 8.116 207.11 7.976 206.358 7.792C205.798 7.648 205.382 7.492 205.11 7.324C204.654 7.044 204.426 6.66 204.426 6.172C204.426 5.756 204.582 5.416 204.894 5.152C205.198 4.896 205.578 4.768 206.034 4.768C206.202 4.768 206.426 4.808 206.706 4.888C206.978 4.96 207.174 4.996 207.294 4.996C207.526 4.996 207.734 4.92 207.918 4.768L208.59 6.34L208.266 6.436C207.498 5.532 206.754 5.08 206.034 5.08C205.722 5.08 205.466 5.16 205.266 5.32C205.074 5.48 204.978 5.676 204.978 5.908C204.978 6.132 205.086 6.316 205.302 6.46C205.558 6.644 206.026 6.816 206.706 6.976C207.338 7.128 207.794 7.292 208.074 7.468C208.53 7.748 208.758 8.136 208.758 8.632ZM214.086 9.04C213.79 9.376 213.53 9.616 213.306 9.76C212.882 10.032 212.39 10.168 211.83 10.168C210.982 10.168 210.346 9.872 209.922 9.28C209.586 8.824 209.418 8.276 209.418 7.636C209.418 6.86 209.654 6.188 210.126 5.62C210.59 5.052 211.158 4.768 211.83 4.768C212.518 4.768 213.074 5.06 213.498 5.644C213.77 6.028 213.934 6.544 213.99 7.192H210.39V7.708C210.39 8.14 210.502 8.544 210.726 8.92C211.038 9.44 211.498 9.7 212.106 9.7C212.666 9.7 213.246 9.42 213.846 8.86L214.086 9.04ZM212.994 6.808C212.978 5.656 212.586 5.08 211.818 5.08C211.482 5.08 211.19 5.208 210.942 5.464C210.638 5.776 210.47 6.224 210.438 6.808H212.994ZM220.422 10H219.846C219.646 10 219.354 10.024 218.97 10.072H218.814V9.448C218.478 9.712 218.23 9.884 218.07 9.964C217.79 10.1 217.478 10.168 217.134 10.168C216.446 10.168 215.878 9.932 215.43 9.46C214.958 8.964 214.722 8.304 214.722 7.48C214.722 6.568 215.018 5.86 215.61 5.356C216.066 4.964 216.57 4.768 217.122 4.768C217.73 4.768 218.294 5 218.814 5.464V3.436C218.814 3.028 218.454 2.824 217.734 2.824V2.5L219.462 2.044H219.63V9.088C219.63 9.336 219.71 9.504 219.87 9.592C219.974 9.656 220.158 9.692 220.422 9.7V10ZM218.814 9.1V5.8C218.27 5.416 217.786 5.224 217.362 5.224C216.674 5.224 216.194 5.56 215.922 6.232C215.77 6.608 215.694 7.052 215.694 7.564C215.694 8.188 215.846 8.7 216.15 9.1C216.446 9.5 216.834 9.7 217.314 9.7C217.794 9.7 218.294 9.5 218.814 9.1ZM230.915 5.248C230.387 5.28 230.035 5.5 229.859 5.908L228.047 10.168H227.723L225.923 5.8C225.771 5.432 225.447 5.248 224.951 5.248V4.948H227.495V5.248C226.991 5.264 226.739 5.372 226.739 5.572C226.739 5.66 226.759 5.752 226.799 5.848L228.119 9.04L229.331 6.172C229.411 5.98 229.451 5.812 229.451 5.668C229.451 5.412 229.163 5.272 228.587 5.248V4.948H230.915V5.248ZM236.645 9.556C236.477 9.964 236.161 10.168 235.697 10.168C235.417 10.168 235.209 10.096 235.073 9.952C234.977 9.848 234.897 9.668 234.833 9.412C234.369 9.708 234.033 9.9 233.825 9.988C233.529 10.108 233.201 10.168 232.841 10.168C232.417 10.168 232.065 10.056 231.785 9.832C231.505 9.608 231.365 9.324 231.365 8.98C231.365 8.412 231.765 7.936 232.565 7.552C233.085 7.312 233.841 7.092 234.833 6.892V6.172C234.833 5.444 234.493 5.08 233.813 5.08C233.517 5.08 233.297 5.136 233.153 5.248C233.009 5.352 232.881 5.536 232.769 5.8C232.625 6.152 232.413 6.328 232.133 6.328C231.949 6.328 231.805 6.272 231.701 6.16C231.605 6.048 231.557 5.928 231.557 5.8C231.557 5.552 231.757 5.324 232.157 5.116C232.589 4.884 233.113 4.768 233.729 4.768C235.009 4.768 235.649 5.18 235.649 6.004V9.076C235.649 9.468 235.773 9.664 236.021 9.664C236.181 9.664 236.313 9.588 236.417 9.436L236.645 9.556ZM234.833 9.052V7.168C234.161 7.304 233.597 7.512 233.141 7.792C232.605 8.12 232.337 8.488 232.337 8.896C232.337 9.16 232.429 9.368 232.613 9.52C232.773 9.656 232.977 9.724 233.225 9.724C233.681 9.724 234.217 9.5 234.833 9.052ZM241.214 5.308C241.214 5.636 241.022 5.8 240.638 5.8C240.518 5.8 240.366 5.756 240.182 5.668C239.998 5.588 239.87 5.548 239.798 5.548C239.59 5.548 239.35 5.696 239.078 5.992C238.83 6.256 238.706 6.444 238.706 6.556V8.932C238.706 9.268 238.782 9.484 238.934 9.58C239.046 9.652 239.306 9.692 239.714 9.7V10H237.026V9.7C237.338 9.692 237.55 9.656 237.662 9.592C237.814 9.504 237.89 9.324 237.89 9.052V6.232C237.89 5.792 237.602 5.56 237.026 5.536V5.248L238.538 4.768H238.706V6.04H238.73C239.378 5.192 239.99 4.768 240.566 4.768C240.998 4.768 241.214 4.948 241.214 5.308ZM243.629 2.608C243.629 2.768 243.569 2.9 243.449 3.004C243.329 3.108 243.181 3.16 243.005 3.16C242.829 3.16 242.681 3.104 242.561 2.992C242.441 2.888 242.381 2.76 242.381 2.608C242.381 2.416 242.465 2.268 242.633 2.164C242.761 2.084 242.897 2.044 243.041 2.044C243.185 2.044 243.321 2.096 243.449 2.2C243.569 2.304 243.629 2.44 243.629 2.608ZM244.313 10H241.865V9.7C242.177 9.692 242.389 9.64 242.501 9.544C242.613 9.456 242.669 9.24 242.669 8.896V6.148C242.669 5.772 242.369 5.572 241.769 5.548V5.248L243.317 4.768H243.485V9.16C243.485 9.496 243.761 9.676 244.313 9.7V10ZM250.802 10H250.25C249.89 10 249.586 10.036 249.338 10.108H249.17V9.184C248.458 9.84 247.79 10.168 247.166 10.168C246.71 10.168 246.338 10.02 246.05 9.724C245.77 9.428 245.63 9.036 245.63 8.548V5.956C245.63 5.652 245.35 5.488 244.79 5.464V5.164L246.278 4.768H246.446V8.32C246.446 8.736 246.546 9.06 246.746 9.292C246.946 9.516 247.202 9.628 247.514 9.628C248.066 9.628 248.618 9.348 249.17 8.788V6.016C249.17 5.776 249.074 5.616 248.882 5.536C248.762 5.496 248.53 5.472 248.186 5.464V5.164L249.818 4.768H249.986V9.184C249.986 9.512 250.258 9.684 250.802 9.7V10ZM255.752 8.632C255.752 9.064 255.58 9.428 255.236 9.724C254.892 10.02 254.464 10.168 253.952 10.168C253.736 10.168 253.464 10.124 253.136 10.036C252.872 9.964 252.704 9.928 252.632 9.928C252.384 9.928 252.14 10.008 251.9 10.168L251.204 8.464L251.504 8.356C251.888 8.788 252.216 9.104 252.488 9.304C252.984 9.68 253.488 9.868 254 9.868C254.304 9.868 254.572 9.776 254.804 9.592C255.036 9.408 255.152 9.172 255.152 8.884C255.152 8.58 255.016 8.356 254.744 8.212C254.568 8.116 254.104 7.976 253.352 7.792C252.792 7.648 252.376 7.492 252.104 7.324C251.648 7.044 251.42 6.66 251.42 6.172C251.42 5.756 251.576 5.416 251.888 5.152C252.192 4.896 252.572 4.768 253.028 4.768C253.196 4.768 253.42 4.808 253.7 4.888C253.972 4.96 254.168 4.996 254.288 4.996C254.52 4.996 254.728 4.92 254.912 4.768L255.584 6.34L255.26 6.436C254.492 5.532 253.748 5.08 253.028 5.08C252.716 5.08 252.46 5.16 252.26 5.32C252.068 5.48 251.972 5.676 251.972 5.908C251.972 6.132 252.08 6.316 252.296 6.46C252.552 6.644 253.02 6.816 253.7 6.976C254.332 7.128 254.788 7.292 255.068 7.468C255.524 7.748 255.752 8.136 255.752 8.632ZM258.092 9.568C258.092 9.736 258.024 9.88 257.888 10C257.76 10.112 257.6 10.168 257.408 10.168C257.224 10.168 257.068 10.108 256.94 9.988C256.812 9.876 256.748 9.736 256.748 9.568C256.748 9.4 256.812 9.256 256.94 9.136C257.068 9.024 257.224 8.968 257.408 8.968C257.6 8.968 257.764 9.028 257.9 9.148C258.028 9.268 258.092 9.408 258.092 9.568ZM270.956 10H267.752V9.7C268.08 9.7 268.316 9.668 268.46 9.604C268.716 9.5 268.844 9.292 268.844 8.98V6.196H265.112V9.052C265.112 9.316 265.232 9.496 265.472 9.592C265.608 9.648 265.84 9.684 266.168 9.7V10H263V9.7C263.704 9.7 264.056 9.46 264.056 8.98V3.244C264.056 2.756 263.792 2.512 263.264 2.512H263V2.212H266.168V2.512C265.832 2.52 265.592 2.56 265.448 2.632C265.224 2.744 265.112 2.948 265.112 3.244V5.812H268.844V3.28C268.844 2.944 268.724 2.72 268.484 2.608C268.34 2.544 268.096 2.512 267.752 2.512V2.212H270.956V2.512C270.628 2.52 270.388 2.56 270.236 2.632C270.012 2.744 269.9 2.948 269.9 3.244V8.98C269.9 9.284 270.016 9.488 270.248 9.592C270.384 9.656 270.62 9.692 270.956 9.7V10ZM276.065 9.04C275.769 9.376 275.509 9.616 275.285 9.76C274.861 10.032 274.369 10.168 273.809 10.168C272.961 10.168 272.325 9.872 271.901 9.28C271.565 8.824 271.397 8.276 271.397 7.636C271.397 6.86 271.633 6.188 272.105 5.62C272.569 5.052 273.137 4.768 273.809 4.768C274.497 4.768 275.053 5.06 275.477 5.644C275.749 6.028 275.913 6.544 275.969 7.192H272.369V7.708C272.369 8.14 272.481 8.544 272.705 8.92C273.017 9.44 273.477 9.7 274.085 9.7C274.645 9.7 275.225 9.42 275.825 8.86L276.065 9.04ZM274.973 6.808C274.957 5.656 274.565 5.08 273.797 5.08C273.461 5.08 273.169 5.208 272.921 5.464C272.617 5.776 272.449 6.224 272.417 6.808H274.973ZM282.377 10H279.941V9.7C280.245 9.684 280.449 9.64 280.553 9.568C280.689 9.48 280.757 9.308 280.757 9.052V6.652C280.757 5.764 280.421 5.32 279.749 5.32C279.277 5.32 278.745 5.584 278.153 6.112V9.052C278.153 9.316 278.237 9.496 278.405 9.592C278.525 9.656 278.725 9.692 279.005 9.7V10H276.569V9.7C276.849 9.684 277.049 9.636 277.169 9.556C277.281 9.476 277.337 9.308 277.337 9.052V6.268C277.337 5.812 277.033 5.572 276.425 5.548V5.248L277.985 4.768H278.153V5.752C278.889 5.096 279.541 4.768 280.109 4.768C281.085 4.768 281.573 5.396 281.573 6.652V8.956C281.573 9.252 281.637 9.452 281.765 9.556C281.869 9.636 282.073 9.684 282.377 9.7V10ZM288.779 10H288.203C288.003 10 287.711 10.024 287.327 10.072H287.171V9.448C286.835 9.712 286.587 9.884 286.427 9.964C286.147 10.1 285.835 10.168 285.491 10.168C284.803 10.168 284.235 9.932 283.787 9.46C283.315 8.964 283.079 8.304 283.079 7.48C283.079 6.568 283.375 5.86 283.967 5.356C284.423 4.964 284.927 4.768 285.479 4.768C286.087 4.768 286.651 5 287.171 5.464V3.436C287.171 3.028 286.811 2.824 286.091 2.824V2.5L287.819 2.044H287.987V9.088C287.987 9.336 288.067 9.504 288.227 9.592C288.331 9.656 288.515 9.692 288.779 9.7V10ZM287.171 9.1V5.8C286.627 5.416 286.143 5.224 285.719 5.224C285.031 5.224 284.551 5.56 284.279 6.232C284.127 6.608 284.051 7.052 284.051 7.564C284.051 8.188 284.203 8.7 284.507 9.1C284.803 9.5 285.191 9.7 285.671 9.7C286.151 9.7 286.651 9.5 287.171 9.1ZM293.32 5.308C293.32 5.636 293.128 5.8 292.744 5.8C292.624 5.8 292.472 5.756 292.288 5.668C292.104 5.588 291.976 5.548 291.904 5.548C291.696 5.548 291.456 5.696 291.184 5.992C290.936 6.256 290.812 6.444 290.812 6.556V8.932C290.812 9.268 290.888 9.484 291.04 9.58C291.152 9.652 291.412 9.692 291.82 9.7V10H289.132V9.7C289.444 9.692 289.656 9.656 289.768 9.592C289.92 9.504 289.996 9.324 289.996 9.052V6.232C289.996 5.792 289.708 5.56 289.132 5.536V5.248L290.644 4.768H290.812V6.04H290.836C291.484 5.192 292.096 4.768 292.672 4.768C293.104 4.768 293.32 4.948 293.32 5.308ZM298.447 9.04C298.151 9.376 297.891 9.616 297.667 9.76C297.243 10.032 296.751 10.168 296.191 10.168C295.343 10.168 294.707 9.872 294.283 9.28C293.947 8.824 293.779 8.276 293.779 7.636C293.779 6.86 294.015 6.188 294.487 5.62C294.951 5.052 295.519 4.768 296.191 4.768C296.879 4.768 297.435 5.06 297.859 5.644C298.131 6.028 298.295 6.544 298.351 7.192H294.751V7.708C294.751 8.14 294.863 8.544 295.087 8.92C295.399 9.44 295.859 9.7 296.467 9.7C297.027 9.7 297.607 9.42 298.207 8.86L298.447 9.04ZM297.355 6.808C297.339 5.656 296.947 5.08 296.179 5.08C295.843 5.08 295.551 5.208 295.303 5.464C294.999 5.776 294.831 6.224 294.799 6.808H297.355ZM302.947 5.308C302.947 5.636 302.755 5.8 302.371 5.8C302.251 5.8 302.099 5.756 301.915 5.668C301.731 5.588 301.603 5.548 301.531 5.548C301.323 5.548 301.083 5.696 300.811 5.992C300.563 6.256 300.439 6.444 300.439 6.556V8.932C300.439 9.268 300.515 9.484 300.667 9.58C300.779 9.652 301.039 9.692 301.447 9.7V10H298.759V9.7C299.071 9.692 299.283 9.656 299.395 9.592C299.547 9.504 299.623 9.324 299.623 9.052V6.232C299.623 5.792 299.335 5.56 298.759 5.536V5.248L300.271 4.768H300.439V6.04H300.463C301.111 5.192 301.723 4.768 302.299 4.768C302.731 4.768 302.947 4.948 302.947 5.308ZM305.362 2.608C305.362 2.768 305.302 2.9 305.182 3.004C305.062 3.108 304.914 3.16 304.738 3.16C304.562 3.16 304.414 3.104 304.294 2.992C304.174 2.888 304.114 2.76 304.114 2.608C304.114 2.416 304.198 2.268 304.366 2.164C304.494 2.084 304.63 2.044 304.774 2.044C304.918 2.044 305.054 2.096 305.182 2.2C305.302 2.304 305.362 2.44 305.362 2.608ZM306.046 10H303.598V9.7C303.91 9.692 304.122 9.64 304.234 9.544C304.346 9.456 304.402 9.24 304.402 8.896V6.148C304.402 5.772 304.102 5.572 303.502 5.548V5.248L305.05 4.768H305.218V9.16C305.218 9.496 305.494 9.676 306.046 9.7V10ZM310.075 9.328C309.715 9.888 309.247 10.168 308.671 10.168C307.879 10.168 307.483 9.7 307.483 8.764V5.332H306.619V5.02C307.475 4.764 307.927 4.116 307.975 3.076H308.299V4.948H310.039V5.332H308.299V8.704C308.299 9.368 308.531 9.7 308.995 9.7C309.299 9.7 309.599 9.536 309.895 9.208L310.075 9.328ZM316.609 2.608C316.609 2.768 316.549 2.9 316.429 3.004C316.309 3.108 316.161 3.16 315.985 3.16C315.809 3.16 315.661 3.104 315.541 2.992C315.421 2.888 315.361 2.76 315.361 2.608C315.361 2.416 315.445 2.268 315.613 2.164C315.741 2.084 315.877 2.044 316.021 2.044C316.165 2.044 316.301 2.096 316.429 2.2C316.549 2.304 316.609 2.44 316.609 2.608ZM317.293 10H314.845V9.7C315.157 9.692 315.369 9.64 315.481 9.544C315.593 9.456 315.649 9.24 315.649 8.896V6.148C315.649 5.772 315.349 5.572 314.749 5.548V5.248L316.297 4.768H316.465V9.16C316.465 9.496 316.741 9.676 317.293 9.7V10ZM323.746 10H321.31V9.7C321.614 9.684 321.818 9.64 321.922 9.568C322.058 9.48 322.126 9.308 322.126 9.052V6.652C322.126 5.764 321.79 5.32 321.118 5.32C320.646 5.32 320.114 5.584 319.522 6.112V9.052C319.522 9.316 319.606 9.496 319.774 9.592C319.894 9.656 320.094 9.692 320.374 9.7V10H317.938V9.7C318.218 9.684 318.418 9.636 318.538 9.556C318.65 9.476 318.706 9.308 318.706 9.052V6.268C318.706 5.812 318.402 5.572 317.794 5.548V5.248L319.354 4.768H319.522V5.752C320.258 5.096 320.91 4.768 321.478 4.768C322.454 4.768 322.942 5.396 322.942 6.652V8.956C322.942 9.252 323.006 9.452 323.134 9.556C323.238 9.636 323.442 9.684 323.746 9.7V10ZM334.011 7.42C334.011 8.316 333.747 9.016 333.219 9.52C332.763 9.952 332.219 10.168 331.587 10.168C330.987 10.168 330.431 9.936 329.919 9.472V10.924C329.919 11.26 329.987 11.472 330.123 11.56C330.227 11.632 330.471 11.672 330.855 11.68V11.98H328.299V11.68C328.595 11.672 328.795 11.636 328.899 11.572C329.035 11.484 329.103 11.3 329.103 11.02V6.172C329.103 5.78 328.803 5.572 328.203 5.548V5.272L329.751 4.768H329.919V5.548C330.519 5.028 331.095 4.768 331.647 4.768C332.215 4.768 332.719 4.96 333.159 5.344C333.727 5.832 334.011 6.524 334.011 7.42ZM333.039 7.432C333.039 6.92 332.943 6.472 332.751 6.088C332.479 5.528 332.035 5.248 331.419 5.248C330.931 5.248 330.431 5.472 329.919 5.92V9.148C330.447 9.532 330.927 9.724 331.359 9.724C332.071 9.724 332.563 9.384 332.835 8.704C332.971 8.344 333.039 7.92 333.039 7.432ZM339.909 7.516C339.909 8.252 339.661 8.88 339.165 9.4C338.669 9.912 338.057 10.168 337.329 10.168C336.601 10.168 335.985 9.888 335.481 9.328C335.009 8.8 334.773 8.184 334.773 7.48C334.773 6.776 335.005 6.156 335.469 5.62C335.965 5.052 336.577 4.768 337.305 4.768C338.057 4.768 338.685 5.052 339.189 5.62C339.669 6.156 339.909 6.788 339.909 7.516ZM338.937 7.528C338.937 6.84 338.821 6.28 338.589 5.848C338.309 5.336 337.893 5.08 337.341 5.08C336.821 5.08 336.425 5.296 336.153 5.728C335.881 6.16 335.745 6.736 335.745 7.456C335.745 8.152 335.865 8.712 336.105 9.136C336.385 9.624 336.797 9.868 337.341 9.868C337.869 9.868 338.273 9.644 338.553 9.196C338.809 8.788 338.937 8.232 338.937 7.528ZM344.562 5.308C344.562 5.636 344.37 5.8 343.986 5.8C343.866 5.8 343.714 5.756 343.53 5.668C343.346 5.588 343.218 5.548 343.146 5.548C342.938 5.548 342.698 5.696 342.426 5.992C342.178 6.256 342.054 6.444 342.054 6.556V8.932C342.054 9.268 342.13 9.484 342.282 9.58C342.394 9.652 342.654 9.692 343.062 9.7V10H340.374V9.7C340.686 9.692 340.898 9.656 341.01 9.592C341.162 9.504 341.238 9.324 341.238 9.052V6.232C341.238 5.792 340.95 5.56 340.374 5.536V5.248L341.886 4.768H342.054V6.04H342.078C342.726 5.192 343.338 4.768 343.914 4.768C344.346 4.768 344.562 4.948 344.562 5.308ZM348.453 9.328C348.093 9.888 347.625 10.168 347.049 10.168C346.257 10.168 345.861 9.7 345.861 8.764V5.332H344.997V5.02C345.853 4.764 346.305 4.116 346.353 3.076H346.677V4.948H348.417V5.332H346.677V8.704C346.677 9.368 346.909 9.7 347.373 9.7C347.677 9.7 347.977 9.536 348.273 9.208L348.453 9.328ZM352.335 9.328C351.975 9.888 351.507 10.168 350.931 10.168C350.139 10.168 349.743 9.7 349.743 8.764V5.332H348.879V5.02C349.735 4.764 350.187 4.116 350.235 3.076H350.559V4.948H352.299V5.332H350.559V8.704C350.559 9.368 350.791 9.7 351.255 9.7C351.559 9.7 351.859 9.536 352.155 9.208L352.335 9.328ZM354.741 2.608C354.741 2.768 354.681 2.9 354.561 3.004C354.441 3.108 354.293 3.16 354.117 3.16C353.941 3.16 353.793 3.104 353.673 2.992C353.553 2.888 353.493 2.76 353.493 2.608C353.493 2.416 353.577 2.268 353.745 2.164C353.873 2.084 354.009 2.044 354.153 2.044C354.297 2.044 354.433 2.096 354.561 2.2C354.681 2.304 354.741 2.44 354.741 2.608ZM355.425 10H352.977V9.7C353.289 9.692 353.501 9.64 353.613 9.544C353.725 9.456 353.781 9.24 353.781 8.896V6.148C353.781 5.772 353.481 5.572 352.881 5.548V5.248L354.429 4.768H354.597V9.16C354.597 9.496 354.873 9.676 355.425 9.7V10ZM359.454 9.328C359.094 9.888 358.626 10.168 358.05 10.168C357.258 10.168 356.862 9.7 356.862 8.764V5.332H355.998V5.02C356.854 4.764 357.306 4.116 357.354 3.076H357.678V4.948H359.418V5.332H357.678V8.704C357.678 9.368 357.91 9.7 358.374 9.7C358.678 9.7 358.978 9.536 359.274 9.208L359.454 9.328ZM365.039 7.516C365.039 8.252 364.791 8.88 364.295 9.4C363.799 9.912 363.187 10.168 362.459 10.168C361.731 10.168 361.115 9.888 360.611 9.328C360.139 8.8 359.903 8.184 359.903 7.48C359.903 6.776 360.135 6.156 360.599 5.62C361.095 5.052 361.707 4.768 362.435 4.768C363.187 4.768 363.815 5.052 364.319 5.62C364.799 6.156 365.039 6.788 365.039 7.516ZM364.067 7.528C364.067 6.84 363.951 6.28 363.719 5.848C363.439 5.336 363.023 5.08 362.471 5.08C361.951 5.08 361.555 5.296 361.283 5.728C361.011 6.16 360.875 6.736 360.875 7.456C360.875 8.152 360.995 8.712 361.235 9.136C361.515 9.624 361.927 9.868 362.471 9.868C362.999 9.868 363.403 9.644 363.683 9.196C363.939 8.788 364.067 8.232 364.067 7.528ZM369.692 5.308C369.692 5.636 369.5 5.8 369.116 5.8C368.996 5.8 368.844 5.756 368.66 5.668C368.476 5.588 368.348 5.548 368.276 5.548C368.068 5.548 367.828 5.696 367.556 5.992C367.308 6.256 367.184 6.444 367.184 6.556V8.932C367.184 9.268 367.26 9.484 367.412 9.58C367.524 9.652 367.784 9.692 368.192 9.7V10H365.504V9.7C365.816 9.692 366.028 9.656 366.14 9.592C366.292 9.504 366.368 9.324 366.368 9.052V6.232C366.368 5.792 366.08 5.56 365.504 5.536V5.248L367.016 4.768H367.184V6.04H367.208C367.856 5.192 368.468 4.768 369.044 4.768C369.476 4.768 369.692 4.948 369.692 5.308ZM380.171 10H379.619C379.259 10 378.955 10.036 378.707 10.108H378.539V9.184C377.827 9.84 377.159 10.168 376.535 10.168C376.079 10.168 375.707 10.02 375.419 9.724C375.139 9.428 374.999 9.036 374.999 8.548V5.956C374.999 5.652 374.719 5.488 374.159 5.464V5.164L375.647 4.768H375.815V8.32C375.815 8.736 375.915 9.06 376.115 9.292C376.315 9.516 376.571 9.628 376.883 9.628C377.435 9.628 377.987 9.348 378.539 8.788V6.016C378.539 5.776 378.443 5.616 378.251 5.536C378.131 5.496 377.899 5.472 377.555 5.464V5.164L379.187 4.768H379.355V9.184C379.355 9.512 379.627 9.684 380.171 9.7V10ZM383.273 10H380.825V9.7C381.129 9.692 381.333 9.656 381.437 9.592C381.597 9.504 381.677 9.324 381.677 9.052V3.472C381.677 3.056 381.369 2.848 380.753 2.848V2.548L382.325 2.044H382.493V9.112C382.493 9.352 382.573 9.516 382.733 9.604C382.837 9.66 383.017 9.692 383.273 9.7V10ZM387.326 9.328C386.966 9.888 386.498 10.168 385.922 10.168C385.13 10.168 384.734 9.7 384.734 8.764V5.332H383.87V5.02C384.726 4.764 385.178 4.116 385.226 3.076H385.55V4.948H387.29V5.332H385.55V8.704C385.55 9.368 385.782 9.7 386.246 9.7C386.55 9.7 386.85 9.536 387.146 9.208L387.326 9.328ZM391.82 5.308C391.82 5.636 391.628 5.8 391.244 5.8C391.124 5.8 390.972 5.756 390.788 5.668C390.604 5.588 390.476 5.548 390.404 5.548C390.196 5.548 389.956 5.696 389.684 5.992C389.436 6.256 389.312 6.444 389.312 6.556V8.932C389.312 9.268 389.388 9.484 389.54 9.58C389.652 9.652 389.912 9.692 390.32 9.7V10H387.632V9.7C387.944 9.692 388.156 9.656 388.268 9.592C388.42 9.504 388.496 9.324 388.496 9.052V6.232C388.496 5.792 388.208 5.56 387.632 5.536V5.248L389.144 4.768H389.312V6.04H389.336C389.984 5.192 390.596 4.768 391.172 4.768C391.604 4.768 391.82 4.948 391.82 5.308ZM394.235 2.608C394.235 2.768 394.175 2.9 394.055 3.004C393.935 3.108 393.787 3.16 393.611 3.16C393.435 3.16 393.287 3.104 393.167 2.992C393.047 2.888 392.987 2.76 392.987 2.608C392.987 2.416 393.071 2.268 393.239 2.164C393.367 2.084 393.503 2.044 393.647 2.044C393.791 2.044 393.927 2.096 394.055 2.2C394.175 2.304 394.235 2.44 394.235 2.608ZM394.919 10H392.471V9.7C392.783 9.692 392.995 9.64 393.107 9.544C393.219 9.456 393.275 9.24 393.275 8.896V6.148C393.275 5.772 392.975 5.572 392.375 5.548V5.248L393.923 4.768H394.091V9.16C394.091 9.496 394.367 9.676 394.919 9.7V10ZM400.208 8.932C399.608 9.756 398.868 10.168 397.988 10.168C397.14 10.168 396.5 9.88 396.068 9.304C395.716 8.84 395.54 8.288 395.54 7.648C395.54 6.864 395.788 6.196 396.284 5.644C396.812 5.06 397.476 4.768 398.276 4.768C398.74 4.768 399.164 4.868 399.548 5.068C399.924 5.26 400.112 5.496 400.112 5.776C400.112 6.104 399.928 6.268 399.56 6.268C399.248 6.268 399.036 6.084 398.924 5.716C398.796 5.292 398.532 5.08 398.132 5.08C397.572 5.08 397.148 5.344 396.86 5.872C396.628 6.296 396.512 6.792 396.512 7.36C396.512 7.936 396.616 8.424 396.824 8.824C397.12 9.408 397.596 9.7 398.252 9.7C398.796 9.7 399.38 9.388 400.004 8.764L400.208 8.932ZM405.308 9.04C405.012 9.376 404.752 9.616 404.528 9.76C404.104 10.032 403.612 10.168 403.052 10.168C402.204 10.168 401.568 9.872 401.144 9.28C400.808 8.824 400.64 8.276 400.64 7.636C400.64 6.86 400.876 6.188 401.348 5.62C401.812 5.052 402.38 4.768 403.052 4.768C403.74 4.768 404.296 5.06 404.72 5.644C404.992 6.028 405.156 6.544 405.212 7.192H401.612V7.708C401.612 8.14 401.724 8.544 401.948 8.92C402.26 9.44 402.72 9.7 403.328 9.7C403.888 9.7 404.468 9.42 405.068 8.86L405.308 9.04ZM404.216 6.808C404.2 5.656 403.808 5.08 403.04 5.08C402.704 5.08 402.412 5.208 402.164 5.464C401.86 5.776 401.692 6.224 401.66 6.808H404.216ZM410.228 8.632C410.228 9.064 410.056 9.428 409.712 9.724C409.368 10.02 408.94 10.168 408.428 10.168C408.212 10.168 407.94 10.124 407.612 10.036C407.348 9.964 407.18 9.928 407.108 9.928C406.86 9.928 406.616 10.008 406.376 10.168L405.68 8.464L405.98 8.356C406.364 8.788 406.692 9.104 406.964 9.304C407.46 9.68 407.964 9.868 408.476 9.868C408.78 9.868 409.048 9.776 409.28 9.592C409.512 9.408 409.628 9.172 409.628 8.884C409.628 8.58 409.492 8.356 409.22 8.212C409.044 8.116 408.58 7.976 407.828 7.792C407.268 7.648 406.852 7.492 406.58 7.324C406.124 7.044 405.896 6.66 405.896 6.172C405.896 5.756 406.052 5.416 406.364 5.152C406.668 4.896 407.048 4.768 407.504 4.768C407.672 4.768 407.896 4.808 408.176 4.888C408.448 4.96 408.644 4.996 408.764 4.996C408.996 4.996 409.204 4.92 409.388 4.768L410.06 6.34L409.736 6.436C408.968 5.532 408.224 5.08 407.504 5.08C407.192 5.08 406.936 5.16 406.736 5.32C406.544 5.48 406.448 5.676 406.448 5.908C406.448 6.132 406.556 6.316 406.772 6.46C407.028 6.644 407.496 6.816 408.176 6.976C408.808 7.128 409.264 7.292 409.544 7.468C410 7.748 410.228 8.136 410.228 8.632ZM416.971 2.608C416.971 2.768 416.911 2.9 416.791 3.004C416.671 3.108 416.523 3.16 416.347 3.16C416.171 3.16 416.023 3.104 415.903 2.992C415.783 2.888 415.723 2.76 415.723 2.608C415.723 2.416 415.807 2.268 415.975 2.164C416.103 2.084 416.239 2.044 416.383 2.044C416.527 2.044 416.663 2.096 416.791 2.2C416.911 2.304 416.971 2.44 416.971 2.608ZM417.655 10H415.207V9.7C415.519 9.692 415.731 9.64 415.843 9.544C415.955 9.456 416.011 9.24 416.011 8.896V6.148C416.011 5.772 415.711 5.572 415.111 5.548V5.248L416.659 4.768H416.827V9.16C416.827 9.496 417.103 9.676 417.655 9.7V10ZM424.133 10H423.557C423.357 10 423.065 10.024 422.681 10.072H422.525V9.448C422.189 9.712 421.941 9.884 421.781 9.964C421.501 10.1 421.189 10.168 420.845 10.168C420.157 10.168 419.589 9.932 419.141 9.46C418.669 8.964 418.433 8.304 418.433 7.48C418.433 6.568 418.729 5.86 419.321 5.356C419.777 4.964 420.281 4.768 420.833 4.768C421.441 4.768 422.005 5 422.525 5.464V3.436C422.525 3.028 422.165 2.824 421.445 2.824V2.5L423.173 2.044H423.341V9.088C423.341 9.336 423.421 9.504 423.581 9.592C423.685 9.656 423.869 9.692 424.133 9.7V10ZM422.525 9.1V5.8C421.981 5.416 421.497 5.224 421.073 5.224C420.385 5.224 419.905 5.56 419.633 6.232C419.481 6.608 419.405 7.052 419.405 7.564C419.405 8.188 419.557 8.7 419.861 9.1C420.157 9.5 420.545 9.7 421.025 9.7C421.505 9.7 422.005 9.5 422.525 9.1ZM434.638 10H434.062C433.862 10 433.57 10.024 433.186 10.072H433.03V9.448C432.694 9.712 432.446 9.884 432.286 9.964C432.006 10.1 431.694 10.168 431.35 10.168C430.662 10.168 430.094 9.932 429.646 9.46C429.174 8.964 428.938 8.304 428.938 7.48C428.938 6.568 429.234 5.86 429.826 5.356C430.282 4.964 430.786 4.768 431.338 4.768C431.946 4.768 432.51 5 433.03 5.464V3.436C433.03 3.028 432.67 2.824 431.95 2.824V2.5L433.678 2.044H433.846V9.088C433.846 9.336 433.926 9.504 434.086 9.592C434.19 9.656 434.374 9.692 434.638 9.7V10ZM433.03 9.1V5.8C432.486 5.416 432.002 5.224 431.578 5.224C430.89 5.224 430.41 5.56 430.138 6.232C429.986 6.608 429.91 7.052 429.91 7.564C429.91 8.188 430.062 8.7 430.366 9.1C430.662 9.5 431.05 9.7 431.53 9.7C432.01 9.7 432.51 9.5 433.03 9.1ZM437.092 2.608C437.092 2.768 437.032 2.9 436.912 3.004C436.792 3.108 436.644 3.16 436.468 3.16C436.292 3.16 436.144 3.104 436.024 2.992C435.904 2.888 435.844 2.76 435.844 2.608C435.844 2.416 435.928 2.268 436.096 2.164C436.224 2.084 436.36 2.044 436.504 2.044C436.648 2.044 436.784 2.096 436.912 2.2C437.032 2.304 437.092 2.44 437.092 2.608ZM437.776 10H435.328V9.7C435.64 9.692 435.852 9.64 435.964 9.544C436.076 9.456 436.132 9.24 436.132 8.896V6.148C436.132 5.772 435.832 5.572 435.232 5.548V5.248L436.78 4.768H436.948V9.16C436.948 9.496 437.224 9.676 437.776 9.7V10ZM443.593 9.556C443.425 9.964 443.109 10.168 442.645 10.168C442.365 10.168 442.157 10.096 442.021 9.952C441.925 9.848 441.845 9.668 441.781 9.412C441.317 9.708 440.981 9.9 440.773 9.988C440.477 10.108 440.149 10.168 439.789 10.168C439.365 10.168 439.013 10.056 438.733 9.832C438.453 9.608 438.313 9.324 438.313 8.98C438.313 8.412 438.713 7.936 439.513 7.552C440.033 7.312 440.789 7.092 441.781 6.892V6.172C441.781 5.444 441.441 5.08 440.761 5.08C440.465 5.08 440.245 5.136 440.101 5.248C439.957 5.352 439.829 5.536 439.717 5.8C439.573 6.152 439.361 6.328 439.081 6.328C438.897 6.328 438.753 6.272 438.649 6.16C438.553 6.048 438.505 5.928 438.505 5.8C438.505 5.552 438.705 5.324 439.105 5.116C439.537 4.884 440.061 4.768 440.677 4.768C441.957 4.768 442.597 5.18 442.597 6.004V9.076C442.597 9.468 442.721 9.664 442.969 9.664C443.129 9.664 443.261 9.588 443.365 9.436L443.593 9.556ZM441.781 9.052V7.168C441.109 7.304 440.545 7.512 440.089 7.792C439.553 8.12 439.285 8.488 439.285 8.896C439.285 9.16 439.377 9.368 439.561 9.52C439.721 9.656 439.925 9.724 440.173 9.724C440.629 9.724 441.165 9.5 441.781 9.052ZM453.118 10H450.682V9.7C450.986 9.692 451.19 9.652 451.294 9.58C451.438 9.476 451.51 9.276 451.51 8.98V6.772C451.51 5.804 451.194 5.32 450.562 5.32C450.058 5.32 449.546 5.58 449.026 6.1V9.004C449.026 9.284 449.098 9.472 449.242 9.568C449.346 9.64 449.546 9.684 449.842 9.7V10H447.394V9.7C447.69 9.684 447.902 9.636 448.03 9.556C448.15 9.484 448.21 9.316 448.21 9.052V6.652C448.21 5.764 447.87 5.32 447.19 5.32C446.774 5.32 446.286 5.58 445.726 6.1V9.004C445.726 9.284 445.794 9.472 445.93 9.568C446.042 9.64 446.25 9.684 446.554 9.7V10H444.094V9.7C444.398 9.692 444.602 9.648 444.706 9.568C444.842 9.472 444.91 9.276 444.91 8.98V6.292C444.91 6.004 444.826 5.804 444.658 5.692C444.53 5.612 444.314 5.564 444.01 5.548V5.248L445.558 4.768H445.726V5.728C446.422 5.088 447.058 4.768 447.634 4.768C448.298 4.768 448.742 5.108 448.966 5.788C449.334 5.452 449.634 5.216 449.866 5.08C450.218 4.872 450.582 4.768 450.958 4.768C451.87 4.768 452.326 5.332 452.326 6.46V8.98C452.326 9.276 452.394 9.476 452.53 9.58C452.634 9.652 452.83 9.692 453.118 9.7V10ZM463.621 10H463.045C462.845 10 462.553 10.024 462.169 10.072H462.013V9.448C461.677 9.712 461.429 9.884 461.269 9.964C460.989 10.1 460.677 10.168 460.333 10.168C459.645 10.168 459.077 9.932 458.629 9.46C458.157 8.964 457.921 8.304 457.921 7.48C457.921 6.568 458.217 5.86 458.809 5.356C459.265 4.964 459.769 4.768 460.321 4.768C460.929 4.768 461.493 5 462.013 5.464V3.436C462.013 3.028 461.653 2.824 460.933 2.824V2.5L462.661 2.044H462.829V9.088C462.829 9.336 462.909 9.504 463.069 9.592C463.173 9.656 463.357 9.692 463.621 9.7V10ZM462.013 9.1V5.8C461.469 5.416 460.985 5.224 460.561 5.224C459.873 5.224 459.393 5.56 459.121 6.232C458.969 6.608 458.893 7.052 458.893 7.564C458.893 8.188 459.045 8.7 459.349 9.1C459.645 9.5 460.033 9.7 460.513 9.7C460.993 9.7 461.493 9.5 462.013 9.1ZM469.255 7.516C469.255 8.252 469.007 8.88 468.511 9.4C468.015 9.912 467.403 10.168 466.675 10.168C465.947 10.168 465.331 9.888 464.827 9.328C464.355 8.8 464.119 8.184 464.119 7.48C464.119 6.776 464.351 6.156 464.815 5.62C465.311 5.052 465.923 4.768 466.651 4.768C467.403 4.768 468.031 5.052 468.535 5.62C469.015 6.156 469.255 6.788 469.255 7.516ZM468.283 7.528C468.283 6.84 468.167 6.28 467.935 5.848C467.655 5.336 467.239 5.08 466.687 5.08C466.167 5.08 465.771 5.296 465.499 5.728C465.227 6.16 465.091 6.736 465.091 7.456C465.091 8.152 465.211 8.712 465.451 9.136C465.731 9.624 466.143 9.868 466.687 9.868C467.215 9.868 467.619 9.644 467.899 9.196C468.155 8.788 468.283 8.232 468.283 7.528ZM472.48 10H470.032V9.7C470.336 9.692 470.54 9.656 470.644 9.592C470.804 9.504 470.884 9.324 470.884 9.052V3.472C470.884 3.056 470.576 2.848 469.96 2.848V2.548L471.532 2.044H471.7V9.112C471.7 9.352 471.78 9.516 471.94 9.604C472.044 9.66 472.224 9.692 472.48 9.7V10ZM478.237 7.516C478.237 8.252 477.989 8.88 477.493 9.4C476.997 9.912 476.385 10.168 475.657 10.168C474.929 10.168 474.313 9.888 473.809 9.328C473.337 8.8 473.101 8.184 473.101 7.48C473.101 6.776 473.333 6.156 473.797 5.62C474.293 5.052 474.905 4.768 475.633 4.768C476.385 4.768 477.013 5.052 477.517 5.62C477.997 6.156 478.237 6.788 478.237 7.516ZM477.265 7.528C477.265 6.84 477.149 6.28 476.917 5.848C476.637 5.336 476.221 5.08 475.669 5.08C475.149 5.08 474.753 5.296 474.481 5.728C474.209 6.16 474.073 6.736 474.073 7.456C474.073 8.152 474.193 8.712 474.433 9.136C474.713 9.624 475.125 9.868 475.669 9.868C476.197 9.868 476.601 9.644 476.881 9.196C477.137 8.788 477.265 8.232 477.265 7.528ZM482.89 5.308C482.89 5.636 482.698 5.8 482.314 5.8C482.194 5.8 482.042 5.756 481.858 5.668C481.674 5.588 481.546 5.548 481.474 5.548C481.266 5.548 481.026 5.696 480.754 5.992C480.506 6.256 480.382 6.444 480.382 6.556V8.932C480.382 9.268 480.458 9.484 480.61 9.58C480.722 9.652 480.982 9.692 481.39 9.7V10H478.702V9.7C479.014 9.692 479.226 9.656 479.338 9.592C479.49 9.504 479.566 9.324 479.566 9.052V6.232C479.566 5.792 479.278 5.56 478.702 5.536V5.248L480.214 4.768H480.382V6.04H480.406C481.054 5.192 481.666 4.768 482.242 4.768C482.674 4.768 482.89 4.948 482.89 5.308ZM489.433 2.608C489.433 2.768 489.373 2.9 489.253 3.004C489.133 3.108 488.985 3.16 488.809 3.16C488.633 3.16 488.485 3.104 488.365 2.992C488.245 2.888 488.185 2.76 488.185 2.608C488.185 2.416 488.269 2.268 488.437 2.164C488.565 2.084 488.701 2.044 488.845 2.044C488.989 2.044 489.125 2.096 489.253 2.2C489.373 2.304 489.433 2.44 489.433 2.608ZM490.117 10H487.669V9.7C487.981 9.692 488.193 9.64 488.305 9.544C488.417 9.456 488.473 9.24 488.473 8.896V6.148C488.473 5.772 488.173 5.572 487.573 5.548V5.248L489.121 4.768H489.289V9.16C489.289 9.496 489.565 9.676 490.117 9.7V10ZM496.594 10H496.018C495.818 10 495.526 10.024 495.142 10.072H494.986V9.448C494.65 9.712 494.402 9.884 494.242 9.964C493.962 10.1 493.65 10.168 493.306 10.168C492.618 10.168 492.05 9.932 491.602 9.46C491.13 8.964 490.894 8.304 490.894 7.48C490.894 6.568 491.19 5.86 491.782 5.356C492.238 4.964 492.742 4.768 493.294 4.768C493.902 4.768 494.466 5 494.986 5.464V3.436C494.986 3.028 494.626 2.824 493.906 2.824V2.5L495.634 2.044H495.802V9.088C495.802 9.336 495.882 9.504 496.042 9.592C496.146 9.656 496.33 9.692 496.594 9.7V10ZM494.986 9.1V5.8C494.442 5.416 493.958 5.224 493.534 5.224C492.846 5.224 492.366 5.56 492.094 6.232C491.942 6.608 491.866 7.052 491.866 7.564C491.866 8.188 492.018 8.7 492.322 9.1C492.618 9.5 493.006 9.7 493.486 9.7C493.966 9.7 494.466 9.5 494.986 9.1ZM498.052 10.288C498.004 10.288 497.932 10.264 497.836 10.216C497.74 10.168 497.652 10.108 497.572 10.036C497.492 9.972 497.452 9.912 497.452 9.856C497.452 9.784 497.508 9.704 497.62 9.616C497.732 9.528 497.852 9.452 497.98 9.388C498.116 9.316 498.212 9.28 498.268 9.28C498.3 9.28 498.328 9.292 498.352 9.316C498.384 9.332 498.4 9.356 498.4 9.388C498.4 9.412 498.396 9.428 498.388 9.436C498.292 9.556 498.228 9.688 498.196 9.832C498.188 9.864 498.184 9.92 498.184 10C498.184 10.072 498.176 10.136 498.16 10.192C498.144 10.256 498.108 10.288 498.052 10.288ZM499.542 10.276C499.526 10.276 499.494 10.268 499.446 10.252C499.398 10.236 499.374 10.212 499.374 10.18C499.374 10.148 499.402 10.124 499.458 10.108C499.522 10.1 499.558 10.096 499.566 10.096C499.734 10.072 499.898 10.044 500.058 10.012C500.218 9.988 500.374 9.948 500.526 9.892C500.95 9.748 501.354 9.54 501.738 9.268C502.122 8.988 502.47 8.672 502.782 8.32C503.102 7.96 503.362 7.584 503.562 7.192C503.698 6.936 503.81 6.668 503.898 6.388C503.994 6.1 504.042 5.808 504.042 5.512C504.042 5.232 503.978 4.972 503.85 4.732C503.73 4.492 503.53 4.32 503.25 4.216C503.13 4.176 502.994 4.148 502.842 4.132C502.826 4.124 502.79 4.116 502.734 4.108C502.686 4.092 502.662 4.068 502.662 4.036C502.662 3.996 502.69 3.968 502.746 3.952C502.81 3.936 502.854 3.928 502.878 3.928H502.926C503.254 3.944 503.534 4.048 503.766 4.24C503.998 4.424 504.174 4.66 504.294 4.948C504.422 5.228 504.486 5.528 504.486 5.848C504.486 6.08 504.454 6.312 504.39 6.544C504.334 6.776 504.258 6.996 504.162 7.204C503.994 7.564 503.762 7.908 503.466 8.236C503.17 8.556 502.834 8.848 502.458 9.112C502.09 9.376 501.706 9.604 501.306 9.796C500.906 9.98 500.518 10.112 500.142 10.192C500.046 10.208 499.946 10.224 499.842 10.24C499.738 10.264 499.638 10.276 499.542 10.276Z" fill="#FF33BA"/>
</svg>
