<svg width="66" height="10" viewBox="0 0 66 10" fill="none" xmlns="http://www.w3.org/2000/svg">
<path d="M2 2.18C2.312 2.18 2.592 2.304 2.84 2.552C3.056 2.776 3.164 3.06 3.164 3.404C3.164 3.716 3.056 3.996 2.84 4.244C2.592 4.492 2.312 4.616 2 4.616C1.624 4.616 1.328 4.492 1.112 4.244C0.888 3.996 0.776 3.716 0.776 3.404C0.776 3.028 0.9 2.712 1.148 2.456C1.372 2.272 1.656 2.18 2 2.18ZM19.616 8H16.28V7.7C16.616 7.692 16.852 7.668 16.988 7.628C17.228 7.556 17.348 7.42 17.348 7.22C17.348 7.228 17.324 7.112 17.276 6.872L16.664 5.228H13.52L13.04 6.572C12.968 6.772 12.932 6.952 12.932 7.112C12.932 7.48 13.292 7.676 14.012 7.7V8H11.132V7.7C11.452 7.692 11.696 7.644 11.864 7.556C12.16 7.404 12.388 7.108 12.548 6.668L14.912 0.211999L15.824 -0.00400066L18.272 6.74C18.416 7.148 18.604 7.416 18.836 7.544C18.996 7.632 19.256 7.684 19.616 7.7V8ZM16.532 4.832L15.116 0.883999H15.092L13.664 4.832H16.532ZM25.9822 8H25.4062C25.2062 8 24.9142 8.024 24.5302 8.072H24.3742V7.448C24.0382 7.712 23.7902 7.884 23.6302 7.964C23.3502 8.1 23.0382 8.168 22.6942 8.168C22.0062 8.168 21.4382 7.932 20.9902 7.46C20.5182 6.964 20.2822 6.304 20.2822 5.48C20.2822 4.568 20.5782 3.86 21.1702 3.356C21.6262 2.964 22.1302 2.768 22.6822 2.768C23.2902 2.768 23.8542 3 24.3742 3.464V1.436C24.3742 1.028 24.0142 0.823999 23.2942 0.823999V0.5L25.0222 0.0439994H25.1902V7.088C25.1902 7.336 25.2702 7.504 25.4302 7.592C25.5342 7.656 25.7182 7.692 25.9822 7.7V8ZM24.3742 7.1V3.8C23.8302 3.416 23.3462 3.224 22.9222 3.224C22.2342 3.224 21.7542 3.56 21.4822 4.232C21.3302 4.608 21.2542 5.052 21.2542 5.564C21.2542 6.188 21.4062 6.7 21.7102 7.1C22.0062 7.5 22.3942 7.7 22.8742 7.7C23.3542 7.7 23.8542 7.5 24.3742 7.1ZM28.436 0.607999C28.436 0.768 28.376 0.9 28.256 1.004C28.136 1.108 27.988 1.16 27.812 1.16C27.636 1.16 27.488 1.104 27.368 0.991999C27.248 0.888 27.188 0.76 27.188 0.607999C27.188 0.415999 27.272 0.267999 27.44 0.163999C27.568 0.0839994 27.704 0.0439994 27.848 0.0439994C27.992 0.0439994 28.128 0.0959995 28.256 0.2C28.376 0.304 28.436 0.44 28.436 0.607999ZM29.12 8H26.672V7.7C26.984 7.692 27.196 7.64 27.308 7.544C27.42 7.456 27.476 7.24 27.476 6.896V4.148C27.476 3.772 27.176 3.572 26.576 3.548V3.248L28.124 2.768H28.292V7.16C28.292 7.496 28.568 7.676 29.12 7.7V8ZM35.3332 5.42C35.3332 6.316 35.0692 7.016 34.5412 7.52C34.0852 7.952 33.5412 8.168 32.9092 8.168C32.3092 8.168 31.7532 7.936 31.2412 7.472V8.924C31.2412 9.26 31.3092 9.472 31.4452 9.56C31.5492 9.632 31.7932 9.672 32.1772 9.68V9.98H29.6212V9.68C29.9172 9.672 30.1172 9.636 30.2212 9.572C30.3572 9.484 30.4252 9.3 30.4252 9.02V4.172C30.4252 3.78 30.1252 3.572 29.5252 3.548V3.272L31.0732 2.768H31.2412V3.548C31.8412 3.028 32.4172 2.768 32.9692 2.768C33.5372 2.768 34.0412 2.96 34.4812 3.344C35.0492 3.832 35.3332 4.524 35.3332 5.42ZM34.3612 5.432C34.3612 4.92 34.2652 4.472 34.0732 4.088C33.8012 3.528 33.3572 3.248 32.7412 3.248C32.2532 3.248 31.7532 3.472 31.2412 3.92V7.148C31.7692 7.532 32.2492 7.724 32.6812 7.724C33.3932 7.724 33.8852 7.384 34.1572 6.704C34.2932 6.344 34.3612 5.92 34.3612 5.432ZM38.051 0.607999C38.051 0.768 37.991 0.9 37.871 1.004C37.751 1.108 37.603 1.16 37.427 1.16C37.251 1.16 37.103 1.104 36.983 0.991999C36.863 0.888 36.803 0.76 36.803 0.607999C36.803 0.415999 36.887 0.267999 37.055 0.163999C37.183 0.0839994 37.319 0.0439994 37.463 0.0439994C37.607 0.0439994 37.743 0.0959995 37.871 0.2C37.991 0.304 38.051 0.44 38.051 0.607999ZM38.735 8H36.287V7.7C36.599 7.692 36.811 7.64 36.923 7.544C37.035 7.456 37.091 7.24 37.091 6.896V4.148C37.091 3.772 36.791 3.572 36.191 3.548V3.248L37.739 2.768H37.907V7.16C37.907 7.496 38.183 7.676 38.735 7.7V8ZM43.7962 6.632C43.7962 7.064 43.6242 7.428 43.2802 7.724C42.9362 8.02 42.5082 8.168 41.9962 8.168C41.7802 8.168 41.5082 8.124 41.1802 8.036C40.9162 7.964 40.7482 7.928 40.6762 7.928C40.4282 7.928 40.1842 8.008 39.9442 8.168L39.2482 6.464L39.5482 6.356C39.9322 6.788 40.2602 7.104 40.5322 7.304C41.0282 7.68 41.5322 7.868 42.0442 7.868C42.3482 7.868 42.6162 7.776 42.8482 7.592C43.0802 7.408 43.1962 7.172 43.1962 6.884C43.1962 6.58 43.0602 6.356 42.7882 6.212C42.6122 6.116 42.1482 5.976 41.3962 5.792C40.8362 5.648 40.4202 5.492 40.1482 5.324C39.6922 5.044 39.4642 4.66 39.4642 4.172C39.4642 3.756 39.6202 3.416 39.9322 3.152C40.2362 2.896 40.6162 2.768 41.0722 2.768C41.2402 2.768 41.4642 2.808 41.7442 2.888C42.0162 2.96 42.2122 2.996 42.3322 2.996C42.5642 2.996 42.7722 2.92 42.9562 2.768L43.6282 4.34L43.3042 4.436C42.5362 3.532 41.7922 3.08 41.0722 3.08C40.7602 3.08 40.5042 3.16 40.3042 3.32C40.1122 3.48 40.0162 3.676 40.0162 3.908C40.0162 4.132 40.1242 4.316 40.3402 4.46C40.5962 4.644 41.0642 4.816 41.7442 4.976C42.3762 5.128 42.8322 5.292 43.1122 5.468C43.5682 5.748 43.7962 6.136 43.7962 6.632ZM49.1481 6.932C48.5481 7.756 47.8081 8.168 46.9281 8.168C46.0801 8.168 45.4401 7.88 45.0081 7.304C44.6561 6.84 44.4801 6.288 44.4801 5.648C44.4801 4.864 44.7281 4.196 45.2241 3.644C45.7521 3.06 46.4161 2.768 47.2161 2.768C47.6801 2.768 48.1041 2.868 48.4881 3.068C48.8641 3.26 49.0521 3.496 49.0521 3.776C49.0521 4.104 48.8681 4.268 48.5001 4.268C48.1881 4.268 47.9761 4.084 47.8641 3.716C47.7361 3.292 47.4721 3.08 47.0721 3.08C46.5121 3.08 46.0881 3.344 45.8001 3.872C45.5681 4.296 45.4521 4.792 45.4521 5.36C45.4521 5.936 45.5561 6.424 45.7641 6.824C46.0601 7.408 46.5361 7.7 47.1921 7.7C47.7361 7.7 48.3201 7.388 48.9441 6.764L49.1481 6.932ZM51.536 0.607999C51.536 0.768 51.476 0.9 51.356 1.004C51.236 1.108 51.088 1.16 50.912 1.16C50.736 1.16 50.588 1.104 50.468 0.991999C50.348 0.888 50.288 0.76 50.288 0.607999C50.288 0.415999 50.372 0.267999 50.54 0.163999C50.668 0.0839994 50.804 0.0439994 50.948 0.0439994C51.092 0.0439994 51.228 0.0959995 51.356 0.2C51.476 0.304 51.536 0.44 51.536 0.607999ZM52.22 8H49.772V7.7C50.084 7.692 50.296 7.64 50.408 7.544C50.52 7.456 50.576 7.24 50.576 6.896V4.148C50.576 3.772 50.276 3.572 49.676 3.548V3.248L51.224 2.768H51.392V7.16C51.392 7.496 51.668 7.676 52.22 7.7V8ZM58.6732 8H56.2372V7.7C56.5412 7.684 56.7452 7.64 56.8492 7.568C56.9852 7.48 57.0532 7.308 57.0532 7.052V4.652C57.0532 3.764 56.7172 3.32 56.0452 3.32C55.5732 3.32 55.0412 3.584 54.4492 4.112V7.052C54.4492 7.316 54.5332 7.496 54.7012 7.592C54.8212 7.656 55.0212 7.692 55.3012 7.7V8H52.8652V7.7C53.1452 7.684 53.3452 7.636 53.4652 7.556C53.5772 7.476 53.6332 7.308 53.6332 7.052V4.268C53.6332 3.812 53.3292 3.572 52.7212 3.548V3.248L54.2812 2.768H54.4492V3.752C55.1852 3.096 55.8372 2.768 56.4052 2.768C57.3812 2.768 57.8692 3.396 57.8692 4.652V6.956C57.8692 7.252 57.9332 7.452 58.0612 7.556C58.1652 7.636 58.3692 7.684 58.6732 7.7V8ZM65.183 3.224C65.183 3.52 65.027 3.668 64.715 3.668C64.579 3.668 64.423 3.612 64.247 3.5C64.159 3.412 64.063 3.368 63.959 3.368C63.863 3.368 63.751 3.416 63.623 3.512C63.927 3.84 64.079 4.2 64.079 4.592C64.079 5.096 63.871 5.532 63.455 5.9C63.047 6.26 62.523 6.44 61.883 6.44C61.659 6.44 61.359 6.392 60.983 6.296C60.679 6.48 60.527 6.62 60.527 6.716C60.527 6.876 60.947 7.016 61.787 7.136C62.867 7.288 63.619 7.488 64.043 7.736C64.419 7.952 64.607 8.252 64.607 8.636C64.607 9.188 64.235 9.572 63.491 9.788C63.051 9.916 62.527 9.98 61.919 9.98C61.031 9.98 60.339 9.88 59.843 9.68C59.355 9.488 59.111 9.22 59.111 8.876C59.111 8.58 59.303 8.336 59.687 8.144C59.927 8.016 60.359 7.872 60.983 7.712V7.688C60.695 7.6 60.359 7.5 59.975 7.388C59.767 7.252 59.663 7.116 59.663 6.98C59.663 6.828 59.759 6.684 59.951 6.548C60.087 6.452 60.339 6.324 60.707 6.164C60.003 5.748 59.651 5.228 59.651 4.604C59.651 4.132 59.847 3.716 60.239 3.356C60.663 2.964 61.203 2.768 61.859 2.768C62.443 2.768 62.971 2.948 63.443 3.308C63.843 2.948 64.215 2.768 64.559 2.768C64.975 2.768 65.183 2.92 65.183 3.224ZM63.107 4.58C63.107 4.116 62.991 3.748 62.759 3.476C62.535 3.212 62.243 3.08 61.883 3.08C61.523 3.08 61.223 3.216 60.983 3.488C60.743 3.76 60.623 4.132 60.623 4.604C60.623 5.068 60.743 5.44 60.983 5.72C61.215 6 61.507 6.14 61.859 6.14C62.171 6.14 62.435 6.04 62.651 5.84C62.955 5.576 63.107 5.156 63.107 4.58ZM63.887 8.864C63.887 8.592 63.687 8.38 63.287 8.228C63.039 8.132 62.463 8 61.559 7.832C60.511 8.096 59.987 8.448 59.987 8.888C59.987 9.416 60.631 9.68 61.919 9.68C63.231 9.68 63.887 9.408 63.887 8.864Z" fill="#FF33BA"/>
</svg>
