<svg width="61" height="33" viewBox="0 0 61 33" fill="none" xmlns="http://www.w3.org/2000/svg">
<path d="M2 2.18C2.312 2.18 2.592 2.304 2.84 2.552C3.056 2.776 3.164 3.06 3.164 3.404C3.164 3.716 3.056 3.996 2.84 4.244C2.592 4.492 2.312 4.616 2 4.616C1.624 4.616 1.328 4.492 1.112 4.244C0.888 3.996 0.776 3.716 0.776 3.404C0.776 3.028 0.9 2.712 1.148 2.456C1.372 2.272 1.656 2.18 2 2.18ZM19.616 8H16.28V7.7C16.616 7.692 16.852 7.668 16.988 7.628C17.228 7.556 17.348 7.42 17.348 7.22C17.348 7.228 17.324 7.112 17.276 6.872L16.664 5.228H13.52L13.04 6.572C12.968 6.772 12.932 6.952 12.932 7.112C12.932 7.48 13.292 7.676 14.012 7.7V8H11.132V7.7C11.452 7.692 11.696 7.644 11.864 7.556C12.16 7.404 12.388 7.108 12.548 6.668L14.912 0.211999L15.824 -0.00400066L18.272 6.74C18.416 7.148 18.604 7.416 18.836 7.544C18.996 7.632 19.256 7.684 19.616 7.7V8ZM16.532 4.832L15.116 0.883999H15.092L13.664 4.832H16.532ZM25.9822 8H25.4062C25.2062 8 24.9142 8.024 24.5302 8.072H24.3742V7.448C24.0382 7.712 23.7902 7.884 23.6302 7.964C23.3502 8.1 23.0382 8.168 22.6942 8.168C22.0062 8.168 21.4382 7.932 20.9902 7.46C20.5182 6.964 20.2822 6.304 20.2822 5.48C20.2822 4.568 20.5782 3.86 21.1702 3.356C21.6262 2.964 22.1302 2.768 22.6822 2.768C23.2902 2.768 23.8542 3 24.3742 3.464V1.436C24.3742 1.028 24.0142 0.823999 23.2942 0.823999V0.5L25.0222 0.0439994H25.1902V7.088C25.1902 7.336 25.2702 7.504 25.4302 7.592C25.5342 7.656 25.7182 7.692 25.9822 7.7V8ZM24.3742 7.1V3.8C23.8302 3.416 23.3462 3.224 22.9222 3.224C22.2342 3.224 21.7542 3.56 21.4822 4.232C21.3302 4.608 21.2542 5.052 21.2542 5.564C21.2542 6.188 21.4062 6.7 21.7102 7.1C22.0062 7.5 22.3942 7.7 22.8742 7.7C23.3542 7.7 23.8542 7.5 24.3742 7.1ZM28.436 0.607999C28.436 0.768 28.376 0.9 28.256 1.004C28.136 1.108 27.988 1.16 27.812 1.16C27.636 1.16 27.488 1.104 27.368 0.991999C27.248 0.888 27.188 0.76 27.188 0.607999C27.188 0.415999 27.272 0.267999 27.44 0.163999C27.568 0.0839994 27.704 0.0439994 27.848 0.0439994C27.992 0.0439994 28.128 0.0959995 28.256 0.2C28.376 0.304 28.436 0.44 28.436 0.607999ZM29.12 8H26.672V7.7C26.984 7.692 27.196 7.64 27.308 7.544C27.42 7.456 27.476 7.24 27.476 6.896V4.148C27.476 3.772 27.176 3.572 26.576 3.548V3.248L28.124 2.768H28.292V7.16C28.292 7.496 28.568 7.676 29.12 7.7V8ZM35.3332 5.42C35.3332 6.316 35.0692 7.016 34.5412 7.52C34.0852 7.952 33.5412 8.168 32.9092 8.168C32.3092 8.168 31.7532 7.936 31.2412 7.472V8.924C31.2412 9.26 31.3092 9.472 31.4452 9.56C31.5492 9.632 31.7932 9.672 32.1772 9.68V9.98H29.6212V9.68C29.9172 9.672 30.1172 9.636 30.2212 9.572C30.3572 9.484 30.4252 9.3 30.4252 9.02V4.172C30.4252 3.78 30.1252 3.572 29.5252 3.548V3.272L31.0732 2.768H31.2412V3.548C31.8412 3.028 32.4172 2.768 32.9692 2.768C33.5372 2.768 34.0412 2.96 34.4812 3.344C35.0492 3.832 35.3332 4.524 35.3332 5.42ZM34.3612 5.432C34.3612 4.92 34.2652 4.472 34.0732 4.088C33.8012 3.528 33.3572 3.248 32.7412 3.248C32.2532 3.248 31.7532 3.472 31.2412 3.92V7.148C31.7692 7.532 32.2492 7.724 32.6812 7.724C33.3932 7.724 33.8852 7.384 34.1572 6.704C34.2932 6.344 34.3612 5.92 34.3612 5.432ZM38.051 0.607999C38.051 0.768 37.991 0.9 37.871 1.004C37.751 1.108 37.603 1.16 37.427 1.16C37.251 1.16 37.103 1.104 36.983 0.991999C36.863 0.888 36.803 0.76 36.803 0.607999C36.803 0.415999 36.887 0.267999 37.055 0.163999C37.183 0.0839994 37.319 0.0439994 37.463 0.0439994C37.607 0.0439994 37.743 0.0959995 37.871 0.2C37.991 0.304 38.051 0.44 38.051 0.607999ZM38.735 8H36.287V7.7C36.599 7.692 36.811 7.64 36.923 7.544C37.035 7.456 37.091 7.24 37.091 6.896V4.148C37.091 3.772 36.791 3.572 36.191 3.548V3.248L37.739 2.768H37.907V7.16C37.907 7.496 38.183 7.676 38.735 7.7V8ZM43.7962 6.632C43.7962 7.064 43.6242 7.428 43.2802 7.724C42.9362 8.02 42.5082 8.168 41.9962 8.168C41.7802 8.168 41.5082 8.124 41.1802 8.036C40.9162 7.964 40.7482 7.928 40.6762 7.928C40.4282 7.928 40.1842 8.008 39.9442 8.168L39.2482 6.464L39.5482 6.356C39.9322 6.788 40.2602 7.104 40.5322 7.304C41.0282 7.68 41.5322 7.868 42.0442 7.868C42.3482 7.868 42.6162 7.776 42.8482 7.592C43.0802 7.408 43.1962 7.172 43.1962 6.884C43.1962 6.58 43.0602 6.356 42.7882 6.212C42.6122 6.116 42.1482 5.976 41.3962 5.792C40.8362 5.648 40.4202 5.492 40.1482 5.324C39.6922 5.044 39.4642 4.66 39.4642 4.172C39.4642 3.756 39.6202 3.416 39.9322 3.152C40.2362 2.896 40.6162 2.768 41.0722 2.768C41.2402 2.768 41.4642 2.808 41.7442 2.888C42.0162 2.96 42.2122 2.996 42.3322 2.996C42.5642 2.996 42.7722 2.92 42.9562 2.768L43.6282 4.34L43.3042 4.436C42.5362 3.532 41.7922 3.08 41.0722 3.08C40.7602 3.08 40.5042 3.16 40.3042 3.32C40.1122 3.48 40.0162 3.676 40.0162 3.908C40.0162 4.132 40.1242 4.316 40.3402 4.46C40.5962 4.644 41.0642 4.816 41.7442 4.976C42.3762 5.128 42.8322 5.292 43.1122 5.468C43.5682 5.748 43.7962 6.136 43.7962 6.632ZM46.4121 0.607999C46.4121 0.768 46.3521 0.9 46.2321 1.004C46.1121 1.108 45.9641 1.16 45.7881 1.16C45.6121 1.16 45.4641 1.104 45.3441 0.991999C45.2241 0.888 45.1641 0.76 45.1641 0.607999C45.1641 0.415999 45.2481 0.267999 45.4161 0.163999C45.5441 0.0839994 45.6801 0.0439994 45.8241 0.0439994C45.9681 0.0439994 46.1041 0.0959995 46.2321 0.2C46.3521 0.304 46.4121 0.44 46.4121 0.607999ZM47.0961 8H44.6481V7.7C44.9601 7.692 45.1721 7.64 45.2841 7.544C45.3961 7.456 45.4521 7.24 45.4521 6.896V4.148C45.4521 3.772 45.1521 3.572 44.5521 3.548V3.248L46.1001 2.768H46.2681V7.16C46.2681 7.496 46.5441 7.676 47.0961 7.7V8ZM53.5493 8H51.1133V7.7C51.4173 7.684 51.6213 7.64 51.7253 7.568C51.8613 7.48 51.9293 7.308 51.9293 7.052V4.652C51.9293 3.764 51.5933 3.32 50.9213 3.32C50.4493 3.32 49.9173 3.584 49.3253 4.112V7.052C49.3253 7.316 49.4093 7.496 49.5773 7.592C49.6973 7.656 49.8973 7.692 50.1773 7.7V8H47.7413V7.7C48.0213 7.684 48.2213 7.636 48.3413 7.556C48.4533 7.476 48.5093 7.308 48.5093 7.052V4.268C48.5093 3.812 48.2053 3.572 47.5973 3.548V3.248L49.1573 2.768H49.3253V3.752C50.0613 3.096 50.7133 2.768 51.2813 2.768C52.2573 2.768 52.7453 3.396 52.7453 4.652V6.956C52.7453 7.252 52.8093 7.452 52.9373 7.556C53.0413 7.636 53.2453 7.684 53.5493 7.7V8ZM60.0591 3.224C60.0591 3.52 59.9031 3.668 59.5911 3.668C59.4551 3.668 59.2991 3.612 59.1231 3.5C59.0351 3.412 58.9391 3.368 58.8351 3.368C58.7391 3.368 58.6271 3.416 58.4991 3.512C58.8031 3.84 58.9551 4.2 58.9551 4.592C58.9551 5.096 58.7471 5.532 58.3311 5.9C57.9231 6.26 57.3991 6.44 56.7591 6.44C56.5351 6.44 56.2351 6.392 55.8591 6.296C55.5551 6.48 55.4031 6.62 55.4031 6.716C55.4031 6.876 55.8231 7.016 56.6631 7.136C57.7431 7.288 58.4951 7.488 58.9191 7.736C59.2951 7.952 59.4831 8.252 59.4831 8.636C59.4831 9.188 59.1111 9.572 58.3671 9.788C57.9271 9.916 57.4031 9.98 56.7951 9.98C55.9071 9.98 55.2151 9.88 54.7191 9.68C54.2311 9.488 53.9871 9.22 53.9871 8.876C53.9871 8.58 54.1791 8.336 54.5631 8.144C54.8031 8.016 55.2351 7.872 55.8591 7.712V7.688C55.5711 7.6 55.2351 7.5 54.8511 7.388C54.6431 7.252 54.5391 7.116 54.5391 6.98C54.5391 6.828 54.6351 6.684 54.8271 6.548C54.9631 6.452 55.2151 6.324 55.5831 6.164C54.8791 5.748 54.5271 5.228 54.5271 4.604C54.5271 4.132 54.7231 3.716 55.1151 3.356C55.5391 2.964 56.0791 2.768 56.7351 2.768C57.3191 2.768 57.8471 2.948 58.3191 3.308C58.7191 2.948 59.0911 2.768 59.4351 2.768C59.8511 2.768 60.0591 2.92 60.0591 3.224ZM57.9831 4.58C57.9831 4.116 57.8671 3.748 57.6351 3.476C57.4111 3.212 57.1191 3.08 56.7591 3.08C56.3991 3.08 56.0991 3.216 55.8591 3.488C55.6191 3.76 55.4991 4.132 55.4991 4.604C55.4991 5.068 55.6191 5.44 55.8591 5.72C56.0911 6 56.3831 6.14 56.7351 6.14C57.0471 6.14 57.3111 6.04 57.5271 5.84C57.8311 5.576 57.9831 5.156 57.9831 4.58ZM58.7631 8.864C58.7631 8.592 58.5631 8.38 58.1631 8.228C57.9151 8.132 57.3391 8 56.4351 7.832C55.3871 8.096 54.8631 8.448 54.8631 8.888C54.8631 9.416 55.5071 9.68 56.7951 9.68C58.1071 9.68 58.7631 9.408 58.7631 8.864ZM20.24 20H17.804V19.7C18.108 19.692 18.312 19.652 18.416 19.58C18.56 19.476 18.632 19.276 18.632 18.98V16.772C18.632 15.804 18.316 15.32 17.684 15.32C17.18 15.32 16.668 15.58 16.148 16.1V19.004C16.148 19.284 16.22 19.472 16.364 19.568C16.468 19.64 16.668 19.684 16.964 19.7V20H14.516V19.7C14.812 19.684 15.024 19.636 15.152 19.556C15.272 19.484 15.332 19.316 15.332 19.052V16.652C15.332 15.764 14.992 15.32 14.312 15.32C13.896 15.32 13.408 15.58 12.848 16.1V19.004C12.848 19.284 12.916 19.472 13.052 19.568C13.164 19.64 13.372 19.684 13.676 19.7V20H11.216V19.7C11.52 19.692 11.724 19.648 11.828 19.568C11.964 19.472 12.032 19.276 12.032 18.98V16.292C12.032 16.004 11.948 15.804 11.78 15.692C11.652 15.612 11.436 15.564 11.132 15.548V15.248L12.68 14.768H12.848V15.728C13.544 15.088 14.18 14.768 14.756 14.768C15.42 14.768 15.864 15.108 16.088 15.788C16.456 15.452 16.756 15.216 16.988 15.08C17.34 14.872 17.704 14.768 18.08 14.768C18.992 14.768 19.448 15.332 19.448 16.46V18.98C19.448 19.276 19.516 19.476 19.652 19.58C19.756 19.652 19.952 19.692 20.24 19.7V20ZM25.403 19.04C25.107 19.376 24.847 19.616 24.623 19.76C24.199 20.032 23.707 20.168 23.147 20.168C22.299 20.168 21.663 19.872 21.239 19.28C20.903 18.824 20.735 18.276 20.735 17.636C20.735 16.86 20.971 16.188 21.443 15.62C21.907 15.052 22.475 14.768 23.147 14.768C23.835 14.768 24.391 15.06 24.815 15.644C25.087 16.028 25.251 16.544 25.307 17.192H21.707V17.708C21.707 18.14 21.819 18.544 22.043 18.92C22.355 19.44 22.815 19.7 23.423 19.7C23.983 19.7 24.563 19.42 25.163 18.86L25.403 19.04ZM24.311 16.808C24.295 15.656 23.903 15.08 23.135 15.08C22.799 15.08 22.507 15.208 22.259 15.464C21.955 15.776 21.787 16.224 21.755 16.808H24.311ZM29.2909 19.328C28.9309 19.888 28.4629 20.168 27.8869 20.168C27.0949 20.168 26.6989 19.7 26.6989 18.764V15.332H25.8349V15.02C26.6909 14.764 27.1429 14.116 27.1909 13.076H27.5149V14.948H29.2549V15.332H27.5149V18.704C27.5149 19.368 27.7469 19.7 28.2109 19.7C28.5149 19.7 28.8149 19.536 29.1109 19.208L29.2909 19.328ZM35.6326 20H35.0806C34.7206 20 34.4166 20.036 34.1686 20.108H34.0006V19.184C33.2886 19.84 32.6206 20.168 31.9966 20.168C31.5406 20.168 31.1686 20.02 30.8806 19.724C30.6006 19.428 30.4606 19.036 30.4606 18.548V15.956C30.4606 15.652 30.1806 15.488 29.6206 15.464V15.164L31.1086 14.768H31.2766V18.32C31.2766 18.736 31.3766 19.06 31.5766 19.292C31.7766 19.516 32.0326 19.628 32.3446 19.628C32.8966 19.628 33.4486 19.348 34.0006 18.788V16.016C34.0006 15.776 33.9046 15.616 33.7126 15.536C33.5926 15.496 33.3606 15.472 33.0166 15.464V15.164L34.6486 14.768H34.8166V19.184C34.8166 19.512 35.0886 19.684 35.6326 19.7V20ZM40.5824 18.632C40.5824 19.064 40.4104 19.428 40.0664 19.724C39.7224 20.02 39.2944 20.168 38.7824 20.168C38.5664 20.168 38.2944 20.124 37.9664 20.036C37.7024 19.964 37.5344 19.928 37.4624 19.928C37.2144 19.928 36.9704 20.008 36.7304 20.168L36.0344 18.464L36.3344 18.356C36.7184 18.788 37.0464 19.104 37.3184 19.304C37.8144 19.68 38.3184 19.868 38.8304 19.868C39.1344 19.868 39.4024 19.776 39.6344 19.592C39.8664 19.408 39.9824 19.172 39.9824 18.884C39.9824 18.58 39.8464 18.356 39.5744 18.212C39.3984 18.116 38.9344 17.976 38.1824 17.792C37.6224 17.648 37.2064 17.492 36.9344 17.324C36.4784 17.044 36.2504 16.66 36.2504 16.172C36.2504 15.756 36.4064 15.416 36.7184 15.152C37.0224 14.896 37.4024 14.768 37.8584 14.768C38.0264 14.768 38.2504 14.808 38.5304 14.888C38.8024 14.96 38.9984 14.996 39.1184 14.996C39.3504 14.996 39.5584 14.92 39.7424 14.768L40.4144 16.34L40.0904 16.436C39.3224 15.532 38.5784 15.08 37.8584 15.08C37.5464 15.08 37.2904 15.16 37.0904 15.32C36.8984 15.48 36.8024 15.676 36.8024 15.908C36.8024 16.132 36.9104 16.316 37.1264 16.46C37.3824 16.644 37.8504 16.816 38.5304 16.976C39.1624 17.128 39.6184 17.292 39.8984 17.468C40.3544 17.748 40.5824 18.136 40.5824 18.632ZM15.932 30.932C15.332 31.756 14.592 32.168 13.712 32.168C12.864 32.168 12.224 31.88 11.792 31.304C11.44 30.84 11.264 30.288 11.264 29.648C11.264 28.864 11.512 28.196 12.008 27.644C12.536 27.06 13.2 26.768 14 26.768C14.464 26.768 14.888 26.868 15.272 27.068C15.648 27.26 15.836 27.496 15.836 27.776C15.836 28.104 15.652 28.268 15.284 28.268C14.972 28.268 14.76 28.084 14.648 27.716C14.52 27.292 14.256 27.08 13.856 27.08C13.296 27.08 12.872 27.344 12.584 27.872C12.352 28.296 12.236 28.792 12.236 29.36C12.236 29.936 12.34 30.424 12.548 30.824C12.844 31.408 13.32 31.7 13.976 31.7C14.52 31.7 15.104 31.388 15.728 30.764L15.932 30.932ZM21.4999 29.516C21.4999 30.252 21.2519 30.88 20.7559 31.4C20.2599 31.912 19.6479 32.168 18.9199 32.168C18.1919 32.168 17.5759 31.888 17.0719 31.328C16.5999 30.8 16.3639 30.184 16.3639 29.48C16.3639 28.776 16.5959 28.156 17.0599 27.62C17.5559 27.052 18.1679 26.768 18.8959 26.768C19.6479 26.768 20.2759 27.052 20.7799 27.62C21.2599 28.156 21.4999 28.788 21.4999 29.516ZM20.5279 29.528C20.5279 28.84 20.4119 28.28 20.1799 27.848C19.8999 27.336 19.4839 27.08 18.9319 27.08C18.4119 27.08 18.0159 27.296 17.7439 27.728C17.4719 28.16 17.3359 28.736 17.3359 29.456C17.3359 30.152 17.4559 30.712 17.6959 31.136C17.9759 31.624 18.3879 31.868 18.9319 31.868C19.4599 31.868 19.8639 31.644 20.1439 31.196C20.3999 30.788 20.5279 30.232 20.5279 29.528ZM31.1089 32H28.6729V31.7C28.9769 31.692 29.1809 31.652 29.2849 31.58C29.4289 31.476 29.5009 31.276 29.5009 30.98V28.772C29.5009 27.804 29.1849 27.32 28.5529 27.32C28.0489 27.32 27.5369 27.58 27.0169 28.1V31.004C27.0169 31.284 27.0889 31.472 27.2329 31.568C27.3369 31.64 27.5369 31.684 27.8329 31.7V32H25.3849V31.7C25.6809 31.684 25.8929 31.636 26.0209 31.556C26.1409 31.484 26.2009 31.316 26.2009 31.052V28.652C26.2009 27.764 25.8609 27.32 25.1809 27.32C24.7649 27.32 24.2769 27.58 23.7169 28.1V31.004C23.7169 31.284 23.7849 31.472 23.9209 31.568C24.0329 31.64 24.2409 31.684 24.5449 31.7V32H22.0849V31.7C22.3889 31.692 22.5929 31.648 22.6969 31.568C22.8329 31.472 22.9009 31.276 22.9009 30.98V28.292C22.9009 28.004 22.8169 27.804 22.6489 27.692C22.5209 27.612 22.3049 27.564 22.0009 27.548V27.248L23.5489 26.768H23.7169V27.728C24.4129 27.088 25.0489 26.768 25.6249 26.768C26.2889 26.768 26.7329 27.108 26.9569 27.788C27.3249 27.452 27.6249 27.216 27.8569 27.08C28.2089 26.872 28.5729 26.768 28.9489 26.768C29.8609 26.768 30.3169 27.332 30.3169 28.46V30.98C30.3169 31.276 30.3849 31.476 30.5209 31.58C30.6249 31.652 30.8209 31.692 31.1089 31.7V32ZM40.6039 32H38.1679V31.7C38.4719 31.692 38.6759 31.652 38.7799 31.58C38.9239 31.476 38.9959 31.276 38.9959 30.98V28.772C38.9959 27.804 38.6799 27.32 38.0479 27.32C37.5439 27.32 37.0319 27.58 36.5119 28.1V31.004C36.5119 31.284 36.5839 31.472 36.7279 31.568C36.8319 31.64 37.0319 31.684 37.3279 31.7V32H34.8799V31.7C35.1759 31.684 35.3879 31.636 35.5159 31.556C35.6359 31.484 35.6959 31.316 35.6959 31.052V28.652C35.6959 27.764 35.3559 27.32 34.6759 27.32C34.2599 27.32 33.7719 27.58 33.2119 28.1V31.004C33.2119 31.284 33.2799 31.472 33.4159 31.568C33.5279 31.64 33.7359 31.684 34.0399 31.7V32H31.5799V31.7C31.8839 31.692 32.0879 31.648 32.1919 31.568C32.3279 31.472 32.3959 31.276 32.3959 30.98V28.292C32.3959 28.004 32.3119 27.804 32.1439 27.692C32.0159 27.612 31.7999 27.564 31.4959 27.548V27.248L33.0439 26.768H33.2119V27.728C33.9079 27.088 34.5439 26.768 35.1199 26.768C35.7839 26.768 36.2279 27.108 36.4519 27.788C36.8199 27.452 37.1199 27.216 37.3519 27.08C37.7039 26.872 38.0679 26.768 38.4439 26.768C39.3559 26.768 39.8119 27.332 39.8119 28.46V30.98C39.8119 31.276 39.8799 31.476 40.0159 31.58C40.1199 31.652 40.3159 31.692 40.6039 31.7V32ZM46.2349 29.516C46.2349 30.252 45.9869 30.88 45.4909 31.4C44.9949 31.912 44.3829 32.168 43.6549 32.168C42.9269 32.168 42.3109 31.888 41.8069 31.328C41.3349 30.8 41.0989 30.184 41.0989 29.48C41.0989 28.776 41.3309 28.156 41.7949 27.62C42.2909 27.052 42.9029 26.768 43.6309 26.768C44.3829 26.768 45.0109 27.052 45.5149 27.62C45.9949 28.156 46.2349 28.788 46.2349 29.516ZM45.2629 29.528C45.2629 28.84 45.1469 28.28 44.9149 27.848C44.6349 27.336 44.2189 27.08 43.6669 27.08C43.1469 27.08 42.7509 27.296 42.4789 27.728C42.2069 28.16 42.0709 28.736 42.0709 29.456C42.0709 30.152 42.1909 30.712 42.4309 31.136C42.7109 31.624 43.1229 31.868 43.6669 31.868C44.1949 31.868 44.5989 31.644 44.8789 31.196C45.1349 30.788 45.2629 30.232 45.2629 29.528ZM52.7239 32H52.1479C51.9479 32 51.6559 32.024 51.2719 32.072H51.1159V31.448C50.7799 31.712 50.5319 31.884 50.3719 31.964C50.0919 32.1 49.7799 32.168 49.4359 32.168C48.7479 32.168 48.1799 31.932 47.7319 31.46C47.2599 30.964 47.0239 30.304 47.0239 29.48C47.0239 28.568 47.3199 27.86 47.9119 27.356C48.3679 26.964 48.8719 26.768 49.4239 26.768C50.0319 26.768 50.5959 27 51.1159 27.464V25.436C51.1159 25.028 50.7559 24.824 50.0359 24.824V24.5L51.7639 24.044H51.9319V31.088C51.9319 31.336 52.0119 31.504 52.1719 31.592C52.2759 31.656 52.4599 31.692 52.7239 31.7V32ZM51.1159 31.1V27.8C50.5719 27.416 50.0879 27.224 49.6639 27.224C48.9759 27.224 48.4959 27.56 48.2239 28.232C48.0719 28.608 47.9959 29.052 47.9959 29.564C47.9959 30.188 48.1479 30.7 48.4519 31.1C48.7479 31.5 49.1359 31.7 49.6159 31.7C50.0959 31.7 50.5959 31.5 51.1159 31.1ZM58.3577 29.516C58.3577 30.252 58.1097 30.88 57.6137 31.4C57.1177 31.912 56.5057 32.168 55.7777 32.168C55.0497 32.168 54.4337 31.888 53.9297 31.328C53.4577 30.8 53.2217 30.184 53.2217 29.48C53.2217 28.776 53.4537 28.156 53.9177 27.62C54.4137 27.052 55.0257 26.768 55.7537 26.768C56.5057 26.768 57.1337 27.052 57.6377 27.62C58.1177 28.156 58.3577 28.788 58.3577 29.516ZM57.3857 29.528C57.3857 28.84 57.2697 28.28 57.0377 27.848C56.7577 27.336 56.3417 27.08 55.7897 27.08C55.2697 27.08 54.8737 27.296 54.6017 27.728C54.3297 28.16 54.1937 28.736 54.1937 29.456C54.1937 30.152 54.3137 30.712 54.5537 31.136C54.8337 31.624 55.2457 31.868 55.7897 31.868C56.3177 31.868 56.7217 31.644 57.0017 31.196C57.2577 30.788 57.3857 30.232 57.3857 29.528Z" fill="#FF33BA"/>
</svg>
