<svg width="120" height="18" viewBox="0 0 120 18" fill="none" xmlns="http://www.w3.org/2000/svg">
<path d="M11.28 10.54C10.0267 13.0867 8.28 14.36 6.04 14.36C4.4 14.36 3.04667 13.7533 1.98 12.54C0.913333 11.34 0.38 9.82 0.38 7.98C0.38 6.03333 0.893333 4.35333 1.92 2.94C3.02667 1.42 4.45333 0.659999 6.2 0.659999C6.49333 0.659999 6.81333 0.699999 7.16 0.78C8.01333 0.98 8.48667 1.08 8.58 1.08C8.82 1.08 9.18667 0.966666 9.68 0.739999L10.98 4L10.46 4.18C9.74 3.32667 9.13333 2.7 8.64 2.3C7.74667 1.59333 6.86 1.24 5.98 1.24C4.75333 1.24 3.8 1.84 3.12 3.04C2.53333 4.06667 2.24 5.30667 2.24 6.76C2.24 8.42667 2.57333 9.83333 3.24 10.98C4.05333 12.3933 5.24 13.1 6.8 13.1C7.8 13.1 8.67333 12.7733 9.42 12.12C9.86 11.7333 10.3267 11.1333 10.82 10.32L11.28 10.54ZM20.6248 9.86C20.6248 11.0867 20.2115 12.1333 19.3848 13C18.5582 13.8533 17.5382 14.28 16.3248 14.28C15.1115 14.28 14.0848 13.8133 13.2448 12.88C12.4582 12 12.0648 10.9733 12.0648 9.8C12.0648 8.62667 12.4515 7.59333 13.2248 6.7C14.0515 5.75333 15.0715 5.28 16.2848 5.28C17.5382 5.28 18.5848 5.75333 19.4248 6.7C20.2248 7.59333 20.6248 8.64667 20.6248 9.86ZM19.0048 9.88C19.0048 8.73333 18.8115 7.8 18.4248 7.08C17.9582 6.22667 17.2648 5.8 16.3448 5.8C15.4782 5.8 14.8182 6.16 14.3648 6.88C13.9115 7.6 13.6848 8.56 13.6848 9.76C13.6848 10.92 13.8848 11.8533 14.2848 12.56C14.7515 13.3733 15.4382 13.78 16.3448 13.78C17.2248 13.78 17.8982 13.4067 18.3648 12.66C18.7915 11.98 19.0048 11.0533 19.0048 9.88ZM31.3998 14H27.3398V13.5C27.8465 13.4733 28.1865 13.4 28.3598 13.28C28.5865 13.1333 28.6998 12.8467 28.6998 12.42V8.42C28.6998 6.94 28.1398 6.2 27.0198 6.2C26.2332 6.2 25.3465 6.64 24.3598 7.52V12.42C24.3598 12.86 24.4998 13.16 24.7798 13.32C24.9798 13.4267 25.3132 13.4867 25.7798 13.5V14H21.7198V13.5C22.1865 13.4733 22.5198 13.3933 22.7198 13.26C22.9065 13.1267 22.9998 12.8467 22.9998 12.42V7.78C22.9998 7.02 22.4932 6.62 21.4798 6.58V6.08L24.0798 5.28H24.3598V6.92C25.5865 5.82667 26.6732 5.28 27.6198 5.28C29.2465 5.28 30.0598 6.32667 30.0598 8.42V12.26C30.0598 12.7533 30.1665 13.0867 30.3798 13.26C30.5532 13.3933 30.8932 13.4733 31.3998 13.5V14ZM37.9895 12.88C37.3895 13.8133 36.6095 14.28 35.6495 14.28C34.3295 14.28 33.6695 13.5 33.6695 11.94V6.22H32.2295V5.7C33.6562 5.27333 34.4095 4.19333 34.4895 2.46H35.0295V5.58H37.9295V6.22H35.0295V11.84C35.0295 12.9467 35.4162 13.5 36.1895 13.5C36.6962 13.5 37.1962 13.2267 37.6895 12.68L37.9895 12.88ZM46.5191 12.4C46.0257 12.96 45.5924 13.36 45.2191 13.6C44.5124 14.0533 43.6924 14.28 42.7591 14.28C41.3457 14.28 40.2857 13.7867 39.5791 12.8C39.0191 12.04 38.7391 11.1267 38.7391 10.06C38.7391 8.76667 39.1324 7.64667 39.9191 6.7C40.6924 5.75333 41.6391 5.28 42.7591 5.28C43.9057 5.28 44.8324 5.76667 45.5391 6.74C45.9924 7.38 46.2657 8.24 46.3591 9.32H40.3591V10.18C40.3591 10.9 40.5457 11.5733 40.9191 12.2C41.4391 13.0667 42.2057 13.5 43.2191 13.5C44.1524 13.5 45.1191 13.0333 46.1191 12.1L46.5191 12.4ZM44.6991 8.68C44.6724 6.76 44.0191 5.8 42.7391 5.8C42.1791 5.8 41.6924 6.01333 41.2791 6.44C40.7724 6.96 40.4924 7.70667 40.4391 8.68H44.6991ZM57.0389 14H52.9789V13.5C53.4856 13.4733 53.8256 13.4 53.9989 13.28C54.2256 13.1333 54.3389 12.8467 54.3389 12.42V8.42C54.3389 6.94 53.7789 6.2 52.6589 6.2C51.8722 6.2 50.9856 6.64 49.9989 7.52V12.42C49.9989 12.86 50.1389 13.16 50.4189 13.32C50.6189 13.4267 50.9522 13.4867 51.4189 13.5V14H47.3589V13.5C47.8256 13.4733 48.1589 13.3933 48.3589 13.26C48.5456 13.1267 48.6389 12.8467 48.6389 12.42V7.78C48.6389 7.02 48.1322 6.62 47.1189 6.58V6.08L49.7189 5.28H49.9989V6.92C51.2256 5.82667 52.3122 5.28 53.2589 5.28C54.8856 5.28 55.6989 6.32667 55.6989 8.42V12.26C55.6989 12.7533 55.8056 13.0867 56.0189 13.26C56.1922 13.3933 56.5322 13.4733 57.0389 13.5V14ZM63.6286 12.88C63.0286 13.8133 62.2486 14.28 61.2886 14.28C59.9686 14.28 59.3086 13.5 59.3086 11.94V6.22H57.8686V5.7C59.2953 5.27333 60.0486 4.19333 60.1286 2.46H60.6686V5.58H63.5686V6.22H60.6686V11.84C60.6686 12.9467 61.0553 13.5 61.8286 13.5C62.3353 13.5 62.8353 13.2267 63.3286 12.68L63.6286 12.88ZM71.8181 11.72C71.8181 12.44 71.5315 13.0467 70.9581 13.54C70.3848 14.0333 69.6715 14.28 68.8181 14.28C68.4581 14.28 68.0048 14.2067 67.4581 14.06C67.0181 13.94 66.7381 13.88 66.6181 13.88C66.2048 13.88 65.7981 14.0133 65.3981 14.28L64.2381 11.44L64.7381 11.26C65.3781 11.98 65.9248 12.5067 66.3781 12.84C67.2048 13.4667 68.0448 13.78 68.8981 13.78C69.4048 13.78 69.8515 13.6267 70.2381 13.32C70.6248 13.0133 70.8181 12.62 70.8181 12.14C70.8181 11.6333 70.5915 11.26 70.1381 11.02C69.8448 10.86 69.0715 10.6267 67.8181 10.32C66.8848 10.08 66.1915 9.82 65.7381 9.54C64.9781 9.07333 64.5981 8.43333 64.5981 7.62C64.5981 6.92667 64.8581 6.36 65.3781 5.92C65.8848 5.49333 66.5181 5.28 67.2781 5.28C67.5581 5.28 67.9315 5.34667 68.3981 5.48C68.8515 5.6 69.1781 5.66 69.3781 5.66C69.7648 5.66 70.1115 5.53333 70.4181 5.28L71.5381 7.9L70.9981 8.06C69.7181 6.55333 68.4781 5.8 67.2781 5.8C66.7581 5.8 66.3315 5.93333 65.9981 6.2C65.6781 6.46667 65.5181 6.79333 65.5181 7.18C65.5181 7.55333 65.6981 7.86 66.0581 8.1C66.4848 8.40667 67.2648 8.69333 68.3981 8.96C69.4515 9.21333 70.2115 9.48667 70.6781 9.78C71.4381 10.2467 71.8181 10.8933 71.8181 11.72ZM90.6577 4.42C90.6577 5.62 90.0977 6.55333 88.9777 7.22C88.191 7.68667 86.9977 7.92 85.3977 7.92H83.2577V12.16C83.2577 12.7733 83.4777 13.1667 83.9177 13.34C84.171 13.4467 84.6843 13.5 85.4577 13.5V14H79.5977V13.5C80.211 13.5 80.6377 13.4467 80.8777 13.34C81.291 13.14 81.4977 12.7467 81.4977 12.16V2.86C81.4977 2.27333 81.3177 1.88667 80.9577 1.7C80.731 1.59333 80.2777 1.53333 79.5977 1.52V1.02H85.3777C86.871 1.02 88.0377 1.24667 88.8777 1.7C90.0643 2.34 90.6577 3.24667 90.6577 4.42ZM88.5777 4.4C88.5777 3.30667 88.2777 2.54 87.6777 2.1C87.171 1.71333 86.3643 1.52 85.2577 1.52C84.511 1.52 83.991 1.61333 83.6977 1.8C83.4043 1.98667 83.2577 2.36 83.2577 2.92V7.42H85.1977C86.451 7.42 87.3443 7.15333 87.8777 6.62C88.3443 6.14 88.5777 5.4 88.5777 4.4ZM100.163 13.26C99.8825 13.94 99.3558 14.28 98.5825 14.28C98.1158 14.28 97.7692 14.16 97.5425 13.92C97.3825 13.7467 97.2492 13.4467 97.1425 13.02C96.3692 13.5133 95.8092 13.8333 95.4625 13.98C94.9692 14.18 94.4225 14.28 93.8225 14.28C93.1158 14.28 92.5292 14.0933 92.0625 13.72C91.5958 13.3467 91.3625 12.8733 91.3625 12.3C91.3625 11.3533 92.0292 10.56 93.3625 9.92C94.2292 9.52 95.4892 9.15333 97.1425 8.82V7.62C97.1425 6.40667 96.5758 5.8 95.4425 5.8C94.9492 5.8 94.5825 5.89333 94.3425 6.08C94.1025 6.25333 93.8892 6.56 93.7025 7C93.4625 7.58667 93.1092 7.88 92.6425 7.88C92.3358 7.88 92.0958 7.78667 91.9225 7.6C91.7625 7.41333 91.6825 7.21333 91.6825 7C91.6825 6.58667 92.0158 6.20667 92.6825 5.86C93.4025 5.47333 94.2758 5.28 95.3025 5.28C97.4358 5.28 98.5025 5.96667 98.5025 7.34V12.46C98.5025 13.1133 98.7092 13.44 99.1225 13.44C99.3892 13.44 99.6092 13.3133 99.7825 13.06L100.163 13.26ZM97.1425 12.42V9.28C96.0225 9.50667 95.0825 9.85333 94.3225 10.32C93.4292 10.8667 92.9825 11.48 92.9825 12.16C92.9825 12.6 93.1358 12.9467 93.4425 13.2C93.7092 13.4267 94.0492 13.54 94.4625 13.54C95.2225 13.54 96.1158 13.1667 97.1425 12.42ZM111.017 6.04C111.017 6.53333 110.757 6.78 110.237 6.78C110.011 6.78 109.751 6.68667 109.457 6.5C109.311 6.35333 109.151 6.28 108.977 6.28C108.817 6.28 108.631 6.36 108.417 6.52C108.924 7.06667 109.177 7.66667 109.177 8.32C109.177 9.16 108.831 9.88667 108.137 10.5C107.457 11.1 106.584 11.4 105.517 11.4C105.144 11.4 104.644 11.32 104.017 11.16C103.511 11.4667 103.257 11.7 103.257 11.86C103.257 12.1267 103.957 12.36 105.357 12.56C107.157 12.8133 108.411 13.1467 109.117 13.56C109.744 13.92 110.057 14.42 110.057 15.06C110.057 15.98 109.437 16.62 108.197 16.98C107.464 17.1933 106.591 17.3 105.577 17.3C104.097 17.3 102.944 17.1333 102.117 16.8C101.304 16.48 100.897 16.0333 100.897 15.46C100.897 14.9667 101.217 14.56 101.857 14.24C102.257 14.0267 102.977 13.7867 104.017 13.52V13.48C103.537 13.3333 102.977 13.1667 102.337 12.98C101.991 12.7533 101.817 12.5267 101.817 12.3C101.817 12.0467 101.977 11.8067 102.297 11.58C102.524 11.42 102.944 11.2067 103.557 10.94C102.384 10.2467 101.797 9.38 101.797 8.34C101.797 7.55333 102.124 6.86 102.777 6.26C103.484 5.60667 104.384 5.28 105.477 5.28C106.451 5.28 107.331 5.58 108.117 6.18C108.784 5.58 109.404 5.28 109.977 5.28C110.671 5.28 111.017 5.53333 111.017 6.04ZM107.557 8.3C107.557 7.52667 107.364 6.91333 106.977 6.46C106.604 6.02 106.117 5.8 105.517 5.8C104.917 5.8 104.417 6.02667 104.017 6.48C103.617 6.93333 103.417 7.55333 103.417 8.34C103.417 9.11333 103.617 9.73333 104.017 10.2C104.404 10.6667 104.891 10.9 105.477 10.9C105.997 10.9 106.437 10.7333 106.797 10.4C107.304 9.96 107.557 9.26 107.557 8.3ZM108.857 15.44C108.857 14.9867 108.524 14.6333 107.857 14.38C107.444 14.22 106.484 14 104.977 13.72C103.231 14.16 102.357 14.7467 102.357 15.48C102.357 16.36 103.431 16.8 105.577 16.8C107.764 16.8 108.857 16.3467 108.857 15.44ZM119.447 12.4C118.954 12.96 118.521 13.36 118.147 13.6C117.441 14.0533 116.621 14.28 115.687 14.28C114.274 14.28 113.214 13.7867 112.507 12.8C111.947 12.04 111.667 11.1267 111.667 10.06C111.667 8.76667 112.061 7.64667 112.847 6.7C113.621 5.75333 114.567 5.28 115.687 5.28C116.834 5.28 117.761 5.76667 118.467 6.74C118.921 7.38 119.194 8.24 119.287 9.32H113.287V10.18C113.287 10.9 113.474 11.5733 113.847 12.2C114.367 13.0667 115.134 13.5 116.147 13.5C117.081 13.5 118.047 13.0333 119.047 12.1L119.447 12.4ZM117.627 8.68C117.601 6.76 116.947 5.8 115.667 5.8C115.107 5.8 114.621 6.01333 114.207 6.44C113.701 6.96 113.421 7.70667 113.367 8.68H117.627Z" fill="#FF33BA"/>
</svg>
