<svg width="81" height="10" viewBox="0 0 81 10" fill="none" xmlns="http://www.w3.org/2000/svg">
<path d="M2 2.18C2.312 2.18 2.592 2.304 2.84 2.552C3.056 2.776 3.164 3.06 3.164 3.404C3.164 3.716 3.056 3.996 2.84 4.244C2.592 4.492 2.312 4.616 2 4.616C1.624 4.616 1.328 4.492 1.112 4.244C0.888 3.996 0.776 3.716 0.776 3.404C0.776 3.028 0.9 2.712 1.148 2.456C1.372 2.272 1.656 2.18 2 2.18ZM17.12 8H16.544C16.344 8 16.052 8.024 15.668 8.072H15.512V7.448C15.176 7.712 14.928 7.884 14.768 7.964C14.488 8.1 14.176 8.168 13.832 8.168C13.144 8.168 12.576 7.932 12.128 7.46C11.656 6.964 11.42 6.304 11.42 5.48C11.42 4.568 11.716 3.86 12.308 3.356C12.764 2.964 13.268 2.768 13.82 2.768C14.428 2.768 14.992 3 15.512 3.464V1.436C15.512 1.028 15.152 0.823999 14.432 0.823999V0.5L16.16 0.0439994H16.328V7.088C16.328 7.336 16.408 7.504 16.568 7.592C16.672 7.656 16.856 7.692 17.12 7.7V8ZM15.512 7.1V3.8C14.968 3.416 14.484 3.224 14.06 3.224C13.372 3.224 12.892 3.56 12.62 4.232C12.468 4.608 12.392 5.052 12.392 5.564C12.392 6.188 12.544 6.7 12.848 7.1C13.144 7.5 13.532 7.7 14.012 7.7C14.492 7.7 14.992 7.5 15.512 7.1ZM19.5738 0.607999C19.5738 0.768 19.5138 0.9 19.3938 1.004C19.2738 1.108 19.1258 1.16 18.9498 1.16C18.7738 1.16 18.6258 1.104 18.5058 0.991999C18.3858 0.888 18.3258 0.76 18.3258 0.607999C18.3258 0.415999 18.4098 0.267999 18.5778 0.163999C18.7058 0.0839994 18.8418 0.0439994 18.9858 0.0439994C19.1298 0.0439994 19.2658 0.0959995 19.3938 0.2C19.5138 0.304 19.5738 0.44 19.5738 0.607999ZM20.2578 8H17.8098V7.7C18.1218 7.692 18.3338 7.64 18.4458 7.544C18.5578 7.456 18.6138 7.24 18.6138 6.896V4.148C18.6138 3.772 18.3138 3.572 17.7138 3.548V3.248L19.2618 2.768H19.4298V7.16C19.4298 7.496 19.7058 7.676 20.2578 7.7V8ZM26.075 7.556C25.907 7.964 25.591 8.168 25.127 8.168C24.847 8.168 24.639 8.096 24.503 7.952C24.407 7.848 24.327 7.668 24.263 7.412C23.799 7.708 23.463 7.9 23.255 7.988C22.959 8.108 22.631 8.168 22.271 8.168C21.847 8.168 21.495 8.056 21.215 7.832C20.935 7.608 20.795 7.324 20.795 6.98C20.795 6.412 21.195 5.936 21.995 5.552C22.515 5.312 23.271 5.092 24.263 4.892V4.172C24.263 3.444 23.923 3.08 23.243 3.08C22.947 3.08 22.727 3.136 22.583 3.248C22.439 3.352 22.311 3.536 22.199 3.8C22.055 4.152 21.843 4.328 21.563 4.328C21.379 4.328 21.235 4.272 21.131 4.16C21.035 4.048 20.987 3.928 20.987 3.8C20.987 3.552 21.187 3.324 21.587 3.116C22.019 2.884 22.543 2.768 23.159 2.768C24.439 2.768 25.079 3.18 25.079 4.004V7.076C25.079 7.468 25.203 7.664 25.451 7.664C25.611 7.664 25.743 7.588 25.847 7.436L26.075 7.556ZM24.263 7.052V5.168C23.591 5.304 23.027 5.512 22.571 5.792C22.035 6.12 21.767 6.488 21.767 6.896C21.767 7.16 21.859 7.368 22.043 7.52C22.203 7.656 22.407 7.724 22.655 7.724C23.111 7.724 23.647 7.5 24.263 7.052ZM35.6 8H33.164V7.7C33.468 7.692 33.672 7.652 33.776 7.58C33.92 7.476 33.992 7.276 33.992 6.98V4.772C33.992 3.804 33.676 3.32 33.044 3.32C32.54 3.32 32.028 3.58 31.508 4.1V7.004C31.508 7.284 31.58 7.472 31.724 7.568C31.828 7.64 32.028 7.684 32.324 7.7V8H29.876V7.7C30.172 7.684 30.384 7.636 30.512 7.556C30.632 7.484 30.692 7.316 30.692 7.052V4.652C30.692 3.764 30.352 3.32 29.672 3.32C29.256 3.32 28.768 3.58 28.208 4.1V7.004C28.208 7.284 28.276 7.472 28.412 7.568C28.524 7.64 28.732 7.684 29.036 7.7V8H26.576V7.7C26.88 7.692 27.084 7.648 27.188 7.568C27.324 7.472 27.392 7.276 27.392 6.98V4.292C27.392 4.004 27.308 3.804 27.14 3.692C27.012 3.612 26.796 3.564 26.492 3.548V3.248L28.04 2.768H28.208V3.728C28.904 3.088 29.54 2.768 30.116 2.768C30.78 2.768 31.224 3.108 31.448 3.788C31.816 3.452 32.116 3.216 32.348 3.08C32.7 2.872 33.064 2.768 33.44 2.768C34.352 2.768 34.808 3.332 34.808 4.46V6.98C34.808 7.276 34.876 7.476 35.012 7.58C35.116 7.652 35.312 7.692 35.6 7.7V8ZM46.2108 3.224C46.2108 3.52 46.0548 3.668 45.7428 3.668C45.6068 3.668 45.4508 3.612 45.2748 3.5C45.1868 3.412 45.0908 3.368 44.9868 3.368C44.8908 3.368 44.7788 3.416 44.6508 3.512C44.9548 3.84 45.1068 4.2 45.1068 4.592C45.1068 5.096 44.8988 5.532 44.4828 5.9C44.0748 6.26 43.5508 6.44 42.9108 6.44C42.6868 6.44 42.3868 6.392 42.0108 6.296C41.7068 6.48 41.5548 6.62 41.5548 6.716C41.5548 6.876 41.9748 7.016 42.8148 7.136C43.8948 7.288 44.6468 7.488 45.0708 7.736C45.4468 7.952 45.6348 8.252 45.6348 8.636C45.6348 9.188 45.2628 9.572 44.5188 9.788C44.0788 9.916 43.5548 9.98 42.9468 9.98C42.0588 9.98 41.3668 9.88 40.8708 9.68C40.3828 9.488 40.1388 9.22 40.1388 8.876C40.1388 8.58 40.3308 8.336 40.7148 8.144C40.9548 8.016 41.3868 7.872 42.0108 7.712V7.688C41.7228 7.6 41.3868 7.5 41.0028 7.388C40.7948 7.252 40.6908 7.116 40.6908 6.98C40.6908 6.828 40.7868 6.684 40.9788 6.548C41.1148 6.452 41.3668 6.324 41.7348 6.164C41.0308 5.748 40.6788 5.228 40.6788 4.604C40.6788 4.132 40.8748 3.716 41.2668 3.356C41.6908 2.964 42.2308 2.768 42.8868 2.768C43.4708 2.768 43.9988 2.948 44.4708 3.308C44.8708 2.948 45.2428 2.768 45.5868 2.768C46.0028 2.768 46.2108 2.92 46.2108 3.224ZM44.1348 4.58C44.1348 4.116 44.0188 3.748 43.7868 3.476C43.5628 3.212 43.2708 3.08 42.9108 3.08C42.5508 3.08 42.2508 3.216 42.0108 3.488C41.7708 3.76 41.6508 4.132 41.6508 4.604C41.6508 5.068 41.7708 5.44 42.0108 5.72C42.2428 6 42.5348 6.14 42.8868 6.14C43.1988 6.14 43.4628 6.04 43.6788 5.84C43.9828 5.576 44.1348 5.156 44.1348 4.58ZM44.9148 8.864C44.9148 8.592 44.7148 8.38 44.3148 8.228C44.0668 8.132 43.4908 8 42.5868 7.832C41.5388 8.096 41.0148 8.448 41.0148 8.888C41.0148 9.416 41.6588 9.68 42.9468 9.68C44.2588 9.68 44.9148 9.408 44.9148 8.864ZM50.6446 3.308C50.6446 3.636 50.4526 3.8 50.0686 3.8C49.9486 3.8 49.7966 3.756 49.6126 3.668C49.4286 3.588 49.3006 3.548 49.2286 3.548C49.0206 3.548 48.7806 3.696 48.5086 3.992C48.2606 4.256 48.1366 4.444 48.1366 4.556V6.932C48.1366 7.268 48.2126 7.484 48.3646 7.58C48.4766 7.652 48.7366 7.692 49.1446 7.7V8H46.4566V7.7C46.7686 7.692 46.9806 7.656 47.0926 7.592C47.2446 7.504 47.3206 7.324 47.3206 7.052V4.232C47.3206 3.792 47.0326 3.56 46.4566 3.536V3.248L47.9686 2.768H48.1366V4.04H48.1606C48.8086 3.192 49.4206 2.768 49.9966 2.768C50.4286 2.768 50.6446 2.948 50.6446 3.308ZM56.3234 7.556C56.1554 7.964 55.8394 8.168 55.3754 8.168C55.0954 8.168 54.8874 8.096 54.7514 7.952C54.6554 7.848 54.5754 7.668 54.5114 7.412C54.0474 7.708 53.7114 7.9 53.5034 7.988C53.2074 8.108 52.8794 8.168 52.5194 8.168C52.0954 8.168 51.7434 8.056 51.4634 7.832C51.1834 7.608 51.0434 7.324 51.0434 6.98C51.0434 6.412 51.4434 5.936 52.2434 5.552C52.7634 5.312 53.5194 5.092 54.5114 4.892V4.172C54.5114 3.444 54.1714 3.08 53.4914 3.08C53.1954 3.08 52.9754 3.136 52.8314 3.248C52.6874 3.352 52.5594 3.536 52.4474 3.8C52.3034 4.152 52.0914 4.328 51.8114 4.328C51.6274 4.328 51.4834 4.272 51.3794 4.16C51.2834 4.048 51.2354 3.928 51.2354 3.8C51.2354 3.552 51.4354 3.324 51.8354 3.116C52.2674 2.884 52.7914 2.768 53.4074 2.768C54.6874 2.768 55.3274 3.18 55.3274 4.004V7.076C55.3274 7.468 55.4514 7.664 55.6994 7.664C55.8594 7.664 55.9914 7.588 56.0954 7.436L56.3234 7.556ZM54.5114 7.052V5.168C53.8394 5.304 53.2754 5.512 52.8194 5.792C52.2834 6.12 52.0154 6.488 52.0154 6.896C52.0154 7.16 52.1074 7.368 52.2914 7.52C52.4514 7.656 52.6554 7.724 52.9034 7.724C53.3594 7.724 53.8954 7.5 54.5114 7.052ZM62.7164 3.248C62.1884 3.28 61.8364 3.5 61.6604 3.908L59.8484 8.168H59.5244L57.7244 3.8C57.5724 3.432 57.2484 3.248 56.7524 3.248V2.948H59.2964V3.248C58.7924 3.264 58.5404 3.372 58.5404 3.572C58.5404 3.66 58.5604 3.752 58.6004 3.848L59.9204 7.04L61.1324 4.172C61.2124 3.98 61.2524 3.812 61.2524 3.668C61.2524 3.412 60.9644 3.272 60.3884 3.248V2.948H62.7164V3.248ZM65.1823 0.607999C65.1823 0.768 65.1223 0.9 65.0023 1.004C64.8823 1.108 64.7343 1.16 64.5583 1.16C64.3823 1.16 64.2343 1.104 64.1143 0.991999C63.9943 0.888 63.9343 0.76 63.9343 0.607999C63.9343 0.415999 64.0183 0.267999 64.1863 0.163999C64.3143 0.0839994 64.4503 0.0439994 64.5943 0.0439994C64.7383 0.0439994 64.8743 0.0959995 65.0023 0.2C65.1223 0.304 65.1823 0.44 65.1823 0.607999ZM65.8663 8H63.4183V7.7C63.7303 7.692 63.9423 7.64 64.0543 7.544C64.1663 7.456 64.2223 7.24 64.2223 6.896V4.148C64.2223 3.772 63.9223 3.572 63.3223 3.548V3.248L64.8703 2.768H65.0383V7.16C65.0383 7.496 65.3143 7.676 65.8663 7.7V8ZM72.3434 8H71.7674C71.5674 8 71.2754 8.024 70.8914 8.072H70.7354V7.448C70.3994 7.712 70.1514 7.884 69.9914 7.964C69.7114 8.1 69.3994 8.168 69.0554 8.168C68.3674 8.168 67.7994 7.932 67.3514 7.46C66.8794 6.964 66.6434 6.304 66.6434 5.48C66.6434 4.568 66.9394 3.86 67.5314 3.356C67.9874 2.964 68.4914 2.768 69.0434 2.768C69.6514 2.768 70.2154 3 70.7354 3.464V1.436C70.7354 1.028 70.3754 0.823999 69.6554 0.823999V0.5L71.3834 0.0439994H71.5514V7.088C71.5514 7.336 71.6314 7.504 71.7914 7.592C71.8954 7.656 72.0794 7.692 72.3434 7.7V8ZM70.7354 7.1V3.8C70.1914 3.416 69.7074 3.224 69.2834 3.224C68.5954 3.224 68.1154 3.56 67.8434 4.232C67.6914 4.608 67.6154 5.052 67.6154 5.564C67.6154 6.188 67.7674 6.7 68.0714 7.1C68.3674 7.5 68.7554 7.7 69.2354 7.7C69.7154 7.7 70.2154 7.5 70.7354 7.1ZM78.0612 7.556C77.8932 7.964 77.5772 8.168 77.1132 8.168C76.8332 8.168 76.6252 8.096 76.4892 7.952C76.3932 7.848 76.3132 7.668 76.2492 7.412C75.7852 7.708 75.4492 7.9 75.2412 7.988C74.9452 8.108 74.6172 8.168 74.2572 8.168C73.8332 8.168 73.4812 8.056 73.2012 7.832C72.9212 7.608 72.7812 7.324 72.7812 6.98C72.7812 6.412 73.1812 5.936 73.9812 5.552C74.5012 5.312 75.2572 5.092 76.2492 4.892V4.172C76.2492 3.444 75.9092 3.08 75.2292 3.08C74.9332 3.08 74.7132 3.136 74.5692 3.248C74.4252 3.352 74.2972 3.536 74.1852 3.8C74.0412 4.152 73.8292 4.328 73.5492 4.328C73.3652 4.328 73.2212 4.272 73.1172 4.16C73.0212 4.048 72.9732 3.928 72.9732 3.8C72.9732 3.552 73.1732 3.324 73.5732 3.116C74.0052 2.884 74.5292 2.768 75.1452 2.768C76.4252 2.768 77.0652 3.18 77.0652 4.004V7.076C77.0652 7.468 77.1892 7.664 77.4373 7.664C77.5972 7.664 77.7292 7.588 77.8332 7.436L78.0612 7.556ZM76.2492 7.052V5.168C75.5772 5.304 75.0132 5.512 74.5572 5.792C74.0212 6.12 73.7532 6.488 73.7532 6.896C73.7532 7.16 73.8452 7.368 74.0292 7.52C74.1892 7.656 74.3932 7.724 74.6412 7.724C75.0972 7.724 75.6332 7.5 76.2492 7.052ZM80.2663 7.568C80.2663 7.736 80.1983 7.88 80.0623 8C79.9343 8.112 79.7743 8.168 79.5823 8.168C79.3983 8.168 79.2423 8.108 79.1143 7.988C78.9863 7.876 78.9223 7.736 78.9223 7.568C78.9223 7.4 78.9863 7.256 79.1143 7.136C79.2423 7.024 79.3983 6.968 79.5823 6.968C79.7743 6.968 79.9383 7.028 80.0743 7.148C80.2023 7.268 80.2663 7.408 80.2663 7.568Z" fill="#FF33BA"/>
</svg>
