<svg width="183" height="68" viewBox="0 0 183 68" fill="none" xmlns="http://www.w3.org/2000/svg">
<path d="M182.5 34C182.5 38.4982 180.048 42.8448 175.479 46.8587C170.911 50.8718 164.273 54.5086 156.026 57.5729C139.537 63.7002 116.723 67.5 91.5 67.5C66.2766 67.5 43.4633 63.7002 26.9739 57.5729C18.7273 54.5086 12.0885 50.8718 7.52052 46.8587C2.95165 42.8448 0.5 38.4982 0.5 34C0.5 29.5018 2.95165 25.1552 7.52052 21.1413C12.0885 17.1282 18.7273 13.4914 26.9739 10.4271C43.4633 4.29985 66.2766 0.5 91.5 0.5C116.723 0.5 139.537 4.29985 156.026 10.4271C164.273 13.4914 170.911 17.1282 175.479 21.1413C180.048 25.1552 182.5 29.5018 182.5 34Z" fill="#E9E9E9" stroke="#FF33BA"/>
<path d="M135 34L115 22.453L115 45.547L135 34ZM117 32L49 32L49 36L117 36L117 32Z" fill="#FF33BA"/>
</svg>
