<svg width="191" height="30" viewBox="0 0 191 30" fill="none" xmlns="http://www.w3.org/2000/svg">
<path d="M7.4 14.08C5.13333 14.08 3.41333 13.4667 2.24 12.24C1.28 11.28 0.8 10.0533 0.8 8.56C0.8 7.28 1.18667 6.05333 1.96 4.88C2.33333 4.26667 2.8 3.73333 3.36 3.28C3.92 2.8 4.54667 2.38667 5.24 2.04C6.36 1.48 7.54667 1.05333 8.8 0.759998C10.08 0.466665 11.4267 0.319999 12.84 0.319999C13.8533 0.319999 15.0667 0.413332 16.48 0.599998C17.8933 0.786665 19.5067 1.06667 21.32 1.44C23.5333 1.86667 25.4 2.21333 26.92 2.48C28.44 2.72 29.5867 2.84 30.36 2.84C30.8133 2.84 31.2667 2.8 31.72 2.72C32.1733 2.64 32.6133 2.54666 33.04 2.44C34.3467 2.09333 35.08 1.58667 35.24 0.919998C35.32 0.653332 35.4533 0.519999 35.64 0.519999C35.8 0.519999 35.88 0.599998 35.88 0.759998C35.88 0.866665 35.84 0.986665 35.76 1.12C35.2 2.34666 34.0667 3.21333 32.36 3.72C31.32 4.04 30.2133 4.2 29.04 4.2C28.6133 4.2 27.72 4.12 26.36 3.96C25 3.8 23.1733 3.54667 20.88 3.2C19.3067 2.93333 17.8933 2.74667 16.64 2.64C15.4133 2.50667 14.3733 2.44 13.52 2.44C10.56 2.44 8.13333 3.06667 6.24 4.32C5.73333 4.66667 5.25333 5.05333 4.8 5.48C4.37333 5.90667 3.98667 6.38667 3.64 6.92C2.97333 7.98667 2.64 9 2.64 9.96C2.64 11.0267 3.01333 11.8667 3.76 12.48C4.53333 13.0667 5.68 13.36 7.2 13.36C9.14667 13.36 11.2133 12.5867 13.4 11.04C14.3333 10.4 15.1733 9.66667 15.92 8.84C16.6667 8.01333 17.3333 7.06667 17.92 6C18.0267 5.81333 18.2 5.72 18.44 5.72C18.68 5.72 18.76 5.82667 18.68 6.04C17.64 8.46667 16.1467 10.3867 14.2 11.8C13.16 12.5467 12.08 13.12 10.96 13.52C9.84 13.8933 8.65333 14.08 7.4 14.08ZM5.24 29.76C3.90667 29.76 2.77333 29.44 1.84 28.8C1.01333 28.24 0.6 27.4533 0.6 26.44C0.6 25.72 0.84 25.1067 1.32 24.6C1.85333 23.9867 2.50667 23.68 3.28 23.68C3.78667 23.68 4.22667 23.8667 4.6 24.24C4.89333 24.56 5.04 24.96 5.04 25.44C5.04 26.08 4.81333 26.6 4.36 27C3.93333 27.4 3.44 27.6 2.88 27.6C2.4 27.6 1.97333 27.4133 1.6 27.04C1.68 27.6 2.04 28 2.68 28.24C3.08 28.4 3.50667 28.48 3.96 28.48C4.76 28.48 5.52 28.3467 6.24 28.08C6.96 27.8133 7.62667 27.44 8.24 26.96C9.25333 26.1867 10.2933 24.9867 11.36 23.36C12 22.4 12.6533 21.3467 13.32 20.2C14.0133 19.0533 14.7067 17.8133 15.4 16.48C13.0267 16.8 11 17.24 9.32 17.8C6.76 18.68 5.48 19.9067 5.48 21.48C5.48 22.4667 5.89333 23.1733 6.72 23.6C6.85333 23.68 6.88 23.8 6.8 23.96C6.72 24.0933 6.61333 24.1333 6.48 24.08C5.92 23.7867 5.41333 23.3067 4.96 22.64C4.53333 21.9733 4.32 21.28 4.32 20.56C4.32 18.88 5.49333 17.64 7.84 16.84C9.52 16.2533 12.2 15.84 15.88 15.6L17.8 11.88C19.0533 9.42667 20.4267 7.6 21.92 6.4C23.44 5.2 25.0133 4.6 26.64 4.6C27.0933 4.6 27.56 4.64 28.04 4.72C28.2267 4.77333 28.32 4.84 28.32 4.92C28.32 5.05333 28.24 5.12 28.08 5.12C27.9467 5.12 27.8 5.10667 27.64 5.08C27.48 5.05333 27.3333 5.04 27.2 5.04C24.5067 5.04 22.3067 7.17333 20.6 11.44C20.4133 11.8667 20.1867 12.4133 19.92 13.08C19.68 13.72 19.3867 14.48 19.04 15.36C20.1333 15.28 21.0133 15.2 21.68 15.12C22.1067 14.2133 22.9733 13.4133 24.28 12.72C24.6533 12.5067 25.0133 12.4 25.36 12.4C26.0267 12.4 26.36 12.6933 26.36 13.28C26.36 14.24 25.44 15 23.6 15.56C23.2267 15.64 22.7733 15.72 22.24 15.8C21.9733 16.3333 21.7733 16.88 21.64 17.44C21.5333 18 21.4667 18.5867 21.44 19.2C21.44 19.36 21.36 19.44 21.2 19.44C21.04 19.4133 20.9467 19.32 20.92 19.16C20.8933 18.5467 20.92 17.96 21 17.4C21.1067 16.84 21.2533 16.3333 21.44 15.88C21.2 15.9067 20.2933 15.9867 18.72 16.12C16.4 21.88 13.7067 25.8533 10.64 28.04C9.01333 29.1867 7.21333 29.76 5.24 29.76ZM41.1716 19.72C41.1716 22.1733 40.3449 24.2667 38.6916 26C37.0382 27.7067 34.9982 28.56 32.5716 28.56C30.1449 28.56 28.0916 27.6267 26.4116 25.76C24.8382 24 24.0516 21.9467 24.0516 19.6C24.0516 17.2533 24.8249 15.1867 26.3716 13.4C28.0249 11.5067 30.0649 10.56 32.4916 10.56C34.9982 10.56 37.0916 11.5067 38.7716 13.4C40.3716 15.1867 41.1716 17.2933 41.1716 19.72ZM37.9316 19.76C37.9316 17.4667 37.5449 15.6 36.7716 14.16C35.8382 12.4533 34.4516 11.6 32.6116 11.6C30.8782 11.6 29.5582 12.32 28.6516 13.76C27.7449 15.2 27.2916 17.12 27.2916 19.52C27.2916 21.84 27.6916 23.7067 28.4916 25.12C29.4249 26.7467 30.7982 27.56 32.6116 27.56C34.3716 27.56 35.7182 26.8133 36.6516 25.32C37.5049 23.96 37.9316 22.1067 37.9316 19.76ZM62.7216 28H54.6016V27C55.6149 26.9467 56.2949 26.8 56.6416 26.56C57.0949 26.2667 57.3216 25.6933 57.3216 24.84V16.84C57.3216 13.88 56.2016 12.4 53.9616 12.4C52.3882 12.4 50.6149 13.28 48.6416 15.04V24.84C48.6416 25.72 48.9216 26.32 49.4816 26.64C49.8816 26.8533 50.5482 26.9733 51.4816 27V28H43.3616V27C44.2949 26.9467 44.9616 26.7867 45.3616 26.52C45.7349 26.2533 45.9216 25.6933 45.9216 24.84V15.56C45.9216 14.04 44.9082 13.24 42.8816 13.16V12.16L48.0816 10.56H48.6416V13.84C51.0949 11.6533 53.2682 10.56 55.1616 10.56C58.4149 10.56 60.0416 12.6533 60.0416 16.84V24.52C60.0416 25.5067 60.2549 26.1733 60.6816 26.52C61.0282 26.7867 61.7082 26.9467 62.7216 27V28ZM75.9009 25.76C74.7009 27.6267 73.1409 28.56 71.2209 28.56C68.5809 28.56 67.2609 27 67.2609 23.88V12.44H64.3809V11.4C67.2343 10.5467 68.7409 8.38667 68.9009 4.92H69.9809V11.16H75.7809V12.44H69.9809V23.68C69.9809 25.8933 70.7543 27 72.3009 27C73.3143 27 74.3143 26.4533 75.3009 25.36L75.9009 25.76ZM119.239 12.16C118.626 12.1867 118.133 12.3067 117.759 12.52C117.039 12.8933 116.493 13.56 116.119 14.52L110.719 28.56H109.599L104.959 16.72H104.879L100.279 28.56H99.2394L93.5594 14.08C93.2394 13.2533 92.7994 12.7067 92.2394 12.44C91.9194 12.28 91.3994 12.1867 90.6794 12.16V11.16H98.7194V12.16C97.066 12.2133 96.2394 12.56 96.2394 13.2C96.2394 13.52 96.3194 13.84 96.4794 14.16L100.479 24.6H100.559L104.319 14.96C103.759 13.7867 103.319 13.0533 102.999 12.76C102.599 12.3867 101.906 12.1867 100.919 12.16V11.16H109.039V12.16C107.413 12.2133 106.599 12.5867 106.599 13.28C106.599 13.5467 106.679 13.88 106.839 14.28L110.879 24.52H110.959L114.559 15.04C114.746 14.56 114.839 14.1467 114.839 13.8C114.839 12.7867 113.853 12.24 111.879 12.16V11.16H119.239V12.16ZM137.82 19.72C137.82 22.1733 136.993 24.2667 135.34 26C133.687 27.7067 131.647 28.56 129.22 28.56C126.793 28.56 124.74 27.6267 123.06 25.76C121.487 24 120.7 21.9467 120.7 19.6C120.7 17.2533 121.473 15.1867 123.02 13.4C124.673 11.5067 126.713 10.56 129.14 10.56C131.647 10.56 133.74 11.5067 135.42 13.4C137.02 15.1867 137.82 17.2933 137.82 19.72ZM134.58 19.76C134.58 17.4667 134.193 15.6 133.42 14.16C132.487 12.4533 131.1 11.6 129.26 11.6C127.527 11.6 126.207 12.32 125.3 13.76C124.393 15.2 123.94 17.12 123.94 19.52C123.94 21.84 124.34 23.7067 125.14 25.12C126.073 26.7467 127.447 27.56 129.26 27.56C131.02 27.56 132.367 26.8133 133.3 25.32C134.153 23.96 134.58 22.1067 134.58 19.76ZM153.33 12.36C153.33 13.4533 152.69 14 151.41 14C151.01 14 150.503 13.8533 149.89 13.56C149.277 13.2933 148.85 13.16 148.61 13.16C147.917 13.16 147.117 13.6533 146.21 14.64C145.383 15.52 144.97 16.1467 144.97 16.52V24.44C144.97 25.56 145.223 26.28 145.73 26.6C146.103 26.84 146.97 26.9733 148.33 27V28H139.37V27C140.41 26.9733 141.117 26.8533 141.49 26.64C141.997 26.3467 142.25 25.7467 142.25 24.84V15.44C142.25 13.9733 141.29 13.2 139.37 13.12V12.16L144.41 10.56H144.97V14.8H145.05C147.21 11.9733 149.25 10.56 151.17 10.56C152.61 10.56 153.33 11.16 153.33 12.36ZM174.499 28H165.819V27C167.366 26.9467 168.139 26.7333 168.139 26.36C168.139 26.0133 167.979 25.6267 167.659 25.2L163.179 19.08L160.379 21.48V25.2C160.379 26.32 161.246 26.92 162.979 27V28H154.979V27C155.939 26.9733 156.593 26.84 156.939 26.6C157.419 26.28 157.659 25.64 157.659 24.68V6.2C157.659 4.92 156.673 4.22667 154.699 4.12V3.12L159.819 1.48H160.379V20.12L165.939 15.36C167.006 14.4533 167.539 13.72 167.539 13.16C167.539 12.5467 166.766 12.2133 165.219 12.16V11.16H173.579V12.16C172.433 12.2133 171.393 12.5333 170.459 13.12C169.686 13.6267 167.939 15.04 165.219 17.36L170.779 25.08C171.393 25.9333 172.046 26.4933 172.739 26.76C173.139 26.92 173.726 27 174.499 27V28ZM190.999 23.44C190.999 24.88 190.425 26.0933 189.279 27.08C188.132 28.0667 186.705 28.56 184.999 28.56C184.279 28.56 183.372 28.4133 182.279 28.12C181.399 27.88 180.839 27.76 180.599 27.76C179.772 27.76 178.959 28.0267 178.159 28.56L175.839 22.88L176.839 22.52C178.119 23.96 179.212 25.0133 180.119 25.68C181.772 26.9333 183.452 27.56 185.159 27.56C186.172 27.56 187.065 27.2533 187.839 26.64C188.612 26.0267 188.999 25.24 188.999 24.28C188.999 23.2667 188.545 22.52 187.639 22.04C187.052 21.72 185.505 21.2533 182.999 20.64C181.132 20.16 179.745 19.64 178.839 19.08C177.319 18.1467 176.559 16.8667 176.559 15.24C176.559 13.8533 177.079 12.72 178.119 11.84C179.132 10.9867 180.399 10.56 181.919 10.56C182.479 10.56 183.225 10.6933 184.159 10.96C185.065 11.2 185.719 11.32 186.119 11.32C186.892 11.32 187.585 11.0667 188.199 10.56L190.439 15.8L189.359 16.12C186.799 13.1067 184.319 11.6 181.919 11.6C180.879 11.6 180.025 11.8667 179.359 12.4C178.719 12.9333 178.399 13.5867 178.399 14.36C178.399 15.1067 178.759 15.72 179.479 16.2C180.332 16.8133 181.892 17.3867 184.159 17.92C186.265 18.4267 187.785 18.9733 188.719 19.56C190.239 20.4933 190.999 21.7867 190.999 23.44Z" fill="#FF33BA"/>
</svg>
