<svg width="183" height="70" viewBox="0 0 183 70" fill="none" xmlns="http://www.w3.org/2000/svg">
<path d="M182.5 35C182.5 39.6421 180.042 44.1213 175.474 48.2527C170.906 52.3842 164.267 56.1276 156.022 59.2817C139.534 65.5886 116.722 69.5 91.5 69.5C66.278 69.5 43.4663 65.5886 26.9784 59.2817C18.7327 56.1276 12.0942 52.3842 7.5259 48.2527C2.95759 44.1213 0.5 39.6421 0.5 35C0.5 30.3579 2.95759 25.8787 7.5259 21.7473C12.0942 17.6159 18.7327 13.8724 26.9784 10.7183C43.4663 4.41139 66.278 0.5 91.5 0.5C116.722 0.5 139.534 4.41139 156.022 10.7183C164.267 13.8724 170.906 17.6159 175.474 21.7473C180.042 25.8787 182.5 30.3579 182.5 35Z" fill="#E9E9E9" stroke="#FF33BA"/>
<path d="M62.792 46.408C60.68 46.408 58.672 43.888 56.768 38.848C56.416 38.992 56.064 39.096 55.712 39.16C55.36 39.224 55 39.256 54.632 39.256C54.36 39.256 54.104 39.232 53.864 39.184C53.48 39.712 53.064 40.232 52.616 40.744C52.168 41.24 51.688 41.72 51.176 42.184C50.392 42.904 49.576 43.448 48.728 43.816C47.88 44.2 46.992 44.392 46.064 44.392C44.736 44.392 44.056 43.864 44.024 42.808C44.024 42.36 44.168 41.96 44.456 41.608C44.744 41.24 45.096 41.056 45.512 41.056C45.816 41.056 46.072 41.184 46.28 41.44C46.456 41.632 46.544 41.872 46.544 42.16C46.544 42.944 46.176 43.336 45.44 43.336C45.056 43.336 44.784 43.184 44.624 42.88C44.704 43.456 45.168 43.744 46.016 43.744C46.208 43.744 46.384 43.72 46.544 43.672C48.416 43.192 50.104 41.72 51.608 39.256L52.112 38.392C51.232 37.656 50.792 36.664 50.792 35.416C50.792 34.632 51.016 33.944 51.464 33.352C51.912 32.76 52.528 32.464 53.312 32.464C53.936 32.464 54.48 32.696 54.944 33.16L55.928 31.264C56.584 29.968 57.216 28.968 57.824 28.264C58.56 27.384 59.4 26.776 60.344 26.44C59.944 26.376 59.528 26.336 59.096 26.32C58.664 26.288 58.2 26.272 57.704 26.272C54.76 26.272 52.672 26.632 51.44 27.352C50.608 27.848 49.976 28.368 49.544 28.912C49.08 29.504 48.848 30.024 48.848 30.472C48.848 31.032 49.184 31.376 49.856 31.504C50.08 31.552 50.304 31.576 50.528 31.576C52.08 31.576 53.52 30.936 54.848 29.656C54.912 29.592 54.984 29.576 55.064 29.608C55.128 29.624 55.16 29.672 55.16 29.752C55.16 29.8 55.152 29.832 55.136 29.848C54.88 30.168 54.568 30.464 54.2 30.736C53.832 31.008 53.408 31.256 52.928 31.48C51.968 31.928 51.04 32.152 50.144 32.152C49.44 32.152 48.832 31.992 48.32 31.672C47.712 31.304 47.408 30.792 47.408 30.136C47.408 29.544 47.656 28.968 48.152 28.408C48.904 27.528 50.24 26.872 52.16 26.44C52.944 26.264 53.768 26.128 54.632 26.032C55.512 25.936 56.44 25.888 57.416 25.888C58.072 25.888 58.672 25.912 59.216 25.96C59.776 25.992 60.28 26.048 60.728 26.128C60.712 26.128 60.72 26.136 60.752 26.152C60.784 26.152 60.84 26.16 60.92 26.176C61.16 26.112 61.384 26.064 61.592 26.032C61.8 26 61.984 25.984 62.144 25.984C62.816 25.984 63.152 26.152 63.152 26.488C63.152 26.856 62.848 27.04 62.24 27.04C62.096 27.04 61.912 27.008 61.688 26.944C61.48 26.864 61.24 26.736 60.968 26.56C59.752 26.992 58.704 28.432 57.824 30.88C57.472 31.84 57.144 32.696 56.84 33.448C56.552 34.184 56.288 34.824 56.048 35.368C56.224 35.784 56.416 36.216 56.624 36.664C56.848 37.112 57.088 37.584 57.344 38.08C57.856 37.76 58.368 37.304 58.88 36.712C59.408 36.12 59.936 35.384 60.464 34.504C60.928 33.736 61.384 32.96 61.832 32.176C62.28 31.392 62.744 30.608 63.224 29.824C63.784 28.928 64.352 28.16 64.928 27.52C65.504 26.88 66.088 26.376 66.68 26.008C67.368 25.56 68.184 25.336 69.128 25.336C69.848 25.336 70.432 25.488 70.88 25.792C71.36 26.096 71.6 26.544 71.6 27.136C71.6 27.568 71.496 27.912 71.288 28.168C71.096 28.424 70.848 28.552 70.544 28.552C69.984 28.552 69.704 28.272 69.704 27.712C69.704 27.12 69.984 26.824 70.544 26.824C70.944 26.824 71.192 27 71.288 27.352C71.32 27.032 71.176 26.76 70.856 26.536C70.68 26.408 70.496 26.32 70.304 26.272C70.128 26.208 69.952 26.176 69.776 26.176C68.416 26.176 67 27.056 65.528 28.816C65.288 29.104 64.976 29.52 64.592 30.064C64.208 30.608 63.752 31.28 63.224 32.08C62.152 33.68 61.288 34.88 60.632 35.68C60.104 36.32 59.584 36.872 59.072 37.336C58.576 37.8 58.072 38.176 57.56 38.464C58.072 39.376 58.576 40.208 59.072 40.96C59.568 41.696 60.064 42.352 60.56 42.928C61.76 44.336 62.8 45.04 63.68 45.04C64.304 45.04 64.768 44.752 65.072 44.176C65.36 43.648 65.504 43.008 65.504 42.256C65.504 41.456 65.384 40.76 65.144 40.168C65.048 39.928 65.056 39.808 65.168 39.808C65.232 39.808 65.296 39.88 65.36 40.024C65.824 40.92 66.056 41.824 66.056 42.736C66.056 43.68 65.752 44.52 65.144 45.256C64.52 46.024 63.736 46.408 62.792 46.408ZM52.496 37.744C52.8 37.232 53.128 36.64 53.48 35.968C53.848 35.296 54.24 34.552 54.656 33.736C54.352 33.48 54.032 33.352 53.696 33.352C53.12 33.352 52.664 33.624 52.328 34.168C52.04 34.648 51.896 35.192 51.896 35.8C51.896 36.552 52.096 37.2 52.496 37.744ZM54.848 38.8C55.488 38.8 56.08 38.68 56.624 38.44L55.76 35.944C55.264 36.968 54.736 37.904 54.176 38.752C54.288 38.768 54.4 38.784 54.512 38.8C54.624 38.8 54.736 38.8 54.848 38.8ZM86.8925 28.024C85.5165 28.104 84.8285 28.744 84.8285 29.944V37.648C84.8285 39.344 84.4125 40.688 83.5805 41.68C82.5885 42.848 81.0605 43.432 78.9965 43.432C76.9965 43.432 75.4605 42.944 74.3885 41.968C73.4445 41.12 72.9725 39.768 72.9725 37.912V29.344C72.9725 28.512 72.3085 28.072 70.9805 28.024V27.424H77.4125V28.024C76.5485 28.04 75.9725 28.128 75.6845 28.288C75.2845 28.512 75.0845 28.992 75.0845 29.728V38.296C75.0845 41.144 76.4765 42.568 79.2605 42.568C82.3965 42.568 83.9645 40.96 83.9645 37.744V30.088C83.9645 29.24 83.6685 28.656 83.0765 28.336C82.7725 28.176 82.2925 28.072 81.6365 28.024V27.424H86.8925V28.024ZM104.527 43H97.8547V42.4C98.5267 42.384 98.9987 42.336 99.2707 42.256C99.7507 42.112 99.9907 41.84 99.9907 41.44C99.9907 41.456 99.9427 41.224 99.8467 40.744L98.6227 37.456H92.3347L91.3747 40.144C91.2307 40.544 91.1587 40.904 91.1587 41.224C91.1587 41.96 91.8787 42.352 93.3187 42.4V43H87.5587V42.4C88.1987 42.384 88.6867 42.288 89.0227 42.112C89.6147 41.808 90.0707 41.216 90.3907 40.336L95.1187 27.424L96.9427 26.992L101.839 40.48C102.127 41.296 102.503 41.832 102.967 42.088C103.287 42.264 103.807 42.368 104.527 42.4V43ZM98.3587 36.664L95.5267 28.768H95.4787L92.6227 36.664H98.3587ZM121.075 28.024C119.683 28.072 118.987 28.744 118.987 30.04V43.432H118.531L108.403 29.656H108.355V40.336C108.355 41.664 109.163 42.352 110.779 42.4V43H105.187V42.4C106.723 42.352 107.491 41.664 107.491 40.336V28.96C106.739 28.368 105.971 28.056 105.187 28.024V27.424H109.147L118.075 39.592H118.123V30.04C118.123 28.76 117.435 28.088 116.059 28.024V27.424H121.075V28.024ZM136.837 43H130.165V42.4H130.837C131.909 42.4 132.445 41.856 132.445 40.768V29.416C132.445 28.792 132.189 28.384 131.677 28.192C131.373 28.08 130.869 28.024 130.165 28.024V27.424H136.837V28.024C136.005 28.04 135.437 28.136 135.133 28.312C134.749 28.536 134.557 29 134.557 29.704V40.984C134.557 41.608 134.805 42.024 135.301 42.232C135.589 42.344 136.101 42.4 136.837 42.4V43Z" fill="#FF33BA"/>
</svg>
