<svg width="979" height="409" viewBox="0 0 979 409" fill="none" xmlns="http://www.w3.org/2000/svg">
<path d="M25.4 240.24C10.0933 240.24 1.88 234.08 0.76 221.76C0.573333 216.533 1.97333 211.867 4.96 207.76C8.13333 203.467 12.1467 201.32 17 201.32C20.5467 201.32 23.6267 202.813 26.24 205.8C28.6667 208.6 29.88 211.587 29.88 214.76C29.88 223.533 25.7733 227.92 17.56 227.92C15.5067 227.92 13.5467 227.453 11.68 226.52C10 225.773 8.69333 224.467 7.76 222.6C8.88 229.32 14.48 232.68 24.56 232.68C26.8 232.68 28.8533 232.4 30.72 231.84C46.7733 227.547 60.3067 218.307 71.32 204.12C76.1733 197.96 81.5867 189.187 87.56 177.8C93.5333 166.413 100.16 152.6 107.44 136.36L144.4 54.32C146.267 50.2133 148.32 46.5733 150.56 43.4C152.987 40.04 155.507 36.8667 158.12 33.88C135.347 33.1333 112.107 36.68 88.4 44.52C63.3867 52.92 45.0933 64.3067 33.52 78.68C28.1067 85.5867 25.4 91.9333 25.4 97.72C25.4 109.48 33.8933 115.36 50.88 115.36C71.7867 115.36 88.7733 107.147 101.84 90.72C105.013 86.8 108 82.1333 110.8 76.72C113.787 71.12 116.493 64.5867 118.92 57.12C119.48 55.8133 120.227 55.16 121.16 55.16C122.653 55.16 123.12 56.1867 122.56 58.24C121.813 60.6667 121.067 63.0933 120.32 65.52C119.76 67.9467 119.013 70.28 118.08 72.52C116.587 77 114.813 81.2 112.76 85.12C110.707 88.8533 108.467 92.3067 106.04 95.48C93.5333 113.027 75.8 121.8 52.84 121.8C42.2 121.8 33.8933 119 27.92 113.4C21.76 107.8 18.68 100.8 18.68 92.4C18.68 84.9333 21.2933 77.28 26.52 69.44C35.2933 56.1867 52.4667 45.64 78.04 37.8C89.24 34.44 100.813 31.92 112.76 30.24C124.893 28.3733 137.4 27.44 150.28 27.44C152.707 27.44 155.04 27.44 157.28 27.44C159.707 27.44 162.04 27.5333 164.28 27.72C175.667 17.8267 187.52 12.88 199.84 12.88C204.693 12.88 209.64 13.9067 214.68 15.96C215.613 16.3333 216.08 17.08 216.08 18.2C216.08 20.44 215.427 21.28 214.12 20.72C210.76 19.04 207.027 18.2 202.92 18.2C193.773 18.2 185.093 21.84 176.88 29.12C192.187 29.3067 204.133 32.5733 212.72 38.92C224.853 47.88 230.36 58.4267 229.24 70.56C227.56 89.6 215.707 105.093 193.68 117.04C176.88 126.373 159.52 131.04 141.6 131.04C140.293 131.04 138.893 131.04 137.4 131.04C136.093 131.04 134.693 130.947 133.2 130.76C131.893 134.867 130.027 139.813 127.6 145.6C125.173 151.2 122.28 157.547 118.92 164.64C111.267 180.88 99.7867 196.467 84.48 211.4C64.6933 230.627 45 240.24 25.4 240.24ZM141.32 124.88C154.013 124.88 166.053 120.96 177.44 113.12C188.08 105.84 196.76 95.9467 203.48 83.44C206.467 77.84 207.96 72.4267 207.96 67.2C207.96 57.8667 204.227 50.12 196.76 43.96C189.293 37.9867 180.427 35.3733 170.16 36.12C166.987 40.2267 163.533 46.3867 159.8 54.6C156.067 62.6267 152.147 72.7067 148.04 84.84C145.8 91.3733 143.653 98 141.6 104.72C139.547 111.44 137.493 118.067 135.44 124.6C136.373 124.787 137.307 124.88 138.24 124.88C139.36 124.88 140.387 124.88 141.32 124.88ZM305.333 179.9C305.333 186.02 304.193 191.84 301.913 197.36C299.633 202.76 296.573 207.5 292.733 211.58C288.893 215.66 284.393 218.84 279.233 221.12C274.193 223.4 268.853 224.54 263.213 224.54C258.533 224.54 253.673 223.7 248.633 222.02C243.593 220.34 238.913 217.7 234.593 214.1C230.393 210.38 226.913 205.7 224.153 200.06C221.513 194.3 220.193 187.58 220.193 179.9C220.193 174.38 221.213 169.04 223.253 163.88C225.413 158.72 228.353 154.16 232.073 150.2C235.913 146.24 240.473 143.06 245.753 140.66C251.153 138.26 257.093 137.06 263.573 137.06C268.373 137.06 273.233 137.96 278.153 139.76C283.073 141.56 287.513 144.26 291.473 147.86C295.553 151.34 298.853 155.78 301.373 161.18C304.013 166.46 305.333 172.7 305.333 179.9ZM288.593 179.72C288.593 175.64 288.113 171.26 287.153 166.58C286.313 161.9 284.873 157.58 282.833 153.62C280.793 149.66 278.093 146.42 274.733 143.9C271.373 141.26 267.233 139.94 262.313 139.94C258.353 139.94 254.813 141.14 251.693 143.54C248.573 145.94 245.873 149.12 243.593 153.08C241.433 156.92 239.753 161.3 238.553 166.22C237.473 171.02 236.933 175.94 236.933 180.98C236.933 186.5 237.413 191.72 238.373 196.64C239.333 201.56 240.893 205.94 243.053 209.78C245.213 213.5 247.973 216.5 251.333 218.78C254.693 220.94 258.713 222.02 263.393 222.02C268.073 222.02 271.973 220.64 275.093 217.88C278.333 215 280.913 211.46 282.833 207.26C284.873 202.94 286.313 198.32 287.153 193.4C288.113 188.48 288.593 183.92 288.593 179.72ZM383.767 146.6C383.767 149.24 382.987 151.46 381.427 153.26C379.867 154.94 378.067 155.78 376.027 155.78C374.107 155.78 372.547 155.48 371.347 154.88C370.267 154.16 369.307 153.38 368.467 152.54C367.627 151.7 366.727 150.98 365.767 150.38C364.807 149.66 363.487 149.3 361.807 149.3C360.367 149.3 358.927 149.84 357.487 150.92C356.167 151.88 354.907 153.14 353.707 154.7C352.507 156.26 351.427 158.06 350.467 160.1C349.507 162.02 348.667 163.88 347.947 165.68V217.52C348.307 218.6 349.087 219.44 350.287 220.04C351.487 220.64 352.807 221.06 354.247 221.3C355.807 221.54 357.367 221.72 358.927 221.84C360.607 221.84 362.047 221.96 363.247 222.2V224H322.927V222.2C325.687 221.96 328.027 221.42 329.947 220.58C331.987 219.74 333.007 218.36 333.007 216.44V155.6C333.007 154.64 332.887 153.92 332.647 153.44C332.527 152.96 332.047 152.42 331.207 151.82C330.127 151.22 328.867 150.5 327.427 149.66C325.987 148.7 324.547 147.92 323.107 147.32V146.24L346.687 137.06H347.767L347.407 162.08H347.767C348.367 160.64 349.327 158.54 350.647 155.78C351.967 153.02 353.647 150.26 355.687 147.5C357.727 144.62 360.187 142.16 363.067 140.12C365.947 138.08 369.247 137.06 372.967 137.06C375.967 137.06 378.487 137.96 380.527 139.76C382.687 141.56 383.767 143.84 383.767 146.6ZM481.223 138.86L475.643 149.84H448.283V197.18C448.283 203.3 449.603 207.74 452.243 210.5C454.883 213.26 458.303 214.64 462.503 214.64C465.983 214.64 468.863 214.1 471.143 213.02C473.423 211.82 475.403 210.02 477.083 207.62L478.163 208.16C477.443 209.96 476.423 211.88 475.103 213.92C473.903 215.84 472.223 217.64 470.063 219.32C468.023 220.88 465.563 222.14 462.683 223.1C459.923 223.94 456.623 224.36 452.783 224.36C450.263 224.36 447.803 224 445.403 223.28C443.123 222.44 441.083 221.3 439.283 219.86C437.483 218.3 435.983 216.62 434.783 214.82C433.703 212.9 433.163 210.98 433.163 209.06C433.163 197.78 433.223 187.1 433.343 177.02C433.463 166.82 433.523 157.76 433.523 149.84H420.383V147.86L446.483 123.2H447.923V138.86H481.223ZM580.622 102.5C580.622 104.66 579.902 106.64 578.462 108.44C577.142 110.24 575.342 111.14 573.062 111.14C570.902 111.14 569.042 110.6 567.482 109.52C566.042 108.32 564.662 107 563.342 105.56C562.142 104 560.942 102.5 559.742 101.06C558.662 99.62 557.402 98.66 555.962 98.18C555.242 98.18 554.222 98.36 552.902 98.72C551.582 99.08 550.202 99.86 548.762 101.06C547.442 102.14 546.242 103.82 545.162 106.1C544.202 108.26 543.602 111.2 543.362 114.92C543.122 119.72 542.942 123.86 542.822 127.34C542.822 130.7 542.822 134.54 542.822 138.86H564.062L561.722 146.78H542.642V216.98C542.882 218.06 543.482 218.9 544.442 219.5C545.402 220.1 546.602 220.58 548.042 220.94C549.482 221.3 551.042 221.54 552.722 221.66C554.522 221.78 556.322 221.96 558.122 222.2V224H512.402V222.2C513.722 222.08 515.222 221.9 516.902 221.66C518.702 221.3 520.382 220.94 521.942 220.58C523.622 220.1 525.002 219.56 526.082 218.96C527.162 218.24 527.702 217.4 527.702 216.44V146.78H514.742L516.722 138.86H527.882C527.882 133.82 528.002 128.9 528.242 124.1C528.602 119.18 529.442 115.4 530.762 112.76C532.082 110 533.942 107.48 536.342 105.2C538.742 102.8 541.442 100.76 544.442 99.08C547.562 97.28 550.922 95.9 554.522 94.94C558.242 93.86 562.022 93.32 565.862 93.32C567.662 93.32 569.402 93.5 571.082 93.86C572.882 94.22 574.442 94.76 575.762 95.48C577.202 96.2 578.342 97.16 579.182 98.36C580.142 99.44 580.622 100.82 580.622 102.5ZM685.478 179.9C685.478 186.02 684.338 191.84 682.058 197.36C679.778 202.76 676.718 207.5 672.878 211.58C669.038 215.66 664.538 218.84 659.378 221.12C654.338 223.4 648.998 224.54 643.358 224.54C638.678 224.54 633.818 223.7 628.778 222.02C623.738 220.34 619.058 217.7 614.738 214.1C610.538 210.38 607.058 205.7 604.298 200.06C601.658 194.3 600.338 187.58 600.338 179.9C600.338 174.38 601.358 169.04 603.398 163.88C605.558 158.72 608.498 154.16 612.218 150.2C616.058 146.24 620.618 143.06 625.898 140.66C631.298 138.26 637.238 137.06 643.718 137.06C648.518 137.06 653.378 137.96 658.298 139.76C663.218 141.56 667.658 144.26 671.618 147.86C675.698 151.34 678.998 155.78 681.518 161.18C684.158 166.46 685.478 172.7 685.478 179.9ZM668.738 179.72C668.738 175.64 668.258 171.26 667.298 166.58C666.458 161.9 665.018 157.58 662.978 153.62C660.938 149.66 658.238 146.42 654.878 143.9C651.518 141.26 647.378 139.94 642.458 139.94C638.498 139.94 634.958 141.14 631.838 143.54C628.718 145.94 626.018 149.12 623.738 153.08C621.578 156.92 619.898 161.3 618.698 166.22C617.618 171.02 617.078 175.94 617.078 180.98C617.078 186.5 617.558 191.72 618.518 196.64C619.478 201.56 621.038 205.94 623.198 209.78C625.358 213.5 628.118 216.5 631.478 218.78C634.838 220.94 638.858 222.02 643.538 222.02C648.218 222.02 652.118 220.64 655.238 217.88C658.478 215 661.058 211.46 662.978 207.26C665.018 202.94 666.458 198.32 667.298 193.4C668.258 188.48 668.738 183.92 668.738 179.72ZM768.052 224H726.112V222.02C731.632 221.66 735.292 221.12 737.092 220.4C738.892 219.56 739.792 218.18 739.792 216.26V112.76C739.792 111.8 739.672 111.08 739.432 110.6C739.312 110.12 738.832 109.58 737.992 108.98C736.912 108.38 735.292 107.48 733.132 106.28C730.972 104.96 729.172 104 727.732 103.4V102.32L753.472 93.86H754.732V217.16C754.732 218.36 754.972 219.26 755.452 219.86C756.052 220.46 756.892 220.88 757.972 221.12C759.052 221.36 760.432 221.54 762.112 221.66C763.792 221.66 765.772 221.78 768.052 222.02V224ZM837.008 108.62C837.008 111.38 836.048 113.72 834.128 115.64C832.328 117.44 830.048 118.34 827.288 118.34C824.648 118.34 822.368 117.38 820.448 115.46C818.528 113.54 817.568 111.26 817.568 108.62C817.568 105.86 818.468 103.58 820.268 101.78C822.188 99.98 824.528 99.08 827.288 99.08C830.048 99.08 832.328 99.98 834.128 101.78C836.048 103.58 837.008 105.86 837.008 108.62ZM847.088 224H808.388V222.2C809.828 222.08 811.268 221.96 812.708 221.84C814.148 221.6 815.408 221.3 816.488 220.94C817.688 220.46 818.648 219.86 819.368 219.14C820.208 218.42 820.628 217.52 820.628 216.44V154.7C820.628 153.74 820.508 152.9 820.268 152.18C820.148 151.46 819.668 150.8 818.828 150.2C817.748 149.48 816.428 148.76 814.868 148.04C813.428 147.32 811.868 146.66 810.188 146.06V144.98L834.488 137.06H835.568V217.52C835.808 218.72 836.288 219.62 837.008 220.22C837.848 220.7 838.808 221.06 839.888 221.3C840.968 221.54 842.108 221.72 843.308 221.84C844.628 221.84 845.888 221.96 847.088 222.2V224ZM975.412 179.9C975.412 186.02 974.272 191.84 971.992 197.36C969.712 202.76 966.652 207.5 962.812 211.58C958.972 215.66 954.472 218.84 949.312 221.12C944.272 223.4 938.932 224.54 933.292 224.54C928.612 224.54 923.752 223.7 918.712 222.02C913.672 220.34 908.992 217.7 904.672 214.1C900.472 210.38 896.992 205.7 894.232 200.06C891.592 194.3 890.272 187.58 890.272 179.9C890.272 174.38 891.292 169.04 893.332 163.88C895.492 158.72 898.432 154.16 902.152 150.2C905.992 146.24 910.552 143.06 915.832 140.66C921.232 138.26 927.172 137.06 933.652 137.06C938.452 137.06 943.312 137.96 948.232 139.76C953.152 141.56 957.592 144.26 961.552 147.86C965.632 151.34 968.932 155.78 971.452 161.18C974.092 166.46 975.412 172.7 975.412 179.9ZM958.672 179.72C958.672 175.64 958.192 171.26 957.232 166.58C956.392 161.9 954.952 157.58 952.912 153.62C950.872 149.66 948.172 146.42 944.812 143.9C941.452 141.26 937.312 139.94 932.392 139.94C928.432 139.94 924.892 141.14 921.772 143.54C918.652 145.94 915.952 149.12 913.672 153.08C911.512 156.92 909.832 161.3 908.632 166.22C907.552 171.02 907.012 175.94 907.012 180.98C907.012 186.5 907.492 191.72 908.452 196.64C909.412 201.56 910.972 205.94 913.132 209.78C915.292 213.5 918.052 216.5 921.412 218.78C924.772 220.94 928.792 222.02 933.472 222.02C938.152 222.02 942.052 220.64 945.172 217.88C948.412 215 950.992 211.46 952.912 207.26C954.952 202.94 956.392 198.32 957.232 193.4C958.192 188.48 958.672 183.92 958.672 179.72Z" fill="#FF33BA"/>
<path d="M187.504 392.84C184.091 392.84 181.253 391.304 178.992 388.232C176.731 385.117 175.6 381.149 175.6 376.328C175.6 373.64 175.941 370.952 176.624 368.264C177.989 363.059 181.317 357.768 186.608 352.392C192.496 346.376 198.875 342.472 205.744 340.68C205.915 340.637 206.064 340.616 206.192 340.616C206.363 340.573 206.491 340.552 206.576 340.552C207.003 340.552 207.216 340.68 207.216 340.936C207.216 341.405 206.725 341.768 205.744 342.024C199.301 343.731 193.648 347.571 188.784 353.544C186.992 355.763 185.435 358.045 184.112 360.392C182.832 362.739 181.787 365.171 180.976 367.688C179.824 371.187 179.248 374.685 179.248 378.184C179.248 382.109 179.973 385.245 181.424 387.592C183.045 390.152 185.243 391.432 188.016 391.432C188.229 391.432 188.421 391.432 188.592 391.432C188.805 391.432 188.997 391.411 189.168 391.368H189.552C190.107 391.368 190.384 391.517 190.384 391.816C190.384 392.328 189.829 392.648 188.72 392.776C188.549 392.819 188.357 392.84 188.144 392.84C187.931 392.84 187.717 392.84 187.504 392.84ZM243.927 359.432C243.5 359.432 242.967 359.475 242.327 359.56C241.73 359.645 241.111 359.816 240.471 360.072C239.831 360.285 239.234 360.627 238.679 361.096C238.124 361.565 237.676 362.184 237.335 362.952C236.823 364.147 236.226 365.555 235.543 367.176C234.903 368.797 234.22 370.504 233.495 372.296C232.77 374.088 232.044 375.88 231.319 377.672C230.636 379.464 229.996 381.107 229.399 382.6C229.058 383.368 228.759 384.029 228.503 384.584C228.29 385.096 228.076 385.587 227.863 386.056C227.65 386.525 227.436 386.973 227.223 387.4C227.052 387.827 226.839 388.317 226.583 388.872C226.455 389.128 226.242 389.256 225.943 389.256C225.772 389.256 225.644 389.192 225.559 389.064C225.474 388.979 225.41 388.893 225.367 388.808C224.684 387.059 224.044 385.416 223.447 383.88C222.85 382.301 222.231 380.701 221.591 379.08C220.951 377.416 220.268 375.645 219.543 373.768C218.818 371.891 218.007 369.779 217.111 367.432C216.983 367.091 216.791 366.643 216.535 366.088C216.322 365.491 216.087 364.872 215.831 364.232C215.575 363.592 215.319 362.973 215.063 362.376C214.807 361.779 214.572 361.288 214.359 360.904C214.103 360.648 213.698 360.371 213.143 360.072C212.631 359.731 211.671 359.517 210.263 359.432V358.728H225.687V359.432C225.303 359.475 224.812 359.539 224.215 359.624C223.66 359.667 223.127 359.752 222.615 359.88C222.103 360.008 221.655 360.2 221.271 360.456C220.93 360.669 220.759 361.011 220.759 361.48C220.759 361.693 220.887 362.205 221.143 363.016C221.442 363.827 221.804 364.829 222.231 366.024C222.7 367.219 223.212 368.541 223.767 369.992C224.322 371.443 224.876 372.893 225.431 374.344C226.028 375.795 226.604 377.203 227.159 378.568C227.714 379.933 228.183 381.128 228.567 382.152C229.207 380.573 229.954 378.696 230.807 376.52C231.66 374.344 232.471 372.211 233.239 370.12C234.007 368.029 234.647 366.195 235.159 364.616C235.714 363.037 235.991 362.056 235.991 361.672C235.991 361.075 235.82 360.627 235.479 360.328C235.18 359.987 234.796 359.752 234.327 359.624C233.858 359.496 233.367 359.432 232.855 359.432C232.343 359.432 231.895 359.411 231.511 359.368V358.728H243.927V359.432ZM268.078 347.976C268.078 348.957 267.737 349.789 267.054 350.472C266.414 351.112 265.603 351.432 264.622 351.432C263.683 351.432 262.873 351.091 262.19 350.408C261.507 349.725 261.166 348.915 261.166 347.976C261.166 346.995 261.486 346.184 262.126 345.544C262.809 344.904 263.641 344.584 264.622 344.584C265.603 344.584 266.414 344.904 267.054 345.544C267.737 346.184 268.078 346.995 268.078 347.976ZM271.662 389H257.902V388.36C258.414 388.317 258.926 388.275 259.438 388.232C259.95 388.147 260.398 388.04 260.782 387.912C261.209 387.741 261.55 387.528 261.806 387.272C262.105 387.016 262.254 386.696 262.254 386.312V364.36C262.254 364.019 262.211 363.72 262.126 363.464C262.083 363.208 261.913 362.973 261.614 362.76C261.23 362.504 260.761 362.248 260.206 361.992C259.694 361.736 259.139 361.501 258.542 361.288V360.904L267.182 358.088H267.566V386.696C267.651 387.123 267.822 387.443 268.078 387.656C268.377 387.827 268.718 387.955 269.102 388.04C269.486 388.125 269.891 388.189 270.318 388.232C270.787 388.232 271.235 388.275 271.662 388.36V389ZM312.616 379.656C312.616 381.32 312.275 382.771 311.592 384.008C310.952 385.203 310.077 386.184 308.968 386.952C307.859 387.72 306.579 388.275 305.128 388.616C303.72 388.957 302.227 389.128 300.648 389.128C298.771 389.128 297 388.957 295.336 388.616C293.672 388.275 292.136 387.784 290.728 387.144V378.696H291.24C291.581 379.72 292.008 380.808 292.52 381.96C293.032 383.069 293.651 384.115 294.376 385.096C295.101 386.035 295.976 386.824 297 387.464C298.024 388.061 299.24 388.36 300.648 388.36C302.696 388.36 304.317 387.784 305.512 386.632C306.749 385.437 307.368 383.624 307.368 381.192C307.368 379.869 306.941 378.781 306.088 377.928C305.277 377.032 304.147 376.435 302.696 376.136C301.544 375.923 300.435 375.688 299.368 375.432C298.301 375.176 297.341 374.899 296.488 374.6C294.867 374.045 293.544 373.085 292.52 371.72C291.539 370.355 291.048 368.712 291.048 366.792C291.048 365.469 291.325 364.275 291.88 363.208C292.435 362.141 293.181 361.224 294.12 360.456C295.059 359.688 296.147 359.112 297.384 358.728C298.621 358.301 299.944 358.088 301.352 358.088C303.144 358.088 304.723 358.259 306.088 358.6C307.453 358.899 308.755 359.283 309.992 359.752L310.76 367.688L310.248 367.816C309.651 366.536 309.053 365.363 308.456 364.296C307.859 363.187 307.197 362.248 306.472 361.48C305.747 360.669 304.915 360.051 303.976 359.624C303.08 359.197 302.035 358.984 300.84 358.984C300.115 358.984 299.389 359.112 298.664 359.368C297.981 359.624 297.363 360.008 296.808 360.52C296.296 360.989 295.869 361.608 295.528 362.376C295.187 363.101 295.016 363.955 295.016 364.936C295.016 366.515 295.464 367.645 296.36 368.328C297.256 369.011 298.387 369.523 299.752 369.864C300.691 370.077 301.715 370.312 302.824 370.568C303.933 370.781 304.893 370.995 305.704 371.208C307.624 371.677 309.245 372.659 310.568 374.152C311.933 375.645 312.616 377.48 312.616 379.656ZM361.822 387.4L352.734 389.064H352.286V382.6L352.222 382.536C351.752 383.261 351.176 384.029 350.494 384.84C349.811 385.651 349.043 386.397 348.19 387.08C347.336 387.72 346.376 388.232 345.31 388.616C344.286 389 343.176 389.192 341.982 389.192C339.251 389.192 337.224 388.381 335.902 386.76C334.622 385.139 333.982 382.771 333.982 379.656V364.04C333.982 363.869 333.982 363.635 333.982 363.336C333.982 363.037 333.96 362.739 333.918 362.44C333.875 362.099 333.832 361.8 333.79 361.544C333.79 361.245 333.747 361.032 333.661 360.904C333.491 360.52 333.235 360.243 332.894 360.072C332.595 359.901 332.254 359.773 331.87 359.688C331.486 359.603 331.08 359.56 330.654 359.56C330.227 359.517 329.822 359.475 329.438 359.432V358.728H339.358V377.352C339.358 380.168 339.784 382.259 340.638 383.624C341.491 384.947 343.091 385.608 345.438 385.608C346.334 385.608 347.102 385.501 347.742 385.288C348.424 385.032 349.022 384.733 349.534 384.392C350.088 384.008 350.579 383.581 351.006 383.112C351.475 382.643 351.902 382.152 352.286 381.64V363.4C352.286 362.973 352.243 362.44 352.158 361.8C352.072 361.117 351.902 360.605 351.646 360.264C351.134 360.051 350.43 359.88 349.534 359.752C348.68 359.624 347.784 359.517 346.846 359.432V358.728H357.598V384.008C357.598 384.349 357.619 384.605 357.662 384.776C357.747 384.947 357.939 385.139 358.238 385.352C358.622 385.565 359.176 385.843 359.902 386.184C360.67 386.525 361.31 386.803 361.822 387.016V387.4ZM408.698 382.728C408.655 383.539 408.463 384.328 408.122 385.096C407.78 385.864 407.332 386.568 406.778 387.208C406.223 387.805 405.562 388.275 404.794 388.616C404.068 388.915 403.258 389.064 402.362 389.064C400.911 389.064 399.61 388.637 398.458 387.784C397.348 386.931 396.794 385.437 396.794 383.304L396.666 383.24C396.324 383.795 395.855 384.413 395.258 385.096C394.703 385.779 394.02 386.419 393.21 387.016C392.442 387.613 391.567 388.104 390.586 388.488C389.647 388.829 388.602 389 387.45 389C386.767 389 386.063 388.915 385.338 388.744C384.655 388.531 384.015 388.189 383.418 387.72C382.863 387.208 382.394 386.568 382.01 385.8C381.668 385.032 381.498 384.093 381.498 382.984C381.498 381.789 381.967 380.637 382.906 379.528C383.887 378.419 385.082 377.416 386.49 376.52C387.898 375.624 389.135 374.856 390.202 374.216C391.311 373.576 392.271 373.043 393.082 372.616C393.892 372.147 394.596 371.763 395.194 371.464C395.834 371.123 396.367 370.824 396.794 370.568V363.976C396.794 363.891 396.708 363.699 396.538 363.4C396.41 363.059 396.154 362.717 395.77 362.376C395.428 362.035 394.938 361.736 394.298 361.48C393.658 361.181 392.826 361.032 391.802 361.032C391.119 361.032 390.436 361.16 389.754 361.416C389.114 361.629 388.538 361.928 388.026 362.312C387.514 362.653 387.108 363.016 386.81 363.4C386.511 363.741 386.362 364.04 386.362 364.296V367.176C386.362 367.773 386.042 368.307 385.402 368.776C384.804 369.245 384.143 369.48 383.418 369.48C382.735 369.48 382.138 369.245 381.626 368.776C381.156 368.264 380.922 367.688 380.922 367.048C380.922 366.536 381.05 366.067 381.306 365.64C381.562 365.213 381.882 364.829 382.266 364.488C382.65 364.147 383.055 363.848 383.482 363.592C383.951 363.336 384.356 363.101 384.698 362.888C385.807 362.248 386.938 361.629 388.09 361.032C389.242 360.435 390.33 359.923 391.354 359.496C392.42 359.069 393.38 358.728 394.234 358.472C395.13 358.216 395.855 358.088 396.41 358.088C397.519 358.088 398.564 358.387 399.546 358.984C400.527 359.539 401.231 360.243 401.658 361.096C401.828 361.395 401.935 361.928 401.978 362.696C402.02 363.421 402.042 364.147 402.042 364.872C402.042 366.408 402.02 367.795 401.978 369.032C401.978 370.269 401.978 371.464 401.978 372.616C401.978 373.768 401.956 374.963 401.914 376.2C401.914 377.395 401.914 378.717 401.914 380.168C401.914 382.088 402.234 383.368 402.874 384.008C403.556 384.605 404.324 384.904 405.178 384.904C406.159 384.904 406.884 384.712 407.354 384.328C407.823 383.901 408.143 383.368 408.314 382.728H408.698ZM396.794 381.448V371.592C396.026 372.147 395.066 372.744 393.914 373.384C392.762 373.981 391.631 374.643 390.522 375.368C389.455 376.093 388.516 376.904 387.706 377.8C386.938 378.653 386.554 379.635 386.554 380.744C386.554 381.853 386.938 382.856 387.706 383.752C388.474 384.648 389.476 385.096 390.714 385.096C391.823 385.096 392.804 384.968 393.658 384.712C394.511 384.456 395.3 383.965 396.026 383.24C396.538 382.771 396.794 382.173 396.794 381.448ZM438.985 389H424.073V388.296C426.036 388.168 427.337 387.976 427.977 387.72C428.617 387.421 428.937 386.931 428.937 386.248V349.448C428.937 349.107 428.894 348.851 428.809 348.68C428.766 348.509 428.596 348.317 428.297 348.104C427.913 347.891 427.337 347.571 426.569 347.144C425.801 346.675 425.161 346.333 424.649 346.12V345.736L433.801 342.728H434.249V386.568C434.249 386.995 434.334 387.315 434.505 387.528C434.718 387.741 435.017 387.891 435.401 387.976C435.785 388.061 436.276 388.125 436.873 388.168C437.47 388.168 438.174 388.211 438.985 388.296V389ZM518.925 386.504L509.453 389.192H509.069V382.792H509.005C507.767 384.925 506.295 386.504 504.589 387.528C502.925 388.552 500.834 389.064 498.317 389.064C496.738 389.064 495.202 388.765 493.709 388.168C492.258 387.528 490.957 386.568 489.805 385.288C488.653 383.965 487.735 382.365 487.053 380.488C486.37 378.568 486.029 376.371 486.029 373.896C486.029 371.677 486.413 369.608 487.181 367.688C487.991 365.768 489.101 364.104 490.509 362.696C491.959 361.245 493.687 360.115 495.693 359.304C497.698 358.493 499.917 358.088 502.349 358.088C503.629 358.088 504.823 358.195 505.933 358.408C507.085 358.621 508.13 358.877 509.069 359.176C509.026 358.536 508.983 357.661 508.941 356.552C508.941 355.443 508.941 354.312 508.941 353.16C508.941 352.008 508.941 350.941 508.941 349.96C508.941 348.936 508.941 348.189 508.941 347.72L503.693 345.736V345.352L513.869 342.536H514.381V384.072C514.722 384.285 515.362 384.584 516.301 384.968C517.239 385.352 518.114 385.715 518.925 386.056V386.504ZM509.005 380.36V365.128C508.066 363.379 506.871 361.971 505.421 360.904C503.97 359.837 502.626 359.304 501.389 359.304C499.725 359.304 498.295 359.688 497.101 360.456C495.949 361.224 494.989 362.248 494.22 363.528C493.453 364.808 492.877 366.28 492.493 367.944C492.151 369.608 491.981 371.315 491.981 373.064C491.981 374.813 492.194 376.52 492.621 378.184C493.047 379.805 493.687 381.256 494.541 382.536C495.394 383.773 496.439 384.776 497.677 385.544C498.957 386.312 500.429 386.696 502.093 386.696C503.842 386.696 505.335 386.099 506.573 384.904C507.853 383.709 508.663 382.195 509.005 380.36ZM563.462 379.272C563.291 380.211 562.907 381.277 562.31 382.472C561.713 383.624 560.902 384.691 559.878 385.672C558.854 386.653 557.617 387.464 556.166 388.104C554.758 388.744 553.179 389.064 551.43 389.064C549.254 389.064 547.27 388.659 545.478 387.848C543.686 387.037 542.15 385.907 540.87 384.456C539.633 382.963 538.673 381.235 537.99 379.272C537.307 377.267 536.966 375.155 536.966 372.936C536.966 371.144 537.286 369.373 537.926 367.624C538.566 365.832 539.462 364.232 540.614 362.824C541.809 361.416 543.238 360.285 544.902 359.432C546.609 358.536 548.486 358.088 550.534 358.088C552.198 358.088 553.755 358.301 555.206 358.728C556.699 359.155 557.979 359.816 559.046 360.712C560.155 361.565 561.051 362.653 561.734 363.976C562.417 365.299 562.822 366.856 562.95 368.648H542.406C542.406 368.989 542.385 369.395 542.342 369.864C542.299 370.291 542.278 370.739 542.278 371.208C542.278 373 542.534 374.728 543.046 376.392C543.558 378.013 544.305 379.464 545.286 380.744C546.267 381.981 547.505 382.963 548.998 383.688C550.491 384.413 552.219 384.776 554.182 384.776C556.315 384.776 558.171 384.243 559.75 383.176C561.371 382.067 562.438 380.723 562.95 379.144L563.462 379.272ZM556.614 364.936C556.614 363.357 556.059 362.013 554.95 360.904C553.883 359.752 552.433 359.176 550.598 359.176C549.403 359.176 548.315 359.539 547.334 360.264C546.395 360.947 545.563 361.757 544.838 362.696C544.155 363.635 543.622 364.595 543.238 365.576C542.854 366.515 542.619 367.24 542.534 367.752C543.515 367.752 544.39 367.752 545.158 367.752C545.926 367.752 546.673 367.752 547.398 367.752C548.166 367.709 548.955 367.688 549.766 367.688C550.577 367.645 551.473 367.624 552.454 367.624C553.094 367.624 553.691 367.603 554.246 367.56C554.801 367.517 555.291 367.411 555.718 367.24C556.017 366.899 556.23 366.579 556.358 366.28C556.529 365.981 556.614 365.533 556.614 364.936ZM603.179 379.656C603.179 381.32 602.837 382.771 602.155 384.008C601.515 385.203 600.64 386.184 599.531 386.952C598.421 387.72 597.141 388.275 595.691 388.616C594.283 388.957 592.789 389.128 591.211 389.128C589.333 389.128 587.563 388.957 585.899 388.616C584.235 388.275 582.699 387.784 581.291 387.144V378.696H581.803C582.144 379.72 582.571 380.808 583.083 381.96C583.595 383.069 584.213 384.115 584.939 385.096C585.664 386.035 586.539 386.824 587.562 387.464C588.587 388.061 589.803 388.36 591.211 388.36C593.259 388.36 594.88 387.784 596.075 386.632C597.312 385.437 597.931 383.624 597.931 381.192C597.931 379.869 597.504 378.781 596.651 377.928C595.84 377.032 594.709 376.435 593.259 376.136C592.107 375.923 590.997 375.688 589.931 375.432C588.864 375.176 587.904 374.899 587.051 374.6C585.429 374.045 584.107 373.085 583.083 371.72C582.101 370.355 581.611 368.712 581.611 366.792C581.611 365.469 581.888 364.275 582.443 363.208C582.997 362.141 583.744 361.224 584.683 360.456C585.621 359.688 586.709 359.112 587.947 358.728C589.184 358.301 590.507 358.088 591.915 358.088C593.707 358.088 595.285 358.259 596.651 358.6C598.016 358.899 599.317 359.283 600.555 359.752L601.323 367.688L600.811 367.816C600.213 366.536 599.616 365.363 599.019 364.296C598.421 363.187 597.76 362.248 597.035 361.48C596.309 360.669 595.477 360.051 594.539 359.624C593.643 359.197 592.597 358.984 591.403 358.984C590.677 358.984 589.952 359.112 589.227 359.368C588.544 359.624 587.925 360.008 587.371 360.52C586.859 360.989 586.432 361.608 586.091 362.376C585.749 363.101 585.579 363.955 585.579 364.936C585.579 366.515 586.027 367.645 586.923 368.328C587.819 369.011 588.949 369.523 590.315 369.864C591.253 370.077 592.277 370.312 593.387 370.568C594.496 370.781 595.456 370.995 596.267 371.208C598.187 371.677 599.808 372.659 601.131 374.152C602.496 375.645 603.179 377.48 603.179 379.656ZM631.328 347.976C631.328 348.957 630.987 349.789 630.304 350.472C629.664 351.112 628.853 351.432 627.872 351.432C626.933 351.432 626.123 351.091 625.44 350.408C624.757 349.725 624.416 348.915 624.416 347.976C624.416 346.995 624.736 346.184 625.376 345.544C626.059 344.904 626.891 344.584 627.872 344.584C628.853 344.584 629.664 344.904 630.304 345.544C630.987 346.184 631.328 346.995 631.328 347.976ZM634.912 389H621.152V388.36C621.664 388.317 622.176 388.275 622.688 388.232C623.2 388.147 623.648 388.04 624.032 387.912C624.459 387.741 624.8 387.528 625.056 387.272C625.355 387.016 625.504 386.696 625.504 386.312V364.36C625.504 364.019 625.461 363.72 625.376 363.464C625.333 363.208 625.163 362.973 624.864 362.76C624.48 362.504 624.011 362.248 623.456 361.992C622.944 361.736 622.389 361.501 621.792 361.288V360.904L630.432 358.088H630.816V386.696C630.901 387.123 631.072 387.443 631.328 387.656C631.627 387.827 631.968 387.955 632.352 388.04C632.736 388.125 633.141 388.189 633.568 388.232C634.037 388.232 634.485 388.275 634.912 388.36V389ZM686.49 361.608C686.49 362.248 686.255 362.824 685.786 363.336C685.359 363.805 684.826 364.04 684.186 364.04C683.93 364.04 683.546 363.933 683.034 363.72C682.522 363.507 681.946 363.251 681.306 362.952C680.709 362.653 680.09 362.333 679.45 361.992C678.81 361.608 678.234 361.267 677.722 360.968L677.466 361.224C678.106 362.205 678.639 363.123 679.066 363.976C679.535 364.829 679.77 365.939 679.77 367.304C679.77 370.675 678.597 373.213 676.25 374.92C673.903 376.584 670.661 377.416 666.522 377.416C665.925 377.416 665.306 377.373 664.666 377.288C664.069 377.203 663.343 377.16 662.49 377.16C661.125 377.245 660.037 377.565 659.226 378.12C658.415 378.675 658.01 379.379 658.01 380.232C658.01 380.915 658.223 381.491 658.65 381.96C659.077 382.387 659.61 382.728 660.25 382.984C660.89 383.24 661.594 383.411 662.362 383.496C663.13 383.581 663.877 383.624 664.602 383.624H674.842C676.335 383.624 677.679 383.859 678.874 384.328C680.069 384.797 681.093 385.437 681.946 386.248C682.799 387.059 683.439 387.976 683.866 389C684.335 390.067 684.57 391.24 684.57 392.52C684.57 394.184 684.143 395.763 683.29 397.256C682.479 398.792 681.327 400.136 679.834 401.288C678.341 402.44 676.57 403.336 674.522 403.976C672.517 404.659 670.298 405 667.866 405C663.215 405 659.589 404.296 656.986 402.888C654.426 401.523 653.146 399.624 653.146 397.192C653.146 396.296 653.381 395.485 653.85 394.76C654.362 394.035 654.981 393.331 655.706 392.648C656.474 392.008 657.306 391.389 658.202 390.792C659.141 390.237 660.058 389.683 660.954 389.128V389C658.778 388.744 657.093 388.125 655.898 387.144C654.746 386.163 654.17 384.861 654.17 383.24C654.17 382.429 654.362 381.661 654.746 380.936C655.13 380.211 655.663 379.549 656.346 378.952C657.029 378.355 657.818 377.864 658.714 377.48C659.653 377.053 660.655 376.776 661.722 376.648V376.456C659.845 375.731 658.373 374.664 657.306 373.256C656.282 371.848 655.77 370.056 655.77 367.88C655.77 366.515 656.069 365.235 656.666 364.04C657.306 362.845 658.181 361.821 659.29 360.968C660.399 360.072 661.701 359.368 663.194 358.856C664.73 358.344 666.394 358.088 668.186 358.088C669.807 358.088 671.237 358.237 672.474 358.536C673.754 358.835 675.077 359.347 676.442 360.072C676.954 360.243 677.381 360.349 677.722 360.392C678.106 360.435 678.554 360.456 679.066 360.456C679.578 360.456 680.026 360.392 680.41 360.264C680.837 360.093 681.221 359.923 681.562 359.752C681.903 359.539 682.266 359.368 682.65 359.24C683.034 359.069 683.482 358.984 683.994 358.984C684.719 358.984 685.317 359.24 685.786 359.752C686.255 360.264 686.49 360.883 686.49 361.608ZM674.65 367.304C674.65 366.195 674.501 365.149 674.202 364.168C673.903 363.187 673.455 362.333 672.858 361.608C672.303 360.84 671.578 360.243 670.682 359.816C669.829 359.347 668.826 359.112 667.674 359.112C666.607 359.112 665.647 359.368 664.794 359.88C663.941 360.349 663.215 361.011 662.618 361.864C662.063 362.675 661.637 363.613 661.338 364.68C661.039 365.747 660.89 366.835 660.89 367.944C660.89 370.504 661.53 372.573 662.81 374.152C664.133 375.688 665.733 376.456 667.61 376.456C668.762 376.456 669.765 376.2 670.618 375.688C671.514 375.176 672.261 374.493 672.858 373.64C673.455 372.787 673.903 371.827 674.202 370.76C674.501 369.651 674.65 368.499 674.65 367.304ZM680.282 395.144C680.282 393.907 680.026 392.84 679.514 391.944C679.002 391.048 678.383 390.429 677.658 390.088C676.719 389.619 675.546 389.277 674.138 389.064C672.73 388.893 670.789 388.808 668.314 388.808C667.418 388.808 666.501 388.851 665.562 388.936C664.623 389.021 663.855 389.107 663.258 389.192C661.253 389.704 659.866 390.515 659.098 391.624C658.33 392.733 657.946 393.949 657.946 395.272C657.946 396.637 658.309 397.832 659.034 398.856C659.802 399.88 660.741 400.733 661.85 401.416C662.959 402.141 664.133 402.675 665.37 403.016C666.65 403.357 667.823 403.528 668.89 403.528C670.17 403.528 671.258 403.464 672.154 403.336C673.093 403.208 673.925 403.016 674.65 402.76C676.143 402.163 677.445 401.203 678.554 399.88C679.706 398.557 680.282 396.979 680.282 395.144ZM734.643 389H721.587V388.296C722.739 388.211 723.656 388.083 724.339 387.912C725.022 387.699 725.363 387.251 725.363 386.568V370.44C725.363 367.965 724.894 365.981 723.955 364.488C723.016 362.952 721.438 362.184 719.219 362.184C717.811 362.184 716.638 362.483 715.699 363.08C714.76 363.677 713.715 364.552 712.563 365.704V386.696C712.648 387.123 712.798 387.443 713.011 387.656C713.224 387.827 713.48 387.955 713.779 388.04C714.078 388.125 714.419 388.189 714.803 388.232C715.187 388.232 715.592 388.275 716.019 388.36V389H703.667V388.36C704.648 388.275 705.48 388.083 706.163 387.784C706.888 387.485 707.251 386.995 707.251 386.312V364.296C707.251 363.955 707.208 363.699 707.123 363.528C707.08 363.357 706.91 363.165 706.611 362.952C706.227 362.739 705.779 362.504 705.267 362.248C704.755 361.949 704.243 361.693 703.731 361.48V361.096L712.115 358.088H712.499V365L712.627 365.064C713.096 364.339 713.672 363.571 714.355 362.76C715.08 361.907 715.891 361.139 716.787 360.456C717.683 359.773 718.664 359.219 719.731 358.792C720.798 358.323 721.907 358.088 723.059 358.088C725.534 358.088 727.432 359.005 728.755 360.84C730.078 362.675 730.739 365.043 730.739 367.944V386.76C730.739 387.059 730.867 387.315 731.123 387.528C731.422 387.741 731.763 387.912 732.147 388.04C732.531 388.125 732.936 388.211 733.363 388.296C733.832 388.339 734.259 388.381 734.643 388.424V389ZM752.786 392.392C752.359 392.392 752.146 392.264 752.146 392.008C752.146 391.539 752.658 391.176 753.682 390.92C756.925 390.067 759.954 388.68 762.77 386.76C765.586 384.84 768.21 382.387 770.642 379.4C774.226 375.005 776.807 370.291 778.386 365.256C779.538 361.715 780.114 358.216 780.114 354.76C780.114 350.835 779.389 347.699 777.938 345.352C776.402 342.792 774.205 341.512 771.346 341.512C771.175 341.512 771.005 341.512 770.834 341.512C770.663 341.512 770.471 341.533 770.258 341.576H769.874C769.277 341.576 768.978 341.427 768.978 341.128C768.978 340.616 769.533 340.296 770.642 340.168C770.855 340.125 771.069 340.104 771.282 340.104C771.495 340.104 771.687 340.104 771.858 340.104C775.314 340.104 778.151 341.64 780.37 344.712C782.674 347.827 783.826 351.795 783.826 356.616C783.826 359.176 783.463 361.864 782.738 364.68C781.415 369.843 778.109 375.133 772.818 380.552C766.93 386.611 760.53 390.515 753.618 392.264C753.447 392.307 753.298 392.328 753.17 392.328C753.042 392.371 752.914 392.392 752.786 392.392Z" fill="#FF33BA"/>
</svg>
