<svg width="198" height="59" viewBox="0 0 198 59" fill="none" xmlns="http://www.w3.org/2000/svg">
<path d="M15.375 58.175C13.025 58.175 11.175 57.275 9.825 55.475C8.625 53.825 8.025 51.625 8.025 48.875C8.025 45.475 9.175 41.4 11.475 36.65C4.275 36.2 0.675 32.625 0.675 25.925C0.675 22.125 1.875 18.025 4.275 13.625C5.125 12.025 6.075 10.525 7.125 9.125C8.175 7.675 9.325 6.4 10.575 5.3C13.725 2.35 16.95 0.874999 20.25 0.874999C26.4 0.874999 29.475 4.15 29.475 10.7C29.475 12.45 29.175 14.3 28.575 16.25C28.025 18.2 27.1 20.25 25.8 22.4C24.55 24.55 23.225 26.675 21.825 28.775C20.425 30.825 19.075 32.9 17.775 35C20.125 34.6 22.725 33.9 25.575 32.9C25.725 32.85 25.9 32.825 26.1 32.825C26.5 32.825 26.7 33 26.7 33.35C26.7 33.65 26.425 33.925 25.875 34.175C24.225 34.725 22.65 35.2 21.15 35.6C19.65 36 18.225 36.3 16.875 36.5C14.025 41.45 12.6 45.825 12.6 49.625C12.6 51.475 12.9 53 13.5 54.2C14.35 55.65 15.525 56.375 17.025 56.375C19.775 56.375 22.975 54.325 26.625 50.225C28.175 48.525 30.65 44.725 34.05 38.825C34.75 34.775 35.675 31.4 36.825 28.7C38.025 25.9 39.6 24.5 41.55 24.5C42.85 24.5 43.5 25.275 43.5 26.825C43.5 27.625 43.225 28.7 42.675 30.05C42.275 31 41.8 31.925 41.25 32.825C40.75 33.725 40.225 34.6 39.675 35.45L36.975 39.2C35.775 42.4 35.175 45.625 35.175 48.875C35.175 49.925 35.25 50.875 35.4 51.725C36 54.925 37.5 56.525 39.9 56.525C46.05 56.525 52.725 49.625 59.925 35.825C62.425 31.125 63.675 26.075 63.675 20.675C63.675 15.675 62.25 12.125 59.4 10.025C58.15 9.075 56.375 8.6 54.075 8.6C51.625 8.6 49.825 9.275 48.675 10.625C48.275 11.025 47.925 11.225 47.625 11.225C47.325 11.225 47.175 11.1 47.175 10.85C47.175 10.6 47.275 10.375 47.475 10.175C49.125 8.175 51.875 7.175 55.725 7.175C57.975 7.175 59.875 7.55 61.425 8.3C66.125 10.6 68.475 14.925 68.475 21.275C68.475 25.975 67.2 30.775 64.65 35.675C63.2 38.475 61.65 41.075 60 43.475C58.35 45.875 56.6 48.025 54.75 49.925C49.7 55.275 44.75 57.95 39.9 57.95C36.05 57.95 33.625 56.3 32.625 53C32.275 51.9 32.1 50.625 32.1 49.175C32.1 47.875 32.25 46.525 32.55 45.125C31.6 46.525 30.65 47.825 29.7 49.025C28.8 50.175 27.875 51.225 26.925 52.175C22.925 56.175 19.075 58.175 15.375 58.175ZM12.15 35.3C13.3 33.25 14.45 31.2 15.6 29.15C16.8 27.1 17.975 25.025 19.125 22.925C21.875 17.975 23.65 13.925 24.45 10.775C24.75 9.475 24.9 8.3 24.9 7.25C24.9 4 23.475 2.375 20.625 2.375C18.575 2.375 16.3 3.475 13.8 5.675C11.1 8.075 8.825 11.2 6.975 15.05C5.025 19.1 4.05 22.8 4.05 26.15C4.05 31.7 6.75 34.75 12.15 35.3ZM97.7045 40.475C97.7045 45.075 96.1545 49 93.0545 52.25C89.9545 55.45 86.1295 57.05 81.5795 57.05C77.0295 57.05 73.1795 55.3 70.0295 51.8C67.0795 48.5 65.6045 44.65 65.6045 40.25C65.6045 35.85 67.0545 31.975 69.9545 28.625C73.0545 25.075 76.8795 23.3 81.4295 23.3C86.1295 23.3 90.0545 25.075 93.2045 28.625C96.2045 31.975 97.7045 35.925 97.7045 40.475ZM91.6295 40.55C91.6295 36.25 90.9045 32.75 89.4545 30.05C87.7045 26.85 85.1045 25.25 81.6545 25.25C78.4045 25.25 75.9295 26.6 74.2295 29.3C72.5295 32 71.6795 35.6 71.6795 40.1C71.6795 44.45 72.4295 47.95 73.9295 50.6C75.6795 53.65 78.2545 55.175 81.6545 55.175C84.9545 55.175 87.4795 53.775 89.2295 50.975C90.8295 48.425 91.6295 44.95 91.6295 40.55ZM126.786 26.675C126.786 28.725 125.586 29.75 123.186 29.75C122.436 29.75 121.486 29.475 120.336 28.925C119.186 28.425 118.386 28.175 117.936 28.175C116.636 28.175 115.136 29.1 113.436 30.95C111.886 32.6 111.111 33.775 111.111 34.475V49.325C111.111 51.425 111.586 52.775 112.536 53.375C113.236 53.825 114.861 54.075 117.411 54.125V56H100.611V54.125C102.561 54.075 103.886 53.85 104.586 53.45C105.536 52.9 106.011 51.775 106.011 50.075V32.45C106.011 29.7 104.211 28.25 100.611 28.1V26.3L110.061 23.3H111.111V31.25H111.261C115.311 25.95 119.136 23.3 122.736 23.3C125.436 23.3 126.786 24.425 126.786 26.675ZM166.478 56H150.203V54.125C153.103 54.025 154.553 53.625 154.553 52.925C154.553 52.275 154.253 51.55 153.653 50.75L145.253 39.275L140.003 43.775V50.75C140.003 52.85 141.628 53.975 144.878 54.125V56H129.878V54.125C131.678 54.075 132.903 53.825 133.553 53.375C134.453 52.775 134.903 51.575 134.903 49.775V15.125C134.903 12.725 133.053 11.425 129.353 11.225V9.35L138.953 6.275H140.003V41.225L150.428 32.3C152.428 30.6 153.428 29.225 153.428 28.175C153.428 27.025 151.978 26.4 149.078 26.3V24.425H164.753V26.3C162.603 26.4 160.653 27 158.903 28.1C157.453 29.05 154.178 31.7 149.078 36.05L159.503 50.525C160.653 52.125 161.878 53.175 163.178 53.675C163.928 53.975 165.028 54.125 166.478 54.125V56ZM197.415 47.45C197.415 50.15 196.34 52.425 194.19 54.275C192.04 56.125 189.365 57.05 186.165 57.05C184.815 57.05 183.115 56.775 181.065 56.225C179.415 55.775 178.365 55.55 177.915 55.55C176.365 55.55 174.84 56.05 173.34 57.05L168.99 46.4L170.865 45.725C173.265 48.425 175.315 50.4 177.015 51.65C180.115 54 183.265 55.175 186.465 55.175C188.365 55.175 190.04 54.6 191.49 53.45C192.94 52.3 193.665 50.825 193.665 49.025C193.665 47.125 192.815 45.725 191.115 44.825C190.015 44.225 187.115 43.35 182.415 42.2C178.915 41.3 176.315 40.325 174.615 39.275C171.765 37.525 170.34 35.125 170.34 32.075C170.34 29.475 171.315 27.35 173.265 25.7C175.165 24.1 177.54 23.3 180.39 23.3C181.44 23.3 182.84 23.55 184.59 24.05C186.29 24.5 187.515 24.725 188.265 24.725C189.715 24.725 191.015 24.25 192.165 23.3L196.365 33.125L194.34 33.725C189.54 28.075 184.89 25.25 180.39 25.25C178.44 25.25 176.84 25.75 175.59 26.75C174.39 27.75 173.79 28.975 173.79 30.425C173.79 31.825 174.465 32.975 175.815 33.875C177.415 35.025 180.34 36.1 184.59 37.1C188.54 38.05 191.39 39.075 193.14 40.175C195.99 41.925 197.415 44.35 197.415 47.45Z" fill="#FF33BA"/>
</svg>
